<svg xmlns="http://www.w3.org/2000/svg" width="148" height="31" viewBox="0 0 148 31" fill="none">
  <path d="M131.496 18.3384C131.496 13.1947 128.295 11.4037 124.54 11.4037C122.291 11.4037 119.752 12.2992 118.615 14.1821L118.615 12.0236L110.072 12.0236L110.072 29.9345L118.615 29.9345L118.615 20.7724C118.615 18.9584 119.329 18.1317 120.625 17.9939C122.133 17.8562 123.191 18.545 123.191 20.7724L123.191 29.9345L131.496 29.9345L131.496 18.3384ZM69.5787 29.9345L78.3068 29.9345L78.3068 22.1502L84.3108 22.1502L84.3108 15.5599L78.3068 15.5599L78.3068 12.0236L85.6596 12.0236L85.6596 5.02002L73.6783 5.02002C71.1921 5.02002 69.6051 6.39778 69.6051 8.4185L69.6051 29.9345L69.5787 29.9345ZM133.982 27.1561C133.982 28.7634 135.331 29.9345 137.42 29.9345L147.101 29.9345L147.101 23.1376L142.472 23.1376L142.472 18.7747L147.101 18.7747L147.101 12.0466L142.472 12.0466L142.472 7.61481L134.008 7.61481L134.008 27.202L133.982 27.1561ZM93.9911 20.8413C93.9911 19.2339 95.1813 18.0628 97.0327 18.0628C98.8841 18.0628 100.074 19.2339 100.074 20.8413C100.074 22.4487 98.8841 23.6198 97.0327 23.6198C95.1813 23.6198 93.9911 22.4487 93.9911 20.8413ZM85.7655 20.8413C85.7655 26.6049 90.3147 30.6234 97.0327 30.6234C103.751 30.6234 108.3 26.6049 108.3 20.8413C108.3 15.0777 103.751 11.0592 97.0327 11.0592C90.3147 11.0592 85.7655 15.0777 85.7655 20.8413Z" fill="#E22613"/>
  <path d="M61.0126 20.546L67.9687 12.0039L57.3362 12.0039L54.85 15.7468L52.2844 12.0039L41.7313 12.0039L48.846 20.546L40.1179 29.5014L40.1179 12.0039L30.6756 12.0039L30.6756 29.5014L21.9475 19.6963C25.8619 18.089 28.1894 14.5757 28.1894 10.9705C28.1894 5.00023 23.7989 1.6936 15.7055 1.6936L0.100655 1.6936L0.100646 29.9147L9.5429 29.9147L9.5429 21.2808L13.2193 21.2808L19.3819 29.9147L51.3587 29.9147L54.7971 25.1155L58.2354 29.9147L69.2646 29.9147L60.9597 20.546L61.0126 20.546ZM15.3617 14.4838L9.59581 14.4838L9.59582 8.49056L15.3617 8.49056C17.2131 8.49056 18.324 9.77647 18.324 11.3839C18.324 13.1979 16.9751 14.4838 15.3617 14.4838Z" fill="#E22613"/>
  <path d="M30.0395 5.25023C30.0395 7.9388 32.55 10.1183 35.6467 10.1183C38.7435 10.1183 41.2539 7.9388 41.2539 5.25023C41.2539 2.56166 38.7435 0.382141 35.6467 0.382141C32.55 0.382141 30.0395 2.56166 30.0395 5.25023Z" fill="#E22613"/>
</svg>