<svg xmlns="http://www.w3.org/2000/svg" width="159" height="55" viewBox="0 0 159 55" fill="none">
  <g clip-path="url(#clip0_1045_5184)">
    <mask id="mask0_1045_5184" style="mask-type:luminance" maskUnits="userSpaceOnUse" x="0" y="0" width="159" height="55">
      <path d="M158.746 0.38208H0.795898V54.3821H158.746V0.38208Z" fill="white"/>
    </mask>
    <g mask="url(#mask0_1045_5184)">
      <path d="M158.736 7.26529L151.773 7.27839L151.76 0.38208L147.22 0.390815L147.233 7.28276L140.266 7.29586L140.275 11.7377L147.242 11.7245L147.251 18.6209L151.791 18.6121L151.778 11.7158L158.745 11.7071L158.736 7.26529Z" fill="#E22613"/>
      <path d="M116.859 18.9834L106.728 19.0008C105.62 18.6383 104.46 18.4287 103.189 18.4331C97.2282 18.4418 92.6437 23.0976 92.6524 29.1073C92.6571 32.396 94.1926 35.0602 96.1996 37.2484L107.778 49.8181L92.7891 49.8443L92.7977 54.3865L114.75 54.3516L114.741 50.1718L104.91 39.6374C110.081 38.6372 113.766 34.6628 113.756 29.0724C113.756 27.037 113.223 25.1547 112.27 23.5387L116.859 23.5299L116.85 18.9878L116.859 18.9834ZM103.22 35.51C100.052 35.5144 97.4089 32.8546 97.4042 29.0942C97.4003 25.3861 100.087 22.77 103.198 22.7657C106.308 22.7613 109.009 25.3687 109.013 29.0767C109.018 32.8371 106.384 35.5057 103.22 35.51Z" fill="#E22613"/>
      <path d="M88.2334 7.38721L83.168 7.39509L83.1798 14.8636L88.2452 14.8557L88.2334 7.38721Z" fill="#E22613"/>
      <path d="M88.2519 19.0354L83.1865 19.0432L83.2266 44.1696L88.292 44.1617L88.2519 19.0354Z" fill="#E22613"/>
      <path d="M70.4886 29.295C67.1616 28.5176 65.3129 27.4738 65.3129 25.5957C65.3129 23.9229 66.6277 22.6695 69.0545 22.6651C71.3755 22.6651 73.0124 24.0147 73.4404 26.264L78.6647 26.2552C77.866 21.4509 74.0096 18.4811 69.2046 18.4898C63.7685 18.4985 60.2915 21.6387 60.3003 25.8185C60.3092 30.3126 63.4243 32.6056 68.4412 33.6931C72.2403 34.5229 73.6699 35.6716 73.6699 37.602C73.6699 39.2748 72.2491 40.4759 69.4516 40.4802C66.7601 40.4846 65.1231 39.1307 64.4833 36.6761L59.312 36.6849C60.0047 42.0133 64.2318 44.7735 69.5619 44.7648C74.7862 44.7561 78.7397 41.6158 78.7309 37.2789C78.722 32.7847 75.6069 30.4917 70.4841 29.2994L70.4886 29.295Z" fill="#E22613"/>
      <path d="M44.0858 18.6296C37.0657 18.6427 32.2739 24.1851 32.2871 31.6535C32.3003 39.3316 37.1099 44.7037 44.4476 44.6906C48.988 44.6818 54.1549 42.3234 55.7786 36.6805L50.6603 36.6893C49.7116 38.6241 47.7658 40.2444 44.5448 40.2532C41.0633 40.2576 38.0497 38.2266 37.4629 33.5272L55.8272 33.4966C55.9331 32.8677 55.9816 32.2956 55.9816 31.6142C55.9684 23.9886 51.1589 18.6165 44.0858 18.6253V18.6296ZM37.507 29.5571C37.9747 25.0106 40.9266 22.9709 44.1432 22.9665C47.6775 22.9622 50.3205 25.4124 50.7485 29.5353L37.5026 29.5571H37.507Z" fill="#E22613"/>
      <path d="M10.4546 7.5054L0.795898 7.52287L0.857672 44.2974L10.5163 44.2799C21.8606 44.2624 29.7147 36.9861 29.6926 25.862C29.6749 14.738 21.7988 7.48793 10.4546 7.5054ZM10.5075 39.6285L6.17901 39.6372L6.13488 12.1611L10.4635 12.1525C18.644 12.1393 24.1418 17.4589 24.1551 25.8664C24.1683 34.2259 18.6881 39.611 10.5119 39.6285H10.5075Z" fill="#E22613"/>
      <path d="M120.658 18.9747L120.698 44.1011L125.764 44.0923L125.733 23.5126L135.228 23.4952L135.263 44.0749L140.329 44.0705L140.289 18.9442L120.658 18.9747Z" fill="#E22613"/>
    </g>
  </g>
  <defs>
    <clipPath id="clip0_1045_5184">
      <rect width="157.95" height="54" fill="white" transform="translate(0.795898 0.38208)"/>
    </clipPath>
  </defs>
</svg>