<svg xmlns="http://www.w3.org/2000/svg" width="142" height="60" viewBox="0 0 142 60" fill="none">
  <path d="M5.04258 15.6651L2.99891 27.3593C4.55488 26.21 6.83079 25.585 9.61761 25.585L10.4304 25.585L11.731 18.1653C58.8745 21.5324 100.236 17.9636 133.375 5.8864L130.031 24.4559C131.146 23.8712 133.491 23.6897 137.347 23.6897L141.573 0.38208C100.514 17.0563 52.8829 20.7864 5.01934 15.6853L5.04258 15.6651Z" fill="#E22613"/>
  <path d="M99.3985 27.5842L106.505 27.5842L104.066 41.3753L96.9832 41.3753L99.3985 27.5842Z" fill="#E22613"/>
  <path d="M42.9694 38.5282C42.4817 39.3146 41.8314 39.6775 41.0186 39.6372C40.2058 39.5767 39.6484 39.1331 39.393 38.3064C39.1143 37.4596 39.1143 36.1692 39.3465 34.4151C39.7645 31.1891 40.7632 29.6165 42.3423 29.7173C43.1552 29.7576 43.7126 30.2012 43.968 31.048C44.2467 31.8746 44.2699 33.1449 44.0377 34.8184C43.8054 36.4918 43.4571 37.7217 42.9694 38.5282ZM50.2615 28.8705C48.7752 27.6204 46.2671 26.9954 42.7836 26.9954C35.9327 26.9954 32.1473 29.5157 31.4274 34.5562C31.0326 37.258 31.5899 39.2339 33.053 40.5243C34.5393 41.7945 37.0242 42.4397 40.5542 42.4397C44.0841 42.4397 46.7316 41.8147 48.5894 40.5445C50.4473 39.2944 51.5853 37.3386 51.9569 34.7175C52.3285 32.0964 51.7711 30.1407 50.2848 28.8906L50.2615 28.8705Z" fill="#E22613"/>
  <path d="M65.238 38.5282C64.7503 39.3146 64.1 39.6775 63.2872 39.6372C62.4744 39.5767 61.917 39.1331 61.6615 38.3064C61.4061 37.4596 61.3829 36.1692 61.6151 34.4151C62.0564 31.1891 63.0317 29.6165 64.6109 29.7173C65.4237 29.7576 65.9579 30.2012 66.2366 31.048C66.5152 31.8746 66.5385 33.1449 66.3295 34.8184C66.0972 36.4918 65.7488 37.7217 65.2611 38.5282M72.5533 28.8705C71.0438 27.6204 68.5589 26.9954 65.0522 26.9954C58.2012 26.9954 54.4391 29.5157 53.6959 34.5562C53.3011 37.258 53.8584 39.2339 55.3215 40.5243C56.8078 41.7945 59.2927 42.4397 62.8227 42.4397C66.3527 42.4397 69.0001 41.8147 70.858 40.5445C72.7159 39.2944 73.8539 37.3386 74.2254 34.7175C74.597 32.0964 74.0396 30.1407 72.5533 28.8906L72.5533 28.8705Z" fill="#E22613"/>
  <path d="M133.958 25.6265C130.729 25.6265 128.593 26.4128 126.874 28.0258L120.952 34.4374L116.122 27.5621L114.218 27.5621C111.315 27.5621 108.76 29.0339 108.272 31.7962L106.6 41.333L113.707 41.333L115.263 32.4615L120.952 41.0709L128.477 33.5301L127.083 41.333L134.19 41.333L136.977 25.5862L133.934 25.5862L133.958 25.6265Z" fill="#E22613"/>
  <path d="M27.5513 27.5839C24.3232 27.5839 22.1634 28.6323 20.4913 29.9832L14.941 34.4592L10.1105 27.5839L8.18295 27.5839C5.28002 27.5839 2.72545 29.0557 2.23775 31.818L0.565652 41.3548L7.67202 41.3548L9.22803 32.4833L14.9177 41.0926L22.0706 35.4875L21.0487 41.3548L28.1551 41.3548L30.5703 27.5637L27.528 27.5637L27.5513 27.5839Z" fill="#E22613"/>
  <path d="M95.3141 40.5853C94.6174 39.7788 92.3648 35.9077 92.3648 35.9077C92.0861 35.4641 91.5055 34.5165 89.8798 34.3753C91.6216 34.2745 94.1995 33.1656 94.571 30.9679C94.8033 29.5968 94.0369 27.5403 89.0206 27.5403L77.6876 27.5403L75.2723 41.3918L81.9839 41.3918L83.1218 35.3028L84.8172 35.3028C85.3977 35.3028 85.7925 35.6254 86.048 36.069C86.3499 36.573 87.9291 39.0933 88.44 39.8393C88.5793 40.0611 88.7419 40.2627 88.8813 40.4845C89.2296 40.9684 89.9495 41.4523 90.8784 41.4523L96.6611 41.412C96.4753 41.3515 95.6393 41.049 95.2909 40.6055L95.3141 40.5853ZM87.7898 31.0889C87.4182 33.1454 85.5603 33.9317 83.9114 33.9317C83.4934 33.9317 83.3076 33.8914 83.3076 33.8914L84.2366 28.5686C84.2366 28.5686 84.4456 28.5282 85.1655 28.5282C87.5575 28.5282 87.9523 30.1614 87.7898 31.0889Z" fill="#E22613"/>
  <path d="M73.4639 48.47L73.2781 48.47L66.9381 48.47L66.9381 49.5789L73.4639 49.5789L73.4639 48.47Z" fill="#E22613"/>
  <path d="M74.4613 48.1444L74.4613 51.4914L73.0214 51.4914L73.0214 52.7011L74.4613 52.7011L74.4613 59.516L75.8779 59.516L75.8779 48.1243L74.4613 48.1243L74.4613 48.1444Z" fill="#E22613"/>
  <path d="M76.8565 48.1448L76.8565 59.5163L78.2715 59.5163L78.2715 48.1448L78.1091 48.1448L76.8565 48.1448Z" fill="#E22613"/>
  <path d="M84.5616 48.2854C83.4933 48.2854 82.6109 48.6886 81.9838 49.4951C81.3568 50.2815 81.0549 51.3501 81.0549 52.6405C81.0549 53.9309 81.38 54.9995 81.9838 55.7858C82.6341 56.5923 83.4933 57.0157 84.5616 57.0157C85.6299 57.0157 86.5124 56.5923 87.1394 55.7858C87.7665 54.9995 88.0683 53.9309 88.0683 52.6405C88.0684 51.3501 87.7665 50.2815 87.1394 49.4951C86.5124 48.6886 85.6299 48.2854 84.5616 48.2854ZM84.5616 55.8463C83.9113 55.8463 83.4237 55.5438 83.0753 54.939C82.7037 54.3139 82.4947 53.5276 82.4947 52.6203C82.4947 51.713 82.6805 50.967 83.0753 50.342C83.4469 49.7371 83.9346 49.4346 84.5616 49.4346C85.1886 49.4346 85.7228 49.7371 86.0712 50.342C86.4427 50.967 86.6285 51.7533 86.6285 52.6203C86.6285 53.4873 86.4427 54.2736 86.0712 54.9188C85.7228 55.5237 85.2351 55.8261 84.5616 55.8261L84.5616 55.8463Z" fill="#E22613"/>
  <path d="M90.1841 48.1448L90.184 59.5163L91.6455 59.5163L91.6455 48.1448L91.4599 48.1448L90.1841 48.1448Z" fill="#E22613"/>
  <path d="M36.6527 54.4553L36.6527 55.5642L42.8533 55.5642L42.8533 59.6572L44.3396 59.6572L44.3396 55.5642L50.3545 55.5642L50.3545 54.4553L36.6758 54.4553L36.6527 54.4553Z" fill="#E22613"/>
  <path d="M48.541 48.47L38.462 48.47L38.462 53.1275L48.541 53.1275L48.541 48.47ZM39.9251 52.0185L39.9251 49.5789L47.0779 49.5789L47.0779 52.0185L39.9251 52.0185Z" fill="#E22613"/>
  <path d="M54.2328 55.3635L54.2328 59.517L63.708 59.517L63.708 55.3635L54.2328 55.3635ZM55.6727 58.4282L55.6727 56.4523L62.2217 56.4523L62.2217 58.4282L55.6727 58.4282Z" fill="#E22613"/>
  <path d="M62.2929 48.1448L62.2929 54.9596L63.708 54.9596L63.708 48.1448L63.5224 48.1448L62.2929 48.1448Z" fill="#E22613"/>
  <path d="M54.1635 53.2862L54.1635 51.9555L60.0391 51.9555L60.0391 48.4875L52.7005 48.4875L52.7005 49.5965L58.5761 49.5965L58.5761 50.8667L52.7005 50.8667L52.7004 54.3951L60.5732 54.3951L60.5732 53.3064L54.1635 53.3064L54.1635 53.2862Z" fill="#E22613"/>
  <path d="M69.4004 55.1813L69.4004 49.3342L67.9622 49.3342L67.9622 55.1813L69.4004 55.1813Z" fill="#E22613"/>
  <path d="M72.418 55.181L72.418 49.3137L70.9797 49.3137L70.9797 55.181L72.418 55.181Z" fill="#E22613"/>
  <path d="M73.9502 56.1473L73.9502 55.0383L66.658 55.0383L66.658 56.1473L73.9502 56.1473Z" fill="#E22613"/>
  <path d="M102.146 48.467L101.96 48.467L94.714 48.467L94.714 49.576L102.146 49.576L102.146 48.467Z" fill="#E22613"/>
  <path d="M105.352 48.1444L104.098 48.1444L104.098 51.5922L102.101 51.5922L102.101 52.7011L104.098 52.7011L104.098 59.516L105.538 59.516L105.538 48.1243L105.352 48.1243L105.352 48.1444Z" fill="#E22613"/>
  <path d="M97.2969 55.3216L97.2969 49.4543L95.8587 49.4543L95.8586 55.3216L97.2969 55.3216Z" fill="#E22613"/>
  <path d="M101.032 55.3245L101.032 49.4573L99.5939 49.4573L99.5939 55.3245L101.032 55.3245Z" fill="#E22613"/>
  <path d="M103.241 56.1678L103.241 55.0588L94.3467 55.0588L94.3467 56.1678L103.241 56.1678Z" fill="#E22613"/>
</svg>