<svg width="197" height="38" viewBox="0 0 197 38" fill="none" xmlns="http://www.w3.org/2000/svg">
<g id="Symbol" clip-path="url(#clip0_1400_4049)">
<g id="Logotype">
<path id="Fill-1" fill-rule="evenodd" clip-rule="evenodd" d="M56.633 0L41.8228 38H54.3451L56.1495 32.9356H70.4491L72.2535 38H84.7759L69.9656 0H56.6398H56.633ZM63.2993 12.1984L67.5211 24.0678H59.0775L63.2993 12.1984Z" fill="#E22613"/>
<path id="Fill-2" fill-rule="evenodd" clip-rule="evenodd" d="M125.23 0V38H154.803V28.5017H137.187V23.4305H154.176V14.5695H137.187V9.49829H154.803V0H125.23Z" fill="#E22613"/>
<path id="Fill-3" fill-rule="evenodd" clip-rule="evenodd" d="M108.643 0L99.7632 24.9861L90.8771 0H78.2935L93.0969 38H106.423L121.233 0H108.643Z" fill="#E22613"/>
<path id="Fill-4" fill-rule="evenodd" clip-rule="evenodd" d="M25.8005 0V20.3398L12.032 0H0V38H11.9571V17.6602L25.7256 38H37.7576V30.7632V0H25.8005Z" fill="#E22613"/>
<path id="Fill-5" fill-rule="evenodd" clip-rule="evenodd" d="M179.085 17.7356H172.425V9.50512H179.051C180.814 9.50512 182.449 10.6085 182.973 12.308C183.851 15.1383 181.768 17.7425 179.085 17.7425V17.7356ZM187.46 24.9655L188.604 24.4858C192.99 22.6355 195.223 18.6402 195.223 13.5621C195.223 8.765 193.487 5.20828 190.055 3.00846C186.868 0.959406 182.728 0.00683594 177.035 0.00683594H161.095V38.0068H173.052V27.2407H177.349L184.634 38.0068H197L187.454 24.9724L187.46 24.9655Z" fill="#E22613"/>
</g>
</g>
<defs>
<clipPath id="clip0_1400_4049">
<rect width="197" height="38" fill="white"/>
</clipPath>
</defs>
</svg>
