<svg width="1722" height="50" viewBox="0 0 1722 50" fill="none" xmlns="http://www.w3.org/2000/svg">
<path d="M49.8857 28.0976C49.8857 27.1122 49.2812 26.7358 48.3734 26.7358H44.676V29.457H48.3734C49.2812 29.457 49.8857 29.0807 49.8857 28.0953M44.676 20.543V23.0293H47.9104C48.8182 23.0293 49.4226 22.678 49.4226 21.7862C49.4226 20.8943 48.8182 20.543 47.9104 20.543H44.676ZM40 16.7886H48.8387C51.7469 16.7886 53.7473 17.9382 53.7473 20.3309C53.7473 22.0667 52.7232 23.1456 51.049 23.5927C53.282 24.1561 54.678 25.5862 54.678 28.0497C54.678 31.5441 52.3058 33.2115 48.8387 33.2115H40V16.7886Z" fill="#FFEFD3"/>
<path d="M56.3789 16.7886V33.2115H69.2891V29.457H61.0549V26.7609H68.8238V23.0065H61.0549V20.543H69.2891V16.7886H56.3789Z" fill="#FFEFD3"/>
<path d="M75.906 33.2115H75.2331C72.9431 30.8142 70.9883 27.906 70.9883 25C70.9883 22.0941 72.9225 19.2041 75.2331 16.7886H75.906C73.8395 19.2999 73.1119 22.0736 73.1119 25C73.1119 27.9265 73.8395 30.7207 75.906 33.2115Z" fill="#FFEFD3"/>
<path d="M88.0272 26.9936C87.352 24.9042 86.7019 22.7236 86.1659 20.5658C85.655 22.7236 85.0026 24.9065 84.3275 26.9936H88.0272ZM89.2361 30.8644H83.1185L82.375 33.2115H77.6055L83.374 16.7886H88.9806L94.7492 33.2115H89.982L89.2384 30.8644H89.2361Z" fill="#FFEFD3"/>
<path d="M96.4492 16.7886V20.543H101.011V33.2115H105.778V20.543H110.34V16.7886H96.4492Z" fill="#FFEFD3"/>
<path d="M112.041 16.7886V20.543H116.603V33.2115H121.372V20.543H125.934V16.7886H112.041Z" fill="#FFEFD3"/>
<path d="M132.425 16.7886H127.633V33.2115H132.425V16.7886Z" fill="#FFEFD3"/>
<path d="M134.127 16.7886V20.543H138.689V33.2115H143.456V20.543H148.018V16.7886H134.127Z" fill="#FFEFD3"/>
<path d="M154.509 16.5V25.503C154.509 28.2629 155.695 28.9655 157.534 28.9655C159.372 28.9655 160.558 28.2629 160.558 25.503V16.5H165.351V25.8542C165.351 30.5119 162.28 33.5 157.534 33.5C152.787 33.5 149.717 30.0808 149.717 25.8542V16.5H154.509Z" fill="#FFEFD3"/>
<path d="M171.763 20.778V29.2244H173.914C176.384 29.2244 178.12 27.8877 178.12 25C178.12 22.1123 176.384 20.778 173.914 20.778H171.763ZM167.051 16.7886H174.37C179.496 16.7886 182.47 19.8861 182.47 25C182.47 30.1139 179.496 33.2115 174.37 33.2115H167.051V16.7886Z" fill="#FFEFD3"/>
<path d="M184.172 16.7886V33.2115H197.082V29.457H188.846V26.7609H196.617V23.0065H188.846V20.543H197.082V16.7886H184.172Z" fill="#FFEFD3"/>
<path d="M198.781 33.2115H199.454C201.744 30.8142 203.699 27.906 203.699 25C203.699 22.0941 201.765 19.2041 199.454 16.7886H198.781C200.846 19.2999 201.575 22.0736 201.575 25C201.575 27.9265 200.848 30.7207 198.781 33.2115Z" fill="#FFEFD3"/>
<g clip-path="url(#clip0_990_13902)">
<path d="M290.759 32.5238C293.565 32.5238 294.743 29.9719 294.743 27.4984C294.743 24.364 293.23 22.499 290.814 22.499C287.876 22.499 286.828 25.1084 286.828 27.6629C286.828 30.2174 288.038 32.5238 290.757 32.5238M297.765 34.616H294.798V32.691H294.743C293.917 34.313 292.131 34.9974 290.347 34.9974C285.867 34.9974 283.699 31.6776 283.699 27.4174C283.699 22.2822 286.75 20.0307 289.853 20.0307C291.64 20.0307 293.62 20.6889 294.578 22.2535H294.63V15H297.765V34.616Z" fill="#FFEFD3"/>
<path d="M303.721 15H300.918V22.7472H303.721V15Z" fill="#FFEFD3"/>
<path d="M309.267 30.0555C309.427 31.8656 310.806 32.5265 312.48 32.5265C313.661 32.5265 315.721 32.2835 315.638 30.6563C315.557 29.0107 313.274 28.8174 310.994 28.295C308.687 27.8066 306.433 26.9812 306.433 24.095C306.433 20.9893 309.787 20.0307 312.365 20.0307C315.28 20.0307 317.918 21.2374 318.305 24.3953H315.034C314.758 22.9117 313.522 22.5016 312.146 22.5016C311.239 22.5016 309.565 22.721 309.565 23.9565C309.565 25.4976 311.871 25.7144 314.178 26.2368C316.458 26.7566 318.767 27.582 318.767 30.3846C318.767 33.7619 315.361 34.9974 312.422 34.9974C308.849 34.9974 306.188 33.4041 306.133 30.0529H309.267V30.0555Z" fill="#FFEFD3"/>
<path d="M319.18 20.4146H321.544V16.1571H324.678V20.412H327.504V22.7445H324.678V30.3271C324.678 31.6175 324.785 32.2783 326.185 32.2783C326.624 32.2783 327.065 32.2783 327.504 32.1634V34.5795C326.822 34.6369 326.159 34.7466 325.472 34.7466C322.202 34.7466 321.601 33.4824 321.546 31.1238V22.7472H319.182V20.4146H319.18Z" fill="#FFEFD3"/>
<path d="M329.207 20.4147H332.148V23.1599H332.203C332.558 21.6527 334.431 20.0307 336.348 20.0307C337.067 20.0307 337.26 20.0856 337.534 20.1117V23.1364C337.09 23.0815 336.625 22.9979 336.186 22.9979C334.042 22.9979 332.341 24.7271 332.341 27.8614V34.6187H329.207V20.4147Z" fill="#FFEFD3"/>
<path d="M339.17 20.412H342.299V34.6134H339.17V20.412ZM339.17 15H342.299V17.9672H339.17V15Z" fill="#FFEFD3"/>
<path d="M354.272 25.1659C354.024 23.4394 352.762 22.5017 351.028 22.5017C349.406 22.5017 347.128 23.3506 347.128 27.6656C347.128 30.0268 348.17 32.5265 350.894 32.5265C352.707 32.5265 353.966 31.3171 354.272 29.2876H357.401C356.826 32.9679 354.546 35 350.894 35C346.441 35 343.996 31.8421 343.996 27.6682C343.996 23.4942 346.331 20.0333 350.999 20.0333C354.298 20.0333 357.098 21.6789 357.398 25.1685H354.269L354.272 25.1659Z" fill="#FFEFD3"/>
<path d="M357.982 20.4146H360.344V16.1571H363.473V20.412H366.307V22.7445H363.473V30.3271C363.473 31.6175 363.588 32.2783 364.988 32.2783C365.424 32.2783 365.865 32.2783 366.307 32.1634V34.5795C365.62 34.6369 364.959 34.7466 364.275 34.7466C361.007 34.7466 360.401 33.4824 360.346 31.1238V22.7472H357.985V20.4146H357.982Z" fill="#FFEFD3"/>
</g>
<g clip-path="url(#clip1_990_13902)">
<path d="M450.009 13.5C447.997 13.5 446.314 14.5956 446.314 17.2713V28.2557C446.314 30.8789 447.995 32.027 450.009 32.027C452.024 32.027 453.654 30.9577 453.654 28.2557V25.7328H451.284V27.9741C451.284 29.2749 450.673 29.7332 450.009 29.7332C449.346 29.7332 448.685 29.2749 448.685 27.9741V17.5505C448.685 16.2759 449.322 15.7938 450.009 15.7938C450.697 15.7938 451.284 16.2783 451.284 17.5505V20.0735H453.654V17.2689C453.654 14.5455 451.998 13.5 450.009 13.5Z" fill="#FFEFD3"/>
<path d="M456.839 13.753L454.445 31.7453H456.839L457.274 27.7186H459.949L460.408 31.7453H462.778L460.381 13.753H456.839ZM457.577 25.3509L458.572 16.1518L459.618 25.3509H457.579H457.577Z" fill="#FFEFD3"/>
<path d="M462.782 34.1298H446.303V36.5H462.782V34.1298Z" fill="#FFEFD3"/>
<path d="M507.257 34.1298H465.756V36.5H507.257V34.1298Z" fill="#FFEFD3"/>
<path d="M471.031 22.2933C471.95 22.0641 472.714 21.5032 472.714 19.3097V17.3978C472.714 14.8247 471.821 13.753 469.553 13.753H465.756V31.7453H469.859C471.974 31.7453 472.866 30.6999 472.866 27.9239V25.5275C472.866 23.6418 472.511 22.7492 471.031 22.2909V22.2933ZM468.126 16.0993H469.095C469.756 16.0993 470.343 16.1757 470.343 17.7295V19.5913C470.343 20.9661 469.911 21.1953 469.198 21.1953H468.126V16.0993ZM470.494 27.5659C470.494 29.146 470.138 29.3513 469.195 29.3513H468.124V23.5655H469.245C469.909 23.5655 470.494 23.7707 470.494 24.9928V27.5659Z" fill="#FFEFD3"/>
<path d="M478.139 13.5C476.125 13.5 474.418 14.5956 474.418 17.2713V28.2295C474.418 30.855 476.125 32.0007 478.139 32.0007C480.154 32.0007 481.834 30.929 481.834 28.2295V17.2713C481.834 14.5455 480.101 13.5 478.139 13.5ZM479.464 27.9502C479.464 29.2487 478.8 29.7332 478.139 29.7332C477.478 29.7332 476.788 29.2487 476.788 27.9502V17.5505C476.788 16.2759 477.476 15.7938 478.139 15.7938C478.803 15.7938 479.464 16.2783 479.464 17.5505V27.9478V27.9502Z" fill="#FFEFD3"/>
<path d="M486.981 13.5C484.969 13.5 483.26 14.5956 483.26 17.2713V28.2295C483.26 30.855 484.969 32.0007 486.981 32.0007C488.993 32.0007 490.676 30.929 490.676 28.2295V17.2713C490.676 14.5455 488.943 13.5 486.981 13.5ZM488.308 27.9502C488.308 29.2487 487.644 29.7332 486.983 29.7332C486.322 29.7332 485.632 29.2487 485.632 27.9502V17.5505C485.632 16.2759 486.32 15.7938 486.983 15.7938C487.647 15.7938 488.308 16.2783 488.308 17.5505V27.9478V27.9502Z" fill="#FFEFD3"/>
<path d="M499.773 13.753H497.251L494.599 21.3743V13.753H492.229V31.7477H494.599V23.3888L497.174 31.7477H499.824L496.792 22.0617L499.773 13.753Z" fill="#FFEFD3"/>
<path d="M503.466 20.3289C502.805 19.7178 502.676 19.1569 502.676 17.7821C502.676 16.3046 503.111 15.9991 503.695 15.9991C504.614 15.9991 504.691 16.739 504.691 17.2975V19.1068H507.111V17.3477C507.111 14.5455 505.557 13.5 503.748 13.5C502.244 13.5 501.328 14.0848 500.843 15.0539C500.511 15.7437 500.335 16.5839 500.335 17.7057V18.3931C500.335 20.7872 501.151 21.656 502.017 22.4699L504.158 24.4844C504.643 24.9165 504.848 25.3246 504.848 26.7281C504.848 28.5374 504.925 29.4802 503.726 29.4802C502.528 29.4802 502.605 28.3846 502.605 27.4155V25.3771H500.234V28.1555C500.234 30.7046 501.433 32.0294 503.827 32.0294C506.07 32.0294 506.987 30.7046 507.192 28.819C507.269 28.1817 507.269 27.3415 507.269 26.4488C507.269 24.4606 506.81 23.4414 505.662 22.372L503.471 20.3313L503.466 20.3289Z" fill="#FFEFD3"/>
</g>
<g clip-path="url(#clip2_990_13902)">
<path d="M596.329 16.2328L594.5 19.9072C594.013 20.9016 593.686 22.182 593.666 22.2842C593.625 22.1208 593.363 20.9254 592.872 19.9277L591.023 16.2328H587.264L591.98 24.4773V29.7795H595.352V24.4773L600.048 16.2328H596.329Z" fill="#FFEFD3"/>
<path d="M603.954 19.7676C600.6 19.7676 598.648 21.7597 598.648 25.046C598.648 28.3322 600.579 30.1643 603.811 30.1643C607.043 30.1643 609.055 28.2164 609.055 24.9642C609.055 21.7121 607.186 19.7642 603.954 19.7642V19.7676ZM603.852 28.1551C602.531 28.1551 601.901 27.0586 601.901 24.9881C601.901 22.9176 602.531 21.8006 603.852 21.8006C605.173 21.8006 605.824 22.9176 605.824 25.0085C605.824 27.0994 605.173 28.1551 603.852 28.1551Z" fill="#FFEFD3"/>
<path d="M615.698 19.7676C612.344 19.7676 610.393 21.7597 610.393 25.046C610.393 28.3322 612.323 30.1643 615.555 30.1643C618.787 30.1643 620.796 28.2164 620.796 24.9642C620.796 21.7121 618.927 19.7642 615.695 19.7642L615.698 19.7676ZM615.596 28.1551C614.275 28.1551 613.645 27.0586 613.645 24.9881C613.645 22.9176 614.275 21.8006 615.596 21.8006C616.917 21.8006 617.568 22.9176 617.568 25.0085C617.568 27.0994 616.917 28.1551 615.596 28.1551Z" fill="#FFEFD3"/>
<path d="M628.871 19.8902C627.247 19.8902 626.188 20.8233 625.803 21.678L625.742 20.1558H622.816V29.7829H625.966V23.9358C625.966 22.7984 626.453 22.0084 627.57 22.0084C628.568 22.0084 629.014 22.5771 629.014 23.7145V29.7863H632.164V23.4489C632.164 21.0923 630.863 19.897 628.871 19.897V19.8902Z" fill="#FFEFD3"/>
<path d="M641.191 19.8902C641.191 20.4793 641.253 21.0276 641.29 21.392C641.028 20.8437 639.989 19.7676 638.365 19.7676C635.804 19.7676 634.139 21.9198 634.139 25.0902C634.139 28.2607 635.746 30.0451 638.205 30.0451C639.689 30.0451 640.725 29.3947 641.314 28.3594L641.396 29.7795H644.3V15H641.191V19.8902ZM639.281 28.1551C638.062 28.1551 637.35 26.9564 637.35 25.0289C637.35 23.1015 638.062 21.8415 639.301 21.8415C640.541 21.8415 641.232 22.938 641.232 24.9472C641.232 26.9564 640.561 28.1551 639.281 28.1551Z" fill="#FFEFD3"/>
<path d="M651.395 19.7676C648.225 19.7676 646.314 21.7597 646.314 25.046C646.314 28.3322 648.164 30.1643 651.375 30.1643C653.793 30.1643 655.642 29.1291 656.129 26.8747H652.938C652.693 27.7056 652.308 28.0938 651.392 28.0938C649.747 28.0938 649.543 26.6125 649.543 25.4342H656.289C656.289 25.2094 656.309 25.0494 656.309 24.9268C656.309 21.678 654.358 19.7676 651.389 19.7676H651.395ZM649.628 23.8098C649.791 22.2672 650.34 21.5963 651.378 21.5963C652.417 21.5963 652.962 22.2842 653.023 23.8098H649.628Z" fill="#FFEFD3"/>
<path d="M663.876 24.3172L662.674 23.8915C661.274 23.4046 660.988 23.0606 660.988 22.4306C660.988 21.8824 661.414 21.5554 662.088 21.5554C662.837 21.5554 663.266 22.022 663.328 22.9789H666.297C666.154 21.7598 665.626 19.771 662.109 19.771C659.65 19.771 658.025 20.9493 658.025 22.7575C658.025 24.1197 658.775 24.8893 660.505 25.5193L661.969 26.0472C663.045 26.4524 663.352 26.7793 663.352 27.348C663.352 27.8759 662.987 28.322 662.112 28.322C661.056 28.322 660.831 27.5898 660.729 26.7385H657.641C657.865 29.0337 659.248 30.1711 662.071 30.1711C664.632 30.1711 666.338 29.0337 666.338 27.1267C666.338 25.8054 665.667 24.954 663.879 24.324L663.876 24.3172Z" fill="#FFEFD3"/>
<path d="M678.025 19.788C677.677 19.788 677.129 19.8085 676.683 19.8902C675.059 20.1933 673.451 21.1468 673.451 23.3841C673.451 24.9472 674.224 25.9416 675.382 26.449C675.26 26.5103 674.081 27.0995 674.081 28.053C674.081 29.3334 675.563 29.6569 675.627 29.6773C675.505 29.6978 673.107 30.103 673.107 32.0952C673.107 34.37 675.971 35 678.25 35C680.708 35 683.76 34.1078 683.76 31.5674C683.76 29.0269 681.461 28.4582 679.145 28.196L677.906 28.053C676.785 27.9304 676.503 27.7499 676.503 27.3651C676.503 27.079 676.646 26.9394 676.785 26.8577C677.191 26.919 677.66 26.9394 678.066 26.9394C680.16 26.9394 682.578 26.0472 682.578 23.6089C682.578 22.4306 681.989 21.9232 681.989 21.9232C681.989 21.9232 682.394 22.0458 683.191 22.0458H683.94V20.1592H680.119C679.51 19.914 678.675 19.7948 678.025 19.7948V19.788ZM677.252 30.2256L678.614 30.4095C680.197 30.6138 680.787 30.9578 680.787 31.7308C680.787 32.6843 679.649 33.1134 678.348 33.1134C677.047 33.1134 675.971 32.6673 675.971 31.5912C675.971 30.5151 677.252 30.229 677.252 30.229V30.2256ZM678.025 25.1686C677.252 25.1686 676.622 24.702 676.622 23.3807C676.622 22.0594 677.231 21.5112 678.025 21.5112C678.859 21.5112 679.489 22.0594 679.489 23.3807C679.489 24.702 678.839 25.1686 678.025 25.1686Z" fill="#FFEFD3"/>
<path d="M691.582 19.8902C689.958 19.8902 688.899 20.8233 688.514 21.678L688.453 20.1558H685.527V29.7829H688.677V23.9358C688.677 22.7984 689.164 22.0084 690.281 22.0084C691.279 22.0084 691.725 22.5771 691.725 23.7145V29.7863H694.875V23.4489C694.875 21.0923 693.574 19.897 691.582 19.897V19.8902Z" fill="#FFEFD3"/>
<path d="M669.744 15C668.705 15 667.867 15.8411 667.867 16.8764C667.867 17.9116 668.708 18.7528 669.744 18.7528C670.779 18.7528 671.62 17.9116 671.62 16.8764C671.62 15.8411 670.779 15 669.744 15Z" fill="#FFEFD3"/>
<path d="M671.316 20.1524H668.166V29.7795H671.316V20.1524Z" fill="#FFEFD3"/>
</g>
<g clip-path="url(#clip3_990_13902)">
<path d="M813.34 26.5154H813.15H806.533V27.8615H813.34V26.5154Z" fill="#FFEFD3"/>
<path d="M814.375 26.1307V30.1659H812.863V31.622H814.375V39.8311H815.855V26.1307H814.375Z" fill="#FFEFD3"/>
<path d="M816.881 26.1307V39.8311H818.381V26.1307H818.189H816.881Z" fill="#FFEFD3"/>
<path d="M824.944 26.3171C823.822 26.3171 822.913 26.8093 822.237 27.7827C821.587 28.729 821.258 30.005 821.258 31.5726C821.258 33.1402 821.587 34.4043 822.237 35.357C822.913 36.3359 823.821 36.8298 824.944 36.8298C826.067 36.8298 826.975 36.3296 827.639 35.345C828.287 34.3892 828.614 33.1195 828.614 31.5726C828.614 30.0258 828.287 28.729 827.637 27.7827C826.975 26.8093 826.067 26.3171 824.944 26.3171ZM824.944 35.4215C824.276 35.4215 823.765 35.0662 823.385 34.3374C822.989 33.5711 822.784 32.6392 822.784 31.5551C822.784 30.471 822.989 29.5741 823.385 28.811C823.765 28.0798 824.276 27.7246 824.944 27.7246C825.612 27.7246 826.149 28.0798 826.519 28.8094C826.906 29.5741 827.101 30.5005 827.101 31.5551C827.101 32.6097 826.906 33.5568 826.519 34.3287C826.149 35.0631 825.634 35.4215 824.944 35.4215Z" fill="#FFEFD3"/>
<path d="M830.816 26.1307V39.8311H832.347V26.1307H832.157H830.816Z" fill="#FFEFD3"/>
<path d="M774.875 33.736V35.0662H781.352V40.0008H782.899V35.0662H789.177V33.736H774.875Z" fill="#FFEFD3"/>
<path d="M787.301 26.5154H776.768V32.1238H787.301V26.5154ZM778.297 30.7936V27.8496H785.772V30.7936H778.297Z" fill="#FFEFD3"/>
<path d="M793.254 34.8353V39.8312H803.143V34.8353H793.254ZM794.771 38.5145V36.1344H801.611V38.5145H794.771Z" fill="#FFEFD3"/>
<path d="M801.662 26.1307V34.343H803.158V26.1307H802.964H801.662Z" fill="#FFEFD3"/>
<path d="M793.182 32.3317V30.7251H799.331V26.5472H791.67V27.8783H797.818V29.4108H791.67V33.6532H799.885V32.3317H793.182Z" fill="#FFEFD3"/>
<path d="M809.094 27.5788H807.598V34.6051H809.094V27.5788Z" fill="#FFEFD3"/>
<path d="M812.263 27.5318H810.766V34.6051H812.263V27.5318Z" fill="#FFEFD3"/>
<path d="M813.863 34.4243H806.248V35.7736H813.863V34.4243Z" fill="#FFEFD3"/>
<path d="M843.313 26.5154H843.123H835.539V27.8615H843.313V26.5154Z" fill="#FFEFD3"/>
<path d="M846.656 26.1307H845.333V30.291H843.244V31.6363H845.333V39.8311H846.848V26.1307H846.656Z" fill="#FFEFD3"/>
<path d="M838.244 27.7158H836.744V34.785H838.244V27.7158Z" fill="#FFEFD3"/>
<path d="M842.142 27.7158H840.648V34.785H842.142V27.7158Z" fill="#FFEFD3"/>
<path d="M844.467 34.4744H835.172V35.8182H844.467V34.4744Z" fill="#FFEFD3"/>
<path d="M814.964 14.3268L814.461 17.6332C814.844 17.3082 815.401 17.1306 816.087 17.1306H816.287L816.605 15.0285C828.181 15.9828 838.34 14.9744 846.483 11.5564L845.661 16.8096C845.935 16.6447 846.509 16.5953 847.459 16.5953L848.498 10C838.414 14.7155 826.714 15.7693 814.964 14.3268H814.964Z" fill="#FFEFD3"/>
<path d="M838.135 17.697H839.882L839.279 21.5976H837.539L838.135 17.697Z" fill="#FFEFD3"/>
<path d="M824.275 20.7939C824.154 21.0169 823.994 21.1205 823.794 21.1085C823.592 21.0942 823.459 20.9683 823.395 20.7294C823.329 20.492 823.325 20.1264 823.382 19.6317C823.487 18.7189 823.732 18.2768 824.116 18.3031C824.316 18.3158 824.451 18.4409 824.518 18.6775C824.585 18.914 824.592 19.2693 824.536 19.7448C824.482 20.2188 824.394 20.5685 824.274 20.7939M826.064 18.0594C825.697 17.7049 825.082 17.5289 824.225 17.5289C822.543 17.5289 821.614 18.241 821.436 19.666C821.341 20.4283 821.473 20.9914 821.835 21.3515C822.198 21.7115 822.812 21.8915 823.677 21.8915C824.542 21.8915 825.194 21.7147 825.651 21.357C826.108 21.001 826.384 20.4506 826.478 19.7074C826.57 18.9626 826.433 18.4138 826.065 18.0594H826.064Z" fill="#FFEFD3"/>
<path d="M829.743 20.7939C829.623 21.0169 829.461 21.1205 829.263 21.1085C829.063 21.0942 828.929 20.9683 828.864 20.7294C828.799 20.492 828.794 20.1264 828.85 19.6317C828.956 18.7189 829.2 18.2768 829.586 18.3031C829.786 18.3158 829.919 18.4409 829.986 18.6775C830.055 18.914 830.061 19.2693 830.007 19.7448C829.951 20.2188 829.864 20.5685 829.743 20.7939ZM831.534 18.0594C831.165 17.7049 830.553 17.5289 829.694 17.5289C828.013 17.5289 827.085 18.241 826.904 19.666C826.81 20.4283 826.944 20.9914 827.305 21.3515C827.668 21.7115 828.281 21.8915 829.146 21.8915C830.011 21.8915 830.663 21.7147 831.12 21.357C831.578 21.001 831.853 20.4506 831.946 19.7074C832.04 18.9626 831.902 18.4138 831.534 18.0594Z" fill="#FFEFD3"/>
<path d="M846.622 17.1465C845.828 17.1465 845.307 17.368 844.885 17.8268L843.43 19.6429L842.242 17.6977H841.771C841.059 17.6977 840.431 18.1143 840.311 18.8989L839.9 21.5992H841.647L842.03 19.0885L843.43 21.5267L845.278 19.3912L844.933 21.5992H846.68L847.367 17.1473H846.622V17.1465Z" fill="#FFEFD3"/>
<path d="M820.49 17.697C819.699 17.697 819.168 17.9957 818.755 18.378L817.391 19.6429L816.205 17.6978H815.733C815.023 17.6978 814.394 18.1143 814.274 18.8989L813.863 21.5992H815.611L815.993 19.0885L817.391 21.5267L819.147 19.9424L818.894 21.5992H820.641L821.236 17.6986H820.49V17.697Z" fill="#FFEFD3"/>
<path d="M837.127 21.3769C836.954 21.1475 836.405 20.0531 836.405 20.0531C836.335 19.9256 836.196 19.6604 835.797 19.6198C836.225 19.5903 836.856 19.2796 836.947 18.6568C837.006 18.2712 836.815 17.6898 835.583 17.6898H832.799L832.207 21.6095H833.854L834.131 19.8882H834.55C834.696 19.8882 834.792 19.9814 834.855 20.1033C834.927 20.2466 835.314 20.9595 835.441 21.1682C835.478 21.2288 835.514 21.2901 835.55 21.3491C835.638 21.4876 835.814 21.6199 836.041 21.6199L837.461 21.6087V21.6047C837.415 21.5864 837.209 21.5012 837.127 21.3769ZM835.278 18.6926C835.189 19.2741 834.729 19.4939 834.323 19.4939C834.222 19.4939 834.177 19.482 834.177 19.482L834.404 17.9773C834.404 17.9773 834.453 17.9654 834.632 17.9654C835.22 17.9654 835.317 18.4274 835.278 18.6926Z" fill="#FFEFD3"/>
</g>
<g clip-path="url(#clip4_990_13902)">
<path d="M935.404 10H944.629V12.4877H938.399V17.0613H943.721V19.5691H938.399V26.1108H935.404V10Z" fill="#FFEFD3"/>
<path d="M949.957 15.1209H947.002V26.1133H949.957V15.1209Z" fill="#FFEFD3"/>
<path d="M928.498 28.5156H931.771C933.98 28.5156 935.677 29.3792 935.677 32.035C935.677 34.6908 933.968 35.7502 931.827 35.7502H930.494V39.739H928.498V28.5181V28.5156ZM931.689 33.9754C933.062 33.9754 933.722 33.3228 933.722 32.035C933.722 30.7472 932.994 30.2904 931.621 30.2904H930.489V33.9754H931.686H931.689Z" fill="#FFEFD3"/>
<path d="M941.399 36.8547H938.168L937.468 39.7364H935.447L938.638 28.5156H940.98L944.185 39.7364H942.099L941.399 36.8547ZM940.967 35.1126L940.671 33.885C940.362 32.7178 940.091 31.4275 939.795 30.2151H939.742C939.486 31.4426 939.19 32.7178 938.894 33.885L938.598 35.1126H940.967Z" fill="#FFEFD3"/>
<path d="M945.357 28.5156H948.631C950.84 28.5156 952.537 29.3792 952.537 32.035C952.537 34.6908 950.827 35.7502 948.686 35.7502H947.353V39.739H945.36V28.5181L945.357 28.5156ZM948.55 33.9754C949.924 33.9754 950.584 33.3228 950.584 32.035C950.584 30.7472 949.856 30.2904 948.483 30.2904H947.353V33.9754H948.55Z" fill="#FFEFD3"/>
<path d="M954.342 28.5156H960.454V30.3807H956.335V32.9738H959.837V34.854H956.335V37.8563H960.602V39.7364H954.342V28.5156Z" fill="#FFEFD3"/>
<path d="M968.177 40L966.131 35.7552H964.743V40H962.75V28.7792H966.224C968.313 28.7792 969.967 29.5975 969.967 32.1755C969.967 33.8599 969.214 34.9042 968.069 35.4062L970.399 40H968.177ZM964.743 33.9804H966.036C967.316 33.9804 968.017 33.3729 968.017 32.1755C968.017 30.9782 967.316 30.5539 966.036 30.5539H964.743V33.9804Z" fill="#FFEFD3"/>
<path d="M956.101 10H953.146V26.1133H956.101V10Z" fill="#FFEFD3"/>
<path d="M962.474 10H959.52V26.1133H962.474V10Z" fill="#FFEFD3"/>
<path d="M946.996 11.4936C946.996 10.6677 947.666 10 948.49 10C949.313 10 949.986 10.6702 949.986 11.4936C949.986 12.317 949.316 12.9872 948.49 12.9872C947.664 12.9872 946.996 12.3195 946.996 11.4936Z" fill="#FFEFD3"/>
<path d="M955.405 31.0811H955.279V30.0142H955.405V31.0811Z" fill="#FFEFD3"/>
<path d="M955.405 32.9211H955.279V31.8542H955.405V32.9211Z" fill="#FFEFD3"/>
<path d="M955.405 34.7636H955.279V33.6968H955.405V34.7636Z" fill="#FFEFD3"/>
<path d="M955.405 36.6037H955.279V35.5368H955.405V36.6037Z" fill="#FFEFD3"/>
<path d="M955.405 38.4436H955.279V37.3768H955.405V38.4436Z" fill="#FFEFD3"/>
<path d="M946.642 30.3406C946.642 30.5112 946.504 30.6468 946.336 30.6468C946.167 30.6468 946.029 30.5087 946.029 30.3406C946.029 30.1724 946.167 30.0343 946.336 30.0343C946.504 30.0343 946.642 30.1724 946.642 30.3406Z" fill="#FFEFD3"/>
<path d="M946.642 34.1988C946.642 34.3695 946.504 34.5051 946.336 34.5051C946.167 34.5051 946.029 34.367 946.029 34.1988C946.029 34.0306 946.167 33.8926 946.336 33.8926C946.504 33.8926 946.642 34.0306 946.642 34.1988Z" fill="#FFEFD3"/>
<path d="M946.642 38.1374C946.642 38.3081 946.504 38.4436 946.336 38.4436C946.167 38.4436 946.029 38.3056 946.029 38.1374C946.029 37.9692 946.167 37.8311 946.336 37.8311C946.504 37.8311 946.642 37.9692 946.642 38.1374Z" fill="#FFEFD3"/>
<path d="M928.803 30.0142V30.2753L929.016 30.2728L929.194 30.3104L929.501 30.2753H929.598L929.779 30.3104H929.965L930.053 30.323L930.143 30.3431V30.0996L929.95 30.1272L929.857 30.1021H929.676L929.596 30.0544L929.463 30.0569L929.375 30.1021L929.217 30.0644L929.036 30.1021L928.803 30.0142Z" fill="#FFEFD3"/>
<path d="M928.803 32.7153V32.9763L929.016 32.9738L929.194 33.0115L929.501 32.9763H929.598L929.779 33.0115H929.965L930.053 33.024L930.143 33.0441V32.8006L929.95 32.8282L929.857 32.8031H929.676L929.596 32.7554L929.463 32.7579L929.375 32.8031L929.217 32.7655L929.036 32.8031L928.803 32.7153Z" fill="#FFEFD3"/>
<path d="M928.803 35.4163V35.6773L929.016 35.6723L929.194 35.7125L929.501 35.6773H929.598L929.779 35.7125H929.965L930.053 35.725L930.143 35.7426V35.5016L929.95 35.5292L929.857 35.5041H929.676L929.596 35.4564L929.463 35.4589L929.375 35.5041L929.217 35.4665L929.036 35.5041L928.803 35.4163Z" fill="#FFEFD3"/>
<path d="M928.803 38.1173V38.3784L929.016 38.3734L929.194 38.4135L929.501 38.3784H929.598L929.779 38.4135H929.965L930.053 38.4261L930.143 38.4436V38.2027L929.95 38.2303L929.857 38.2052H929.676L929.596 38.1575L929.463 38.16L929.375 38.2052L929.217 38.1675L929.036 38.2052L928.803 38.1173Z" fill="#FFEFD3"/>
<path d="M939.069 30.2075C939.009 30.1874 938.944 30.2201 938.924 30.2803L938.652 31.0911C938.632 31.1514 938.665 31.2166 938.725 31.2367C938.785 31.2568 938.851 31.2242 938.871 31.1639L939.142 30.3531C939.162 30.2929 939.129 30.2276 939.069 30.2075Z" fill="#FFEFD3"/>
<path d="M938.682 31.4601C938.622 31.4401 938.556 31.4752 938.539 31.5354L938.28 32.3513C938.263 32.4115 938.295 32.4768 938.355 32.4944C938.416 32.5144 938.481 32.4793 938.499 32.4191L938.757 31.6032C938.775 31.543 938.742 31.4777 938.682 31.4601Z" fill="#FFEFD3"/>
<path d="M937.134 37.2689C937.073 37.2488 937.008 37.2814 936.988 37.3417L936.717 38.1525C936.697 38.2127 936.729 38.278 936.79 38.2981C936.85 38.3181 936.915 38.2855 936.935 38.2253L937.206 37.4145C937.226 37.3542 937.194 37.2889 937.134 37.2689Z" fill="#FFEFD3"/>
<path d="M937.548 36.0262C937.487 36.0062 937.422 36.0388 937.402 36.099L937.131 36.9099C937.111 36.9701 937.143 37.0354 937.204 37.0555C937.264 37.0755 937.329 37.0429 937.349 36.9827L937.62 36.1718C937.641 36.1116 937.608 36.0463 937.548 36.0262Z" fill="#FFEFD3"/>
<path d="M937.143 37.5525L936.894 38.3708C936.876 38.4311 936.811 38.4662 936.751 38.4461C936.691 38.4286 936.656 38.3633 936.676 38.303L936.924 37.4847C936.942 37.4245 937.007 37.3893 937.067 37.4094C937.127 37.427 937.163 37.4922 937.143 37.5525ZM937.524 36.2974L937.276 37.1157C937.258 37.1759 937.193 37.2111 937.132 37.191C937.072 37.1734 937.037 37.1082 937.057 37.0479L937.306 36.2296C937.323 36.1693 937.389 36.1342 937.449 36.1543C937.509 36.1718 937.544 36.2371 937.524 36.2974ZM938.804 31.4149L938.556 32.2333C938.538 32.2935 938.473 32.3287 938.413 32.3086C938.352 32.291 938.317 32.2257 938.337 32.1655L938.586 31.3471C938.603 31.2869 938.669 31.2518 938.729 31.2718C938.789 31.2894 938.824 31.3547 938.807 31.4149H938.804ZM939.183 30.1623L938.935 30.9806C938.917 31.0409 938.852 31.076 938.792 31.056C938.731 31.0384 938.696 30.9731 938.716 30.9129L938.965 30.0945C938.983 30.0343 939.048 29.9991 939.108 30.0192C939.168 30.0368 939.203 30.1021 939.186 30.1623H939.183Z" fill="#FFEFD3"/>
<path d="M963.734 30.4836C963.137 30.4836 963.069 30.9957 963.066 31.0183H963.179C963.192 30.948 963.272 30.6016 963.737 30.6016C963.757 30.5991 964.221 30.5941 964.291 31.0183H964.407C964.347 30.5815 963.94 30.4836 963.734 30.4836Z" fill="#FFEFD3"/>
<path d="M963.736 30.0142C963.139 30.0142 963.071 30.5263 963.068 30.5489H963.181C963.194 30.4786 963.274 30.1322 963.739 30.1322C963.759 30.1297 964.223 30.1247 964.293 30.5489H964.409C964.349 30.1121 963.942 30.0142 963.736 30.0142Z" fill="#FFEFD3"/>
<path d="M963.734 37.9115C963.137 37.9115 963.069 38.4236 963.066 38.4462H963.179C963.192 38.3759 963.272 38.0295 963.737 38.0295C963.757 38.027 964.221 38.0219 964.291 38.4462H964.407C964.347 38.0094 963.94 37.9115 963.734 37.9115Z" fill="#FFEFD3"/>
<path d="M963.736 37.4421C963.139 37.4421 963.071 37.9542 963.068 37.9768H963.181C963.194 37.904 963.274 37.5601 963.739 37.5601C963.759 37.5575 964.223 37.5525 964.293 37.9768H964.409C964.349 37.54 963.942 37.4421 963.736 37.4421Z" fill="#FFEFD3"/>
<path d="M963.734 35.4338C963.137 35.4338 963.069 35.9459 963.066 35.9685H963.179C963.192 35.8982 963.272 35.5518 963.737 35.5518C963.757 35.5493 964.221 35.5443 964.291 35.9685H964.407C964.347 35.5317 963.94 35.4338 963.734 35.4338Z" fill="#FFEFD3"/>
<path d="M963.736 34.9644C963.139 34.9644 963.071 35.4765 963.068 35.4991H963.181C963.194 35.4288 963.274 35.0824 963.739 35.0824C963.759 35.0799 964.223 35.0749 964.293 35.4991H964.409C964.349 35.0623 963.942 34.9644 963.736 34.9644Z" fill="#FFEFD3"/>
<path d="M963.734 32.9587C963.137 32.9587 963.069 33.4708 963.066 33.4934H963.179C963.192 33.4231 963.272 33.0767 963.737 33.0767C963.757 33.0742 964.221 33.0692 964.291 33.4934H964.407C964.347 33.0566 963.94 32.9587 963.734 32.9587Z" fill="#FFEFD3"/>
<path d="M963.736 32.4893C963.139 32.4893 963.071 33.0014 963.068 33.024H963.181C963.194 32.9537 963.274 32.6073 963.739 32.6073C963.759 32.6048 964.223 32.5998 964.293 33.024H964.409C964.349 32.5872 963.942 32.4893 963.736 32.4893Z" fill="#FFEFD3"/>
</g>
<path d="M1068.2 31.5962C1059.32 28.4181 1052.01 22.9528 1053.29 19.0284C1054.35 15.8022 1060.03 14.6947 1067.01 15.9948C1067.39 15.9226 1067.84 15.8263 1068.32 15.73C1059.3 13.515 1051.77 14.3095 1050.57 17.9691C1049.19 22.0861 1056.44 28.3459 1066.87 32.1259L1068.2 31.6203V31.5962Z" fill="#FFEED2"/>
<path d="M1080.32 19.847H1080.34C1080.17 19.7748 1080.03 19.7025 1079.89 19.6303C1079.82 19.5822 1079.75 19.5581 1079.68 19.5099C1078.26 18.8599 1076.93 18.3784 1076.93 18.3784L1075.54 18.6913C1076.96 19.1006 1078.73 20.0637 1078.73 20.0637C1084.29 23.1936 1088.55 27.8644 1087.56 30.8739C1086.71 33.4982 1082.8 34.7261 1077.62 34.389C1077.14 34.6298 1076.65 34.7983 1076.17 34.9187C1083.77 36.267 1089.76 35.2558 1090.85 32.0296C1091.94 28.7552 1087.37 23.5066 1080.32 19.8229V19.847Z" fill="#FFEED2"/>
<path d="M1075.49 24.8549C1070.18 21.6046 1069.12 21.4601 1070.99 19.7266C1070.99 19.7266 1068.36 21.6527 1066.45 25.0956C1066.45 25.0956 1070.92 27.4069 1072.62 29.02C1072.98 29.4534 1073.38 30.1516 1073.21 31.0424C1072.86 32.3666 1071.44 33.7871 1067.63 33.8112C1067.63 33.8112 1073.19 35.3521 1076.79 33.7149C1080.39 32.0777 1080.79 28.1051 1075.51 24.8549H1075.49Z" fill="#FFEED2"/>
<path d="M1078.99 15.7781L1069.05 15.2003L1071.87 16.2596C1068.81 17.1745 1064.86 19.1006 1061.76 22.3509L1063.42 23.3139C1066.04 20.0877 1070.78 16.4281 1078.99 15.7781Z" fill="#FFEED2"/>
<path d="M1063.8 23.5307L1066.05 24.8308C1066.47 24.0845 1066.97 23.2659 1067.63 22.4473C1069.48 20.0878 1072.7 17.3431 1078.07 16.1634C1074.05 16.6208 1067.99 18.2099 1063.82 23.5307H1063.8Z" fill="#FFEED2"/>
<path d="M1137.91 21.2681H1137.04V17.3678H1135.24V32.5358L1137.04 31.019V23.0498H1137.91V32.5358L1139.78 31.019V17.3678H1137.91V21.2681Z" fill="#FFEED2"/>
<path d="M1142.36 28.1057C1141.87 28.178 1141.49 28.5873 1141.49 29.0929C1141.49 29.5985 1141.87 30.0318 1142.36 30.08H1155.14V28.0817H1142.36" fill="#FFEED2"/>
<path d="M1167.86 32.5358L1169.82 31.019V17.3678H1167.86V32.5358Z" fill="#FFEED2"/>
<path d="M1183.43 21.2681V17.3678H1181.46V32.5358L1183.43 31.019V23.0498H1185.7V21.2681H1183.43Z" fill="#FFEED2"/>
<path d="M1157.27 17.4641C1156.78 17.5363 1156.4 17.9456 1156.4 18.4512C1156.4 18.9568 1156.78 19.3902 1157.27 19.4384H1158.34V25.6982H1157.27C1156.78 25.7704 1156.4 26.1797 1156.4 26.6853C1156.4 27.1909 1156.78 27.6243 1157.27 27.6724H1166.72V25.6741H1165.11V19.4143H1166.72V17.416H1157.27V17.4641ZM1163.17 25.7222H1160.3V19.4624H1163.17V25.7222Z" fill="#FFEED2"/>
<path d="M1175.78 17.3678C1173.23 17.3678 1171.17 19.7032 1171.17 22.5923C1171.17 25.4815 1173.23 27.8169 1175.78 27.8169C1178.34 27.8169 1180.4 25.4815 1180.4 22.5923C1180.4 19.7032 1178.34 17.3678 1175.78 17.3678ZM1175.78 25.6741C1174.34 25.6741 1173.13 24.2777 1173.13 22.5923C1173.13 20.907 1174.32 19.5106 1175.78 19.5106C1177.25 19.5106 1178.43 20.8829 1178.43 22.5923C1178.43 24.3017 1177.25 25.6741 1175.78 25.6741Z" fill="#FFEED2"/>
<path d="M1129.96 17.3678C1127.55 17.3678 1125.58 19.7032 1125.58 22.5923C1125.58 25.4815 1127.55 27.8169 1129.96 27.8169C1132.37 27.8169 1134.34 25.4815 1134.34 22.5923C1134.34 19.7032 1132.37 17.3678 1129.96 17.3678ZM1129.96 25.6741C1128.61 25.6741 1127.52 24.2777 1127.52 22.5923C1127.52 20.907 1128.61 19.5106 1129.96 19.5106C1131.31 19.5106 1132.4 20.907 1132.4 22.5923C1132.4 24.2777 1131.31 25.6741 1129.96 25.6741Z" fill="#FFEED2"/>
<path d="M1144.87 25.4815H1154.22V23.4832H1145.06C1144.66 23.4832 1144.37 23.1943 1144.37 22.785V20.0403C1144.37 19.631 1144.66 19.3421 1145.06 19.3421H1154.22V17.3438H1144.87C1143.52 17.3438 1142.43 18.4513 1142.43 19.8477V22.9776C1142.43 24.3499 1143.52 25.4574 1144.87 25.4574" fill="#FFEED2"/>
<path d="M1122.29 26.7576H1119.57V28.491H1122.29V30.4894H1114.95C1114.55 30.4894 1114.27 30.2005 1114.27 29.7912V27.4076H1112.3V29.9838C1112.3 31.3561 1113.39 32.4636 1114.74 32.4636H1122.29L1124.23 30.4894V17.3919H1122.27V26.7816" fill="#FFEED2"/>
<path d="M1104.85 22.8813C1103.93 22.5683 1103.26 22.3034 1102.6 21.2682C1101.8 20.0162 1101.87 18.3549 1101.84 17.2474H1099.81C1099.81 18.379 1099.86 20.0162 1099.05 21.2682C1098.39 22.3275 1097.73 22.6405 1096.8 22.9535C1096.38 23.0498 1096.07 23.5795 1096.07 23.9888C1096.07 24.4944 1096.52 24.9037 1097.04 24.9037C1097.11 24.9037 1097.16 24.9037 1097.23 24.9037C1097.25 24.9037 1097.3 24.9037 1097.32 24.9037C1097.82 24.7833 1098.29 24.5907 1098.74 24.3258C1099.67 23.7721 1100.31 23.0017 1100.8 22.2553L1100.83 22.2071C1100.83 22.2071 1100.83 22.2312 1100.85 22.2553C1101.32 23.0017 1101.96 23.6999 1102.88 24.2536C1103.31 24.5185 1103.81 24.7111 1104.31 24.8314C1104.33 24.8314 1104.38 24.8314 1104.4 24.8314C1104.47 24.8314 1104.52 24.8314 1104.59 24.8314C1105.13 24.8314 1105.56 24.4221 1105.56 23.9165C1105.56 23.5073 1105.25 22.9776 1104.83 22.8813H1104.85Z" fill="#FFEED2"/>
<path d="M1111.86 20.3774C1111.86 22.2794 1113.89 23.7962 1116.4 23.7962C1118.91 23.7962 1120.94 22.2553 1120.94 20.3774C1120.94 18.4994 1118.91 16.9586 1116.4 16.9586C1113.89 16.9586 1111.86 18.4994 1111.86 20.3774ZM1118.89 20.3774C1118.89 21.2923 1117.77 22.0386 1116.4 22.0386C1115.03 22.0386 1113.91 21.2923 1113.91 20.3774C1113.91 19.4625 1115.03 18.7161 1116.4 18.7161C1117.77 18.7161 1118.89 19.4625 1118.89 20.3774Z" fill="#FFEED2"/>
<path d="M1115.71 28.7318H1117.66V25.8186H1121.11V24.0369H1112.14C1111.6 24.0369 1111.17 24.4221 1111.17 24.9277C1111.17 25.4333 1111.6 25.8186 1112.14 25.8186H1115.71V28.7318Z" fill="#FFEED2"/>
<path d="M1109.54 17.3679H1107.55V19.9922H1104.23V21.7497H1107.55V26.1316C1106.86 25.6742 1105.18 25.2889 1104.28 25.2889C1101.91 25.2889 1099.12 26.8539 1099.12 29.1652C1099.12 31.4765 1101.91 33.0415 1104.28 33.0415C1106.65 33.0415 1109.44 31.4765 1109.44 29.1652C1109.44 28.1059 1109.04 27.4076 1108.47 26.7576L1109.54 25.7705V17.3679ZM1104.38 30.995C1103.12 30.995 1101.25 30.3209 1101.25 29.093C1101.25 27.8651 1103.12 27.191 1104.38 27.191C1105.63 27.191 1107.5 27.8651 1107.5 29.093C1107.5 30.3209 1105.63 30.995 1104.38 30.995Z" fill="#FFEED2"/>
<g clip-path="url(#clip5_990_13902)">
<path d="M1315.28 18.9177C1312.39 18.9177 1310.16 21.1923 1310.16 24.1308C1310.16 25.7402 1310.9 27.0444 1311.88 28.1177L1317.47 34.2763H1310.21V36.5H1320.85V34.455L1316.09 29.2929C1318.6 28.8077 1320.39 26.8657 1320.39 24.1308C1320.39 23.1343 1320.13 22.2136 1319.67 21.4219H1321.89V19.1982H1316.99C1316.45 19.0195 1315.89 18.9166 1315.28 18.9166V18.9177ZM1318.09 24.1308C1318.09 25.971 1316.81 27.274 1315.28 27.274C1313.74 27.274 1312.47 25.971 1312.47 24.1308C1312.47 22.2905 1313.77 21.0385 1315.28 21.0385C1316.78 21.0385 1318.09 22.3166 1318.09 24.1308Z" fill="#FFEFD3"/>
<path d="M1308.04 13.5H1305.59V17.1544H1308.04V13.5Z" fill="#FFEFD3"/>
<path d="M1308.04 19.1982H1305.59V31.4905H1308.04V19.1982Z" fill="#FFEFD3"/>
<path d="M1299.43 24.2077C1297.82 23.8242 1296.93 23.313 1296.93 22.3935C1296.93 21.5757 1297.57 20.9627 1298.74 20.9627C1299.92 20.9627 1300.66 21.6266 1300.86 22.726H1303.39C1303.01 20.3745 1301.14 18.9177 1298.82 18.9177C1296.19 18.9177 1294.5 20.4515 1294.5 22.4952C1294.5 24.6929 1296.01 25.8171 1298.43 26.3544C1300.28 26.7639 1300.97 27.326 1300.97 28.2716C1300.97 29.0893 1300.28 29.6775 1298.92 29.6775C1297.57 29.6775 1296.82 29.0136 1296.52 27.8124H1294.01C1294.35 30.4195 1296.39 31.7733 1298.97 31.7733C1301.55 31.7733 1303.42 30.2396 1303.42 28.1189C1303.42 25.9982 1301.91 24.797 1299.43 24.2088L1299.43 24.2077Z" fill="#FFEFD3"/>
<path d="M1286.65 18.9687C1283.26 18.9687 1280.93 21.6775 1280.93 25.332C1280.93 28.9864 1283.26 31.7201 1286.81 31.7201C1289.01 31.7201 1291.51 30.5698 1292.3 27.8101H1289.82C1289.36 28.7556 1288.42 29.5474 1286.86 29.5474C1285.17 29.5474 1283.72 28.5509 1283.43 26.2503H1292.33C1292.38 25.9438 1292.4 25.6621 1292.4 25.3308C1292.4 21.5994 1290.08 18.9675 1286.65 18.9675V18.9687ZM1283.46 24.3095C1283.69 22.0858 1285.12 21.0894 1286.68 21.0894C1288.39 21.0894 1289.67 22.2905 1289.87 24.3095H1283.46Z" fill="#FFEFD3"/>
<path d="M1270.38 13.5H1265.7V31.4905H1270.38C1275.87 31.4905 1279.68 27.9379 1279.68 22.4953C1279.68 17.0527 1275.87 13.5 1270.38 13.5ZM1270.38 29.216H1268.28V15.7746H1270.38C1274.34 15.7746 1277 18.3817 1277 22.4953C1277 26.6089 1274.34 29.216 1270.38 29.216Z" fill="#FFEFD3"/>
<path d="M1323.73 31.4905H1326.19V21.4219H1330.79V31.4905H1333.24V19.1982H1323.73V31.4905Z" fill="#FFEFD3"/>
</g>
<path d="M1487.3 26.8629C1487.3 23.4572 1485.51 22.2686 1483.37 22.2686C1482.11 22.2686 1480.68 22.8629 1480.02 24.0972V22.68H1475.19V34.52H1480.02V28.4629C1480.02 27.2743 1480.43 26.7257 1481.15 26.6343C1482 26.5429 1482.59 27 1482.59 28.4629V34.52H1487.28V26.8629H1487.3ZM1452.36 34.5429H1457.28V29.4H1460.68V25.0343H1457.28V22.7029H1461.44V18.0629H1454.68C1453.28 18.0629 1452.39 18.9772 1452.39 20.3029V34.52L1452.36 34.5429ZM1488.7 32.6914C1488.7 33.7429 1489.46 34.52 1490.63 34.52H1496.09V30.0172H1493.48V27.1372H1496.09V22.68H1493.48V19.7543H1488.7V32.6914ZM1466.14 28.5314C1466.14 27.48 1466.81 26.7029 1467.85 26.7029C1468.88 26.7029 1469.55 27.48 1469.55 28.5314C1469.55 29.5829 1468.88 30.36 1467.85 30.36C1466.81 30.36 1466.14 29.5829 1466.14 28.5314ZM1461.49 28.5314C1461.49 32.3486 1464.05 35 1467.85 35C1471.64 35 1474.2 32.3486 1474.2 28.5314C1474.2 24.7143 1471.64 22.0629 1467.85 22.0629C1464.05 22.0629 1461.49 24.7143 1461.49 28.5314Z" fill="#FFEED2"/>
<path d="M1447.53 28.3486L1451.46 22.7028H1445.46L1444.07 25.1714L1442.63 22.7028H1436.68L1440.7 28.3486L1435.78 34.2686V22.7028H1430.45V34.2686L1425.53 27.7771C1427.74 26.7257 1429.06 24.3943 1429.06 22.0171C1429.06 18.0628 1426.59 15.8914 1422.03 15.8914H1413.24V34.5428H1418.57V28.8286H1420.63L1424.12 34.5428H1442.16L1444.09 31.3657L1446.03 34.5428H1452.25L1447.55 28.3486H1447.53ZM1421.78 24.3257H1418.52V20.3714H1421.78C1422.81 20.3714 1423.44 21.2171 1423.44 22.2914C1423.44 23.48 1422.68 24.3486 1421.78 24.3486V24.3257Z" fill="#FFEED2"/>
<path d="M1436.39 18.2229C1436.39 20.0057 1434.97 21.4457 1433.22 21.4457C1431.47 21.4457 1430.05 20.0057 1430.05 18.2229C1430.05 16.44 1431.47 15 1433.22 15C1434.97 15 1436.39 16.44 1436.39 18.2229Z" fill="#FFEED2"/>
<path fill-rule="evenodd" clip-rule="evenodd" d="M1606.27 14.8713L1598.38 35.1251H1605.06L1606.02 32.4259H1613.64L1614.6 35.1251H1621.27L1613.38 14.8713H1606.28H1606.27ZM1609.83 21.373L1612.08 27.6994H1607.58L1609.83 21.373Z" fill="#FFEFD3"/>
<path fill-rule="evenodd" clip-rule="evenodd" d="M1642.84 14.8713V35.1251H1658.6V30.0626H1649.21V27.3597H1658.26V22.6368H1649.21V19.9339H1658.6V14.8713H1642.84Z" fill="#FFEFD3"/>
<path fill-rule="evenodd" clip-rule="evenodd" d="M1634 14.8713L1629.26 28.1888L1624.53 14.8713H1617.82L1625.71 35.1251H1632.81L1640.71 14.8713H1634Z" fill="#FFEFD3"/>
<path fill-rule="evenodd" clip-rule="evenodd" d="M1589.84 14.8713V25.7123L1582.5 14.8713H1576.09V35.1251H1582.46V24.2841L1589.8 35.1251H1596.21V31.2679V14.8713H1589.84Z" fill="#FFEFD3"/>
<path fill-rule="evenodd" clip-rule="evenodd" d="M1671.54 24.3243H1667.99V19.9375H1671.52C1672.46 19.9375 1673.33 20.5256 1673.61 21.4315C1674.08 22.94 1672.97 24.328 1671.54 24.328V24.3243ZM1676.01 28.1779L1676.62 27.9222C1678.95 26.936 1680.14 24.8065 1680.14 22.0999C1680.14 19.5431 1679.22 17.6473 1677.39 16.4748C1675.69 15.3827 1673.48 14.875 1670.45 14.875H1661.95V35.1288H1668.33V29.3905H1670.62L1674.5 35.1288H1681.09L1676 28.1815L1676.01 28.1779Z" fill="#FFEFD3"/>
<defs>
<clipPath id="clip0_990_13902">
<rect width="82.6042" height="20" fill="white" transform="translate(283.699 15)"/>
</clipPath>
<clipPath id="clip1_990_13902">
<rect width="60.961" height="23" fill="white" transform="translate(446.303 13.5)"/>
</clipPath>
<clipPath id="clip2_990_13902">
<rect width="107.611" height="20" fill="white" transform="translate(587.264 15)"/>
</clipPath>
<clipPath id="clip3_990_13902">
<rect width="73.6224" height="30" fill="white" transform="translate(774.875 10)"/>
</clipPath>
<clipPath id="clip4_990_13902">
<rect width="41.9011" height="30" fill="white" transform="translate(928.498 10)"/>
</clipPath>
<clipPath id="clip5_990_13902">
<rect width="67.542" height="23" fill="white" transform="translate(1265.7 13.5)"/>
</clipPath>
</defs>
</svg>
