<svg width="902" height="111" viewBox="0 0 902 111" fill="none" xmlns="http://www.w3.org/2000/svg">
<path d="M42.6205 38.0264L40.6766 41.4016C40.1661 42.3222 39.8127 43.4984 39.7931 43.5836C39.7538 43.4302 39.4789 42.3392 38.9488 41.4187L36.9853 38.0264L32.9994 38.0264L37.9867 45.6122L37.9867 50.4876L41.5602 50.4876L41.5602 45.6122L46.5278 38.0264L42.5812 38.0264L42.6205 38.0264Z" fill="#E22613"/>
<path d="M50.5916 48.9839C49.1975 48.9839 48.5299 47.9781 48.5299 46.0689C48.5299 44.2278 49.1975 43.1368 50.5916 43.1368C51.9857 43.1368 52.6729 44.1596 52.6729 46.0859C52.6729 48.0122 51.9857 48.9839 50.5916 48.9839ZM50.6897 41.2787C47.1358 41.2787 45.0742 43.1027 45.0742 46.137C45.0742 49.1202 47.1163 50.842 50.5327 50.842C54.0278 50.842 56.0894 49.0521 56.0894 46.0689C56.0894 43.1538 54.1062 41.2957 50.6897 41.2957" fill="#E22613"/>
<path d="M63.0213 48.9839C61.6272 48.9839 60.9596 47.9781 60.9596 46.0689C60.9596 44.2278 61.6272 43.1368 63.0213 43.1368C64.4154 43.1368 65.1026 44.1596 65.1026 46.0859C65.1026 47.9611 64.4154 48.9839 63.0213 48.9839ZM63.1194 41.2787C59.5655 41.2787 57.5039 43.1027 57.5039 46.137C57.5039 49.1202 59.5458 50.842 62.9623 50.842C66.3788 50.842 68.519 49.0521 68.519 46.0689C68.519 43.1538 66.5359 41.2957 63.1194 41.2957" fill="#E22613"/>
<path d="M77.0819 41.3849C75.3541 41.3849 74.2349 42.2372 73.8422 43.0214L73.7833 41.6236L70.681 41.6236L70.681 50.4709L74.0189 50.4709L74.0189 45.1011C74.0189 44.0613 74.5294 43.3282 75.7271 43.3282C76.7874 43.3282 77.2587 43.8567 77.2587 44.8966L77.2587 50.4709L80.5967 50.4709L80.5967 44.6409C80.5967 42.4759 79.2222 41.3679 77.1016 41.3679" fill="#E22613"/>
<path d="M88.0961 48.9853C86.8002 48.9853 86.054 47.8772 86.054 46.1044C86.054 44.2804 86.8001 43.1723 88.1156 43.1723C89.4312 43.1723 90.1578 44.1781 90.1578 46.0362C90.1578 47.8943 89.4509 48.9853 88.0961 48.9853ZM90.1185 41.3824C90.1185 41.9279 90.1773 42.4223 90.2166 42.7632C89.9417 42.2518 88.8422 41.2631 87.1144 41.2631C84.4047 41.2631 82.6375 43.2405 82.6375 46.1555C82.6375 48.9171 84.3458 50.707 86.9376 50.707C88.5084 50.707 89.6079 50.1104 90.2363 49.1558L90.3149 50.4684L93.3975 50.4684L93.3975 36.882L90.0988 36.882L90.0988 41.3824L90.1185 41.3824Z" fill="#E22613"/>
<path d="M99.0485 44.9949C99.2252 43.58 99.7947 42.9663 100.894 42.9663C101.994 42.9663 102.563 43.5971 102.642 44.9949L99.0485 44.9949ZM100.914 41.2787C97.5563 41.2787 95.5339 43.1027 95.5339 46.137C95.5339 49.1714 97.4974 50.842 100.894 50.842C103.447 50.842 105.41 49.8874 105.921 47.8247L102.544 47.8247C102.288 48.5918 101.876 48.9498 100.914 48.9498C99.1664 48.9498 98.9504 47.586 98.9504 46.5121L106.098 46.5121C106.098 46.3075 106.117 46.1541 106.117 46.0518C106.117 43.0686 104.055 41.3128 100.914 41.3128" fill="#E22613"/>
<path d="M114.15 45.4552L112.873 45.0631C111.381 44.6199 111.086 44.296 111.086 43.7164C111.086 43.205 111.538 42.9152 112.245 42.9152C113.03 42.9152 113.502 43.3414 113.56 44.2278L116.702 44.2278C116.545 43.1027 115.995 41.2787 112.265 41.2787C109.653 41.2787 107.945 42.3697 107.945 44.0232C107.945 45.2677 108.73 45.9836 110.576 46.5632L112.127 47.0405C113.266 47.4156 113.58 47.7054 113.58 48.2338C113.58 48.7111 113.187 49.1373 112.265 49.1373C111.145 49.1373 110.91 48.4725 110.792 47.6883L107.513 47.6883C107.748 49.8021 109.221 50.842 112.206 50.842C114.915 50.842 116.722 49.8021 116.722 48.0463C116.722 46.836 116.015 46.0518 114.11 45.4722" fill="#E22613"/>
<path d="M129.134 46.2393C128.309 46.2393 127.641 45.8132 127.641 44.6028C127.641 43.3925 128.289 42.8811 129.134 42.8811C130.017 42.8811 130.685 43.3925 130.685 44.6028C130.685 45.7961 129.998 46.2393 129.134 46.2393ZM128.309 50.8931L129.742 51.0636C131.411 51.2511 132.04 51.575 132.04 52.2739C132.04 53.1433 130.842 53.5354 129.448 53.5354C128.054 53.5354 126.935 53.1263 126.935 52.1375C126.935 51.1488 128.289 50.8931 128.289 50.8931M129.114 41.2957C128.741 41.2957 128.172 41.3128 127.7 41.381C125.972 41.6537 124.284 42.5402 124.284 44.5858C124.284 46.0177 125.109 46.9382 126.326 47.3985C126.188 47.4497 124.951 47.9952 124.951 48.8816C124.951 50.0578 126.522 50.3647 126.581 50.3817C126.444 50.3988 123.911 50.7738 123.911 52.5978C123.911 54.6946 126.935 55.2742 129.35 55.2742C131.961 55.2742 135.181 54.4559 135.181 52.1205C135.181 49.7339 132.747 49.2566 130.292 49.018L128.977 48.8816C127.798 48.7623 127.484 48.6088 127.484 48.2509C127.484 47.9952 127.641 47.8588 127.779 47.7906C128.211 47.8417 128.702 47.8588 129.134 47.8588C131.352 47.8588 133.905 47.0405 133.905 44.7903C133.905 43.6993 133.277 43.2391 133.277 43.2391C133.277 43.2391 133.709 43.3584 134.553 43.3584L135.358 43.3584L135.358 41.6196L131.313 41.6196C130.665 41.398 129.782 41.2787 129.094 41.2787" fill="#E22613"/>
<path d="M143.485 41.3849C141.757 41.3849 140.638 42.2372 140.246 43.0214L140.187 41.6236L137.084 41.6236L137.084 50.4709L140.422 50.4709L140.422 45.1011C140.422 44.0613 140.933 43.3282 142.13 43.3282C143.191 43.3282 143.662 43.8567 143.662 44.8966L143.662 50.4709L147 50.4709L147 44.6409C147 42.4759 145.625 41.3679 143.505 41.3679" fill="#E22613"/>
<path d="M120.358 36.8969C119.259 36.8969 118.375 37.664 118.375 38.6186C118.375 39.5733 119.259 40.3404 120.358 40.3404C121.458 40.3404 122.341 39.5733 122.341 38.6186C122.341 37.664 121.458 36.8969 120.358 36.8969Z" fill="#E22613"/>
<path d="M122.025 50.4851L122.025 41.6378L118.687 41.6378L118.687 50.4851L122.025 50.4851Z" fill="#E22613"/>
<path d="M39.0869 61.1235C39.7544 61.1235 40.3239 61.2258 40.8147 61.4304L44.1724 61.3963L44.1724 62.027L42.7782 62.027C42.2677 62.027 42.0713 62.027 41.6197 61.9588C42.1106 62.2486 42.7586 62.9135 42.7782 64.2261C42.8175 66.2546 41.2074 67.3968 39.1653 67.4309C38.6352 67.4309 38.1247 67.3797 37.6731 67.2434C37.516 67.3456 36.9074 67.7207 36.9271 68.2662C36.9467 68.8117 37.6338 68.9651 38.6745 69.1015L40.2257 69.3231C42.0321 69.5788 44.0152 70.039 44.0544 71.9994C44.0937 73.9598 41.8358 74.9656 39.617 74.9826C37.2805 75.0167 35.0027 74.3519 34.9831 72.3063C34.9831 71.0448 36.0827 70.1072 37.3393 69.5788C37.3393 69.5788 36.1023 69.3572 36.0826 68.4366C36.0826 67.5672 37.0056 67.0729 37.143 66.9877C36.1809 66.4933 35.5329 65.5898 35.5133 64.2602C35.474 62.2486 37.0645 61.0894 39.1065 61.0724L39.0869 61.1235ZM35.906 72.2551C35.9256 73.7553 37.6338 74.403 39.6366 74.386C41.1681 74.3689 43.1513 73.7041 43.1316 72.1017C43.112 70.7721 41.8947 70.2947 39.8723 70.022L38.0854 69.7833C37.143 70.1243 35.8864 71.113 35.906 72.2551ZM39.185 66.8172C40.5791 66.8172 41.8946 66.033 41.8553 64.2431C41.8357 62.4873 40.5006 61.7372 39.1065 61.7543C37.7124 61.7713 36.4164 62.5896 36.4557 64.3113C36.495 66.033 37.6535 66.8342 39.185 66.8172Z" fill="#E22613"/>
<path d="M47.2151 63.6268C47.7845 62.0244 49.3946 61.0868 51.0439 61.155L51.0439 61.9221L50.769 61.9221C48.7074 61.9392 47.2347 63.4734 47.2739 65.5531L47.3526 70.1728L46.4493 70.1728L46.3118 61.3937L47.117 61.3937L47.1954 63.6439L47.2151 63.6268Z" fill="#E22613"/>
<path d="M61.8626 65.624C61.9019 68.5049 60.2722 70.3289 57.3269 70.363C54.3817 70.3971 52.7127 68.6754 52.6538 65.7263C52.6145 62.6749 54.2836 60.9361 57.1699 60.902C60.0563 60.8679 61.8037 62.5726 61.8626 65.624ZM53.5767 65.7263C53.616 68.3174 54.9903 69.7493 57.3073 69.7323C59.6438 69.6982 60.9594 68.2492 60.9201 65.641C60.8809 62.9988 59.5849 61.5327 57.1895 61.5668C54.8333 61.6009 53.5374 63.101 53.5767 65.7263Z" fill="#E22613"/>
<path d="M72.7225 69.8712L71.9174 69.8712L71.8586 67.962C71.2303 69.428 70.0718 70.1099 68.344 70.144C66.2038 70.161 64.9078 69.0189 64.8685 66.8539L64.79 61.1603L65.6932 61.1603L65.7718 66.6323C65.7914 68.5245 66.6946 69.4792 68.3832 69.4621C70.3859 69.4451 71.7997 68.1836 71.7801 66.3937L71.7015 61.0921L72.6047 61.0921L72.7422 69.8712L72.7225 69.8712Z" fill="#E22613"/>
<path d="M77.1978 62.3167C77.2174 62.6917 77.1978 63.2202 77.1978 63.2202C77.7476 61.4984 79.2006 60.7654 80.8892 60.7484C83.3436 60.7143 84.9537 62.436 84.9929 65.1976C85.0322 68.1297 83.4222 70.073 80.8303 70.1071C79.3774 70.1071 77.8262 69.4593 77.2764 67.8228C77.3353 68.266 77.3746 68.8115 77.3746 68.999L77.4531 74.2154L76.5696 74.2154L76.3732 61.0382L77.139 61.0382L77.1978 62.3337L77.1978 62.3167ZM77.2764 65.5044C77.3157 68.0444 78.6901 69.4934 80.8107 69.4764C82.8724 69.4593 84.0308 67.8399 83.9915 65.2658C83.9523 62.6917 82.7742 61.362 80.7125 61.3791C78.6116 61.3961 77.2568 62.9133 77.2961 65.5044L77.2764 65.5044Z" fill="#E22613"/>
<path d="M309.597 57.8529C309.597 54.4238 307.463 53.2298 304.959 53.2298C303.461 53.2298 301.768 53.8268 301.01 55.0821L301.01 53.6431L295.314 53.6431L295.314 65.5837L301.01 65.5837L301.01 59.4756C301.01 58.2662 301.486 57.7151 302.35 57.6233C303.355 57.5314 304.06 57.9907 304.06 59.4756L304.06 65.5837L309.597 65.5837L309.597 57.8529ZM268.319 65.5837L274.137 65.5837L274.137 60.3941L278.14 60.3941L278.14 56.0006L274.137 56.0006L274.137 53.6431L279.039 53.6431L279.039 48.974L271.052 48.974C269.394 48.974 268.336 49.8925 268.336 51.2397L268.336 65.5837L268.319 65.5837ZM311.254 63.7314C311.254 64.8029 312.153 65.5837 313.546 65.5837L320 65.5837L320 61.0524L316.914 61.0524L316.914 58.1438L320 58.1438L320 53.6584L316.914 53.6584L316.914 50.7039L311.272 50.7039L311.272 63.762L311.254 63.7314ZM284.594 59.5215C284.594 58.4499 285.387 57.6692 286.621 57.6692C287.856 57.6692 288.649 58.4499 288.649 59.5215C288.649 60.5931 287.856 61.3739 286.621 61.3739C285.387 61.3739 284.594 60.5931 284.594 59.5215ZM279.11 59.5215C279.11 63.364 282.143 66.0429 286.621 66.0429C291.1 66.0429 294.133 63.364 294.133 59.5215C294.133 55.6791 291.1 53.0001 286.621 53.0001C282.143 53.0001 279.11 55.6791 279.11 59.5215Z" fill="#E22613"/>
<path d="M262.608 59.3247L267.245 53.6299L260.157 53.6299L258.5 56.1252L256.789 53.6299L249.754 53.6299L254.497 59.3247L248.678 65.295L248.678 53.6299L242.383 53.6299L242.383 65.295L236.565 58.7582C239.174 57.6866 240.726 55.3445 240.726 52.941C240.726 48.9608 237.799 46.7564 232.403 46.7564L222 46.7564L222 65.5705L228.295 65.5705L228.295 59.8145L230.746 59.8145L234.854 65.5705L256.172 65.5705L258.464 62.371L260.757 65.5705L268.109 65.5705L262.573 59.3247L262.608 59.3247ZM232.174 55.2832L228.33 55.2832L228.33 51.2877L232.174 51.2877C233.408 51.2877 234.149 52.145 234.149 53.2166C234.149 54.4259 233.25 55.2832 232.174 55.2832Z" fill="#E22613"/>
<path d="M241.959 49.1275C241.959 50.9199 243.633 52.3729 245.697 52.3729C247.762 52.3729 249.436 50.9199 249.436 49.1275C249.436 47.3351 247.762 45.8821 245.697 45.8821C243.633 45.8821 241.959 47.3351 241.959 49.1275Z" fill="#E22613"/>
<g clip-path="url(#clip0_1045_4892)">
<path d="M448.223 51.9752C438.381 48.5205 430.262 42.5672 431.681 38.2796C432.854 34.7597 439.17 33.5502 446.898 34.9552C447.318 34.8683 447.825 34.7669 448.339 34.6655C438.344 32.2465 429.994 33.1301 428.647 37.099C427.126 41.6039 435.165 48.4047 446.731 52.5257L448.216 51.9752H448.223Z" fill="#E22613"/>
<path d="M461.68 39.1559H461.709C461.542 39.069 461.375 38.9966 461.209 38.9169C461.129 38.8735 461.049 38.8373 460.963 38.7938C460.963 38.7938 460.963 38.7938 460.963 38.801C459.376 38.084 457.935 37.5626 457.935 37.5626L456.385 37.9174C457.971 38.3592 459.934 39.4239 459.934 39.4239C466.112 42.8279 470.812 47.9267 469.726 51.2003C468.777 54.0538 464.439 55.3865 458.703 55.0388C458.189 55.2996 457.638 55.4806 457.117 55.6255C465.533 57.0812 472.188 55.9804 473.376 52.475C474.579 48.9044 469.523 43.1755 461.694 39.1559H461.68Z" fill="#E22613"/>
<path d="M456.313 44.6023C450.446 41.0752 449.244 40.9014 451.33 38.9966C451.33 38.9966 448.418 41.0897 446.282 44.8558C446.282 44.8558 451.236 47.3617 453.126 49.1289C453.539 49.5997 453.952 50.3529 453.771 51.3379C453.387 52.7719 451.786 54.3291 447.564 54.3508C447.564 54.3508 453.742 56.0455 457.739 54.2494C461.737 52.4605 462.186 48.1294 456.32 44.6023H456.313Z" fill="#E22613"/>
<path d="M460.202 34.7307L449.186 34.1151L452.315 35.2667C448.94 36.2517 444.558 38.352 441.111 41.9081L442.936 42.9583C445.847 39.4384 451.106 35.4477 460.202 34.738V34.7307Z" fill="#E22613"/>
<path d="M443.334 43.1755L445.826 44.6095C446.282 43.7839 446.854 42.893 447.579 41.995C449.628 39.4383 453.192 36.4254 459.145 35.1508C454.676 35.636 447.955 37.3887 443.334 43.1683V43.1755Z" fill="#E22613"/>
<path d="M447.803 66.7862H446.869V62.6579H444.928V78.6277L446.869 77.0271V68.633H447.803V78.6277L449.816 77.0271V62.6579H447.803V66.7862Z" fill="#E22613"/>
<path d="M452.575 73.978V73.9925C452.047 74.0505 451.641 74.4922 451.641 75.0282C451.641 75.5641 452.054 76.0059 452.575 76.0639V76.0784H466.264V73.978H452.575Z" fill="#E22613"/>
<path d="M479.887 78.6277L481.995 77.0271V62.6579H479.887V78.6277Z" fill="#E22613"/>
<path d="M496.56 66.7862V62.6579H494.452V78.6205L496.56 77.0199V68.633H499V66.7862H496.56Z" fill="#E22613"/>
<path d="M468.553 62.7665V62.781C468.024 62.839 467.619 63.2808 467.619 63.8167C467.619 64.3527 468.031 64.8017 468.553 64.8524V64.8669H469.683V71.4431H468.553V71.4576C468.024 71.5155 467.619 71.9573 467.619 72.4933C467.619 73.0292 468.031 73.471 468.553 73.529V73.5435H478.671V71.4431H476.947V64.8669H478.671V62.7665H468.553ZM474.847 71.4504H471.783V64.8741H474.847V71.4504Z" fill="#E22613"/>
<path d="M488.368 62.6579C485.63 62.6579 483.414 65.1204 483.414 68.155C483.414 71.1896 485.63 73.6521 488.368 73.6521C491.106 73.6521 493.322 71.1896 493.322 68.155C493.322 65.1204 491.106 62.6579 488.368 62.6579ZM488.368 71.3997C486.811 71.3997 485.536 69.9439 485.536 68.155C485.536 66.3661 486.804 64.9176 488.368 64.9176C489.932 64.9176 491.2 66.3733 491.2 68.155C491.2 69.9367 489.932 71.3997 488.368 71.3997Z" fill="#E22613"/>
<path d="M439.271 62.658C436.678 62.658 434.585 65.1204 434.585 68.1551C434.585 71.1897 436.685 73.6522 439.271 73.6522C441.856 73.6522 443.957 71.1897 443.957 68.1551C443.957 65.1204 441.856 62.658 439.271 62.658ZM439.271 71.3997C437.837 71.3997 436.664 69.944 436.664 68.1551C436.664 66.3661 437.83 64.9176 439.271 64.9176C440.712 64.9176 441.871 66.3734 441.871 68.1551C441.871 69.9367 440.705 71.3997 439.271 71.3997Z" fill="#E22613"/>
<path d="M455.241 71.2114H465.272V69.111H455.451C455.024 69.111 454.719 68.8068 454.719 68.3723V65.4897C454.719 65.0624 455.024 64.7582 455.451 64.7582H465.272V62.6579H455.241C453.792 62.6579 452.619 63.8312 452.619 65.2797V68.5823C452.619 70.0308 453.792 71.2041 455.241 71.2041" fill="#E22613"/>
<path d="M431.051 72.5513H428.132V74.3692H431.051V76.4695H423.186C422.758 76.4695 422.454 76.1654 422.454 75.738V73.2249H420.368V75.9408C420.368 77.3821 421.534 78.5554 422.975 78.5554H431.058L433.144 76.4695V62.6725H431.051V72.5441" fill="#E22613"/>
<path d="M412.365 68.4665C411.38 68.1478 410.67 67.8654 409.96 66.7645C409.106 65.4391 409.171 63.7082 409.157 62.5204H406.984C406.969 63.7082 407.035 65.4391 406.187 66.7645C405.477 67.8726 404.768 68.2203 403.783 68.5389C403.334 68.6476 402.993 69.198 402.993 69.6398C402.993 70.1685 403.464 70.5958 404.036 70.5958C404.101 70.5958 404.166 70.5886 404.232 70.5813C404.268 70.5741 404.297 70.5669 404.333 70.5524C404.869 70.4293 405.376 70.2265 405.839 69.9512C406.832 69.3718 407.513 68.5607 408.034 67.7712C408.041 67.7567 408.07 67.7205 408.07 67.7205C408.07 67.7205 408.092 67.7567 408.106 67.7712C408.628 68.5679 409.301 69.2994 410.294 69.8788C410.764 70.154 411.271 70.3568 411.807 70.4799C411.844 70.4872 411.873 70.5017 411.909 70.5089C411.974 70.5162 412.039 70.5234 412.104 70.5234C412.684 70.5234 413.147 70.0961 413.147 69.5674C413.147 69.1256 412.814 68.5752 412.358 68.4665H412.365Z" fill="#E22613"/>
<path d="M419.868 65.823C419.868 67.8147 422.055 69.4225 424.742 69.4225C427.429 69.4225 429.624 67.8075 429.624 65.823C429.624 63.8385 427.437 62.2234 424.742 62.2234C422.048 62.2234 419.868 63.8313 419.868 65.823ZM427.408 65.823C427.408 66.7863 426.213 67.5684 424.742 67.5684C423.272 67.5684 422.077 66.7863 422.077 65.823C422.077 64.8597 423.272 64.0775 424.742 64.0775C426.213 64.0775 427.408 64.8597 427.408 65.823Z" fill="#E22613"/>
<path d="M424.018 74.6299H426.111V71.5663H429.805V69.6905H420.194C419.614 69.6905 419.151 70.1106 419.151 70.632C419.151 71.1535 419.614 71.5736 420.194 71.5736H424.018V74.6372V74.6299Z" fill="#E22613"/>
<path d="M417.384 62.658H415.255V65.4246H411.699V67.2715H415.255V71.885C414.523 71.407 412.713 71.0014 411.764 71.0014C409.222 71.0014 406.245 72.6454 406.245 75.0789C406.245 77.5124 409.222 79.1565 411.764 79.1565C414.306 79.1565 417.283 77.5124 417.283 75.0789C417.283 73.9708 416.863 73.2393 416.24 72.544L417.384 71.5228V62.6724V62.658ZM411.858 77.0199C410.511 77.0199 408.498 76.3029 408.498 75.0138C408.498 73.7246 410.511 73.0076 411.858 73.0076C413.205 73.0076 415.211 73.7246 415.211 75.0138C415.211 76.3029 413.198 77.0199 411.858 77.0199Z" fill="#E22613"/>
</g>
<path d="M586.984 46.0707L585.622 53.8668C586.659 53.1007 588.177 52.684 590.034 52.684L590.576 52.684L591.443 47.7375C622.872 49.9822 650.446 47.6031 672.54 39.5516L670.31 51.9312C671.053 51.5414 672.617 51.4205 675.187 51.4205L678.005 35.882C650.632 46.9982 618.878 49.4849 586.969 46.0842L586.984 46.0707Z" fill="#E22613"/>
<path d="M649.888 54.0168L654.626 54.0168L653 63.2108L648.278 63.2108L649.888 54.0168Z" fill="#E22613"/>
<path d="M612.269 61.3128C611.944 61.837 611.51 62.0789 610.968 62.0521C610.427 62.0117 610.055 61.716 609.885 61.1649C609.699 60.6004 609.699 59.7401 609.854 58.5707C610.132 56.4201 610.798 55.3716 611.851 55.4388C612.393 55.4657 612.764 55.7614 612.935 56.326C613.121 56.8771 613.136 57.7239 612.981 58.8395C612.826 59.9552 612.594 60.7751 612.269 61.3128ZM617.13 54.8743C616.14 54.0409 614.467 53.6242 612.145 53.6242C607.578 53.6242 605.054 55.3044 604.574 58.6648C604.311 60.466 604.683 61.7832 605.658 62.6435C606.649 63.4903 608.306 63.9204 610.659 63.9204C613.012 63.9204 614.777 63.5038 616.016 62.6569C617.254 61.8236 618.013 60.5197 618.261 58.7723C618.508 57.0249 618.137 55.7211 617.146 54.8877L617.13 54.8743Z" fill="#E22613"/>
<path d="M627.115 61.3128C626.79 61.837 626.356 62.0789 625.814 62.0521C625.272 62.0117 624.901 61.716 624.73 61.1649C624.56 60.6004 624.545 59.7401 624.699 58.5707C624.994 56.4201 625.644 55.3716 626.697 55.4388C627.239 55.4657 627.595 55.7614 627.78 56.326C627.966 56.8771 627.982 57.7239 627.842 58.8395C627.688 59.9552 627.455 60.7751 627.13 61.3128M631.992 54.8743C630.985 54.0409 629.329 53.6242 626.991 53.6242C622.424 53.6242 619.915 55.3044 619.42 58.6648C619.157 60.466 619.528 61.7832 620.504 62.6435C621.495 63.4903 623.151 63.9204 625.505 63.9204C627.858 63.9204 629.623 63.5038 630.861 62.6569C632.1 61.8236 632.859 60.5197 633.106 58.7723C633.354 57.0249 632.982 55.7211 631.992 54.8877L631.992 54.8743Z" fill="#E22613"/>
<path d="M672.928 52.7116C670.776 52.7116 669.351 53.2359 668.206 54.3112L664.258 58.5856L661.037 54.002L659.768 54.002C657.833 54.002 656.129 54.9833 655.804 56.8248L654.69 63.1826L659.427 63.1826L660.464 57.2683L664.258 63.0079L669.274 57.9807L668.345 63.1826L673.083 63.1826L674.94 52.6848L672.912 52.6848L672.928 52.7116Z" fill="#E22613"/>
<path d="M601.99 54.0166C599.838 54.0166 598.398 54.7155 597.284 55.6161L593.583 58.6001L590.363 54.0166L589.078 54.0166C587.143 54.0166 585.44 54.9978 585.115 56.8393L584 63.1971L588.737 63.1971L589.775 57.2829L593.568 63.0224L598.336 59.2856L597.655 63.1971L602.393 63.1971L604.003 54.0031L601.975 54.0031L601.99 54.0166Z" fill="#E22613"/>
<path d="M647.165 62.6842C646.701 62.1465 645.199 59.5657 645.199 59.5657C645.013 59.27 644.626 58.6383 643.543 58.5442C644.704 58.477 646.422 57.7377 646.67 56.2726C646.825 55.3585 646.314 53.9875 642.97 53.9875L635.414 53.9875L633.804 63.2218L638.279 63.2218L639.037 59.1625L640.167 59.1625C640.555 59.1625 640.818 59.3776 640.988 59.6733C641.189 60.0093 642.242 61.6895 642.583 62.1868C642.676 62.3347 642.784 62.4691 642.877 62.617C643.109 62.9396 643.589 63.2622 644.208 63.2622L648.063 63.2353C647.94 63.195 647.382 62.9933 647.15 62.6976L647.165 62.6842ZM642.149 56.3532C641.902 57.7242 640.663 58.2485 639.564 58.2485C639.285 58.2485 639.161 58.2216 639.161 58.2216L639.78 54.673C639.78 54.673 639.92 54.6461 640.4 54.6461C641.994 54.6461 642.258 55.7349 642.149 56.3532Z" fill="#E22613"/>
<path d="M632.599 67.9406L632.475 67.9406L628.248 67.9406L628.248 68.6799L632.599 68.6799L632.599 67.9406Z" fill="#E22613"/>
<path d="M633.264 67.7236L633.264 69.9549L632.304 69.9549L632.304 70.7614L633.264 70.7614L633.264 75.3046L634.208 75.3046L634.208 67.7101L633.264 67.7101L633.264 67.7236Z" fill="#E22613"/>
<path d="M634.86 67.7238L634.86 75.3049L635.804 75.3049L635.804 67.7238L635.695 67.7238L634.86 67.7238Z" fill="#E22613"/>
<path d="M639.997 67.8176C639.285 67.8176 638.697 68.0864 638.279 68.6241C637.861 69.1483 637.659 69.8607 637.659 70.7209C637.659 71.5812 637.876 72.2936 638.279 72.8178C638.712 73.3555 639.285 73.6378 639.997 73.6378C640.709 73.6378 641.298 73.3555 641.716 72.8178C642.134 72.2936 642.335 71.5812 642.335 70.7209C642.335 69.8607 642.134 69.1483 641.716 68.6241C641.298 68.0864 640.709 67.8176 639.997 67.8176ZM639.997 72.8581C639.564 72.8581 639.238 72.6565 639.006 72.2533C638.759 71.8366 638.619 71.3124 638.619 70.7075C638.619 70.1026 638.743 69.6053 639.006 69.1886C639.254 68.7854 639.579 68.5837 639.997 68.5837C640.415 68.5837 640.771 68.7854 641.004 69.1886C641.251 69.6053 641.375 70.1295 641.375 70.7075C641.375 71.2855 641.251 71.8097 641.003 72.2398C640.771 72.6431 640.446 72.8447 639.997 72.8447L639.997 72.8581Z" fill="#E22613"/>
<path d="M643.745 67.7238L643.745 75.3049L644.72 75.3049L644.72 67.7238L644.596 67.7238L643.745 67.7238Z" fill="#E22613"/>
<path d="M608.058 71.9308L608.058 72.6701L612.192 72.6701L612.192 75.3988L613.182 75.3988L613.182 72.6701L617.192 72.6701L617.192 71.9308L608.073 71.9308L608.058 71.9308Z" fill="#E22613"/>
<path d="M615.983 67.9406L609.264 67.9406L609.264 71.0456L615.983 71.0456L615.983 67.9406ZM610.239 70.3063L610.239 68.6799L615.008 68.6799L615.008 70.3063L610.239 70.3063Z" fill="#E22613"/>
<path d="M619.778 72.5363L619.778 75.3053L626.095 75.3053L626.095 72.5363L619.778 72.5363ZM620.738 74.5794L620.738 73.2622L625.104 73.2622L625.104 74.5794L620.738 74.5794Z" fill="#E22613"/>
<path d="M625.151 67.7238L625.151 72.2671L626.095 72.2671L626.095 67.7238L625.971 67.7238L625.151 67.7238Z" fill="#E22613"/>
<path d="M619.732 71.1514L619.732 70.2643L623.649 70.2643L623.649 67.9523L618.756 67.9523L618.756 68.6916L622.673 68.6916L622.673 69.5384L618.756 69.5384L618.756 71.8907L624.005 71.8907L624.005 71.1649L619.732 71.1649L619.732 71.1514Z" fill="#E22613"/>
<path d="M629.89 72.4148L629.89 68.5168L628.931 68.5168L628.931 72.4148L629.89 72.4148Z" fill="#E22613"/>
<path d="M631.901 72.4146L631.901 68.5031L630.943 68.5031L630.943 72.4146L631.901 72.4146Z" fill="#E22613"/>
<path d="M632.923 73.0588L632.923 72.3195L628.061 72.3195L628.061 73.0588L632.923 73.0588Z" fill="#E22613"/>
<path d="M651.72 67.9387L651.596 67.9387L646.765 67.9387L646.765 68.6779L651.72 68.6779L651.72 67.9387Z" fill="#E22613"/>
<path d="M653.858 67.7236L653.022 67.7236L653.022 70.0221L651.69 70.0221L651.69 70.7614L653.022 70.7614L653.022 75.3046L653.981 75.3046L653.981 67.7101L653.858 67.7101L653.858 67.7236Z" fill="#E22613"/>
<path d="M648.487 72.5084L648.487 68.5969L647.528 68.5969L647.528 72.5084L648.487 72.5084Z" fill="#E22613"/>
<path d="M650.978 72.5103L650.978 68.5988L650.019 68.5988L650.019 72.5103L650.978 72.5103Z" fill="#E22613"/>
<path d="M652.45 73.0725L652.45 72.3332L646.52 72.3332L646.52 73.0725L652.45 73.0725Z" fill="#E22613"/>
<g clip-path="url(#clip1_1045_4892)">
<mask id="mask0_1045_4892" style="mask-type:luminance" maskUnits="userSpaceOnUse" x="759" y="37" width="106" height="37">
<path d="M864.3 37.882H759V73.882H864.3V37.882Z" fill="white"/>
</mask>
<g mask="url(#mask0_1045_4892)">
<path d="M864.294 42.4708L859.652 42.4796L859.643 37.882L856.617 37.8878L856.625 42.4825L851.98 42.4912L851.987 45.4524L856.631 45.4436L856.637 50.0412L859.664 50.0354L859.655 45.4378L864.3 45.432L864.294 42.4708Z" fill="#E22613"/>
<path d="M836.376 50.2828L829.622 50.2945C828.883 50.0528 828.11 49.913 827.263 49.9159C823.289 49.9218 820.233 53.0256 820.238 57.0321C820.241 59.2246 821.265 61.0007 822.603 62.4595L830.322 70.8393L820.329 70.8568L820.335 73.8849L834.97 73.8616L834.964 71.0751L828.41 64.0521C831.857 63.3854 834.314 60.7358 834.308 57.0088C834.308 55.6519 833.952 54.3971 833.316 53.3197L836.376 53.3139L836.37 50.2857L836.376 50.2828ZM827.283 61.3006C825.171 61.3035 823.409 59.5303 823.406 57.0234C823.404 54.5513 825.195 52.8073 827.269 52.8043C829.342 52.8014 831.143 54.5397 831.145 57.0117C831.149 59.5187 829.393 61.2977 827.283 61.3006Z" fill="#E22613"/>
<path d="M817.292 42.5521L813.915 42.5573L813.923 47.5363L817.3 47.531L817.292 42.5521Z" fill="#E22613"/>
<path d="M817.305 50.3176L813.928 50.3228L813.954 67.0737L817.331 67.0684L817.305 50.3176Z" fill="#E22613"/>
<path d="M805.462 57.1573C803.244 56.639 802.012 55.9432 802.012 54.6911C802.012 53.5759 802.888 52.7403 804.506 52.7374C806.054 52.7374 807.145 53.6371 807.43 55.1366L810.913 55.1308C810.381 51.9279 807.81 49.948 804.606 49.9538C800.982 49.9597 798.664 52.0531 798.67 54.8396C798.676 57.8357 800.753 59.3644 804.097 60.0894C806.63 60.6426 807.583 61.4084 807.583 62.6953C807.583 63.8105 806.636 64.6112 804.771 64.6141C802.977 64.617 801.885 63.7144 801.459 62.078L798.011 62.0839C798.473 65.6361 801.291 67.4763 804.845 67.4705C808.327 67.4647 810.963 65.3711 810.957 62.4799C810.951 59.4837 808.875 57.9551 805.459 57.1602L805.462 57.1573Z" fill="#E22613"/>
<path d="M787.86 50.047C783.18 50.0558 779.986 53.7507 779.995 58.7296C780.003 63.8484 783.21 67.4297 788.102 67.421C791.129 67.4152 794.573 65.8429 795.656 62.081L792.243 62.0868C791.611 63.3767 790.314 64.4569 788.166 64.4628C785.845 64.4657 783.836 63.1117 783.445 59.9788L795.688 59.9584C795.759 59.5391 795.791 59.1577 795.791 58.7034C795.782 53.6197 792.576 50.0383 787.86 50.0441V50.047ZM783.475 57.332C783.786 54.301 785.754 52.9412 787.899 52.9383C790.255 52.9354 792.017 54.5689 792.302 57.3175L783.472 57.332H783.475Z" fill="#E22613"/>
<path d="M765.44 42.631L759 42.6426L759.042 67.159L765.481 67.1473C773.044 67.1357 778.28 62.2848 778.265 54.8688C778.253 47.4528 773.002 42.6194 765.44 42.631ZM765.475 64.0464L762.589 64.0522L762.56 45.7348L765.446 45.729C770.899 45.7203 774.564 49.2667 774.573 54.8717C774.582 60.4446 770.929 64.0347 765.478 64.0464H765.475Z" fill="#E22613"/>
<path d="M838.909 50.2771L838.935 67.028L842.312 67.0222L842.292 53.3024L848.622 53.2907L848.646 67.0105L852.022 67.0076L851.996 50.2568L838.909 50.2771Z" fill="#E22613"/>
</g>
</g>
<defs>
<clipPath id="clip0_1045_4892">
<rect width="96" height="45.8164" fill="white" transform="translate(403 33.3256)"/>
</clipPath>
<clipPath id="clip1_1045_4892">
<rect width="105.3" height="36" fill="white" transform="translate(759 37.882)"/>
</clipPath>
</defs>
</svg>
