<svg width="902" height="111" viewBox="0 0 902 111" fill="none" xmlns="http://www.w3.org/2000/svg">
<path d="M27.6205 38.0264L25.6766 41.4016C25.1661 42.3222 24.8127 43.4984 24.7931 43.5836C24.7538 43.4302 24.4789 42.3392 23.9488 41.4187L21.9853 38.0264L17.9994 38.0264L22.9867 45.6122L22.9867 50.4876L26.5602 50.4876L26.5602 45.6122L31.5278 38.0264L27.5812 38.0264L27.6205 38.0264Z" fill="#E22613"/>
<path d="M35.5916 48.9839C34.1975 48.9839 33.5299 47.9781 33.5299 46.0689C33.5299 44.2278 34.1975 43.1368 35.5916 43.1368C36.9857 43.1368 37.6729 44.1596 37.6729 46.0859C37.6729 48.0122 36.9857 48.9839 35.5916 48.9839ZM35.6897 41.2787C32.1358 41.2787 30.0742 43.1027 30.0742 46.137C30.0742 49.1202 32.1163 50.842 35.5327 50.842C39.0278 50.842 41.0894 49.0521 41.0894 46.0689C41.0894 43.1538 39.1062 41.2957 35.6897 41.2957" fill="#E22613"/>
<path d="M48.0213 48.9839C46.6272 48.9839 45.9596 47.9781 45.9596 46.0689C45.9596 44.2278 46.6272 43.1368 48.0213 43.1368C49.4154 43.1368 50.1026 44.1596 50.1026 46.0859C50.1026 47.9611 49.4154 48.9839 48.0213 48.9839ZM48.1194 41.2787C44.5655 41.2787 42.5039 43.1027 42.5039 46.137C42.5039 49.1202 44.5458 50.842 47.9623 50.842C51.3788 50.842 53.519 49.0521 53.519 46.0689C53.519 43.1538 51.5359 41.2957 48.1194 41.2957" fill="#E22613"/>
<path d="M62.0819 41.3849C60.3541 41.3849 59.2349 42.2372 58.8422 43.0214L58.7833 41.6236L55.681 41.6236L55.681 50.4709L59.0189 50.4709L59.0189 45.1011C59.0189 44.0613 59.5294 43.3282 60.7271 43.3282C61.7874 43.3282 62.2587 43.8567 62.2587 44.8966L62.2587 50.4709L65.5967 50.4709L65.5967 44.6409C65.5967 42.4759 64.2222 41.3679 62.1016 41.3679" fill="#E22613"/>
<path d="M73.0961 48.9853C71.8002 48.9853 71.054 47.8772 71.054 46.1044C71.054 44.2804 71.8001 43.1723 73.1156 43.1723C74.4312 43.1723 75.1578 44.1781 75.1578 46.0362C75.1578 47.8943 74.4509 48.9853 73.0961 48.9853ZM75.1185 41.3824C75.1185 41.9279 75.1773 42.4223 75.2166 42.7632C74.9417 42.2518 73.8422 41.2631 72.1144 41.2631C69.4047 41.2631 67.6375 43.2405 67.6375 46.1555C67.6375 48.9171 69.3458 50.707 71.9376 50.707C73.5084 50.707 74.6079 50.1104 75.2363 49.1558L75.3149 50.4684L78.3975 50.4684L78.3975 36.882L75.0988 36.882L75.0988 41.3824L75.1185 41.3824Z" fill="#E22613"/>
<path d="M84.0485 44.9949C84.2252 43.58 84.7947 42.9663 85.8942 42.9663C86.9938 42.9663 87.5632 43.5971 87.6418 44.9949L84.0485 44.9949ZM85.9139 41.2787C82.5563 41.2787 80.5339 43.1027 80.5339 46.137C80.5339 49.1714 82.4974 50.842 85.8942 50.842C88.4468 50.842 90.4103 49.8874 90.9208 47.8247L87.5436 47.8247C87.2884 48.5918 86.876 48.9498 85.9139 48.9498C84.1664 48.9498 83.9504 47.586 83.9504 46.5121L91.0975 46.5121C91.0975 46.3075 91.1172 46.1541 91.1172 46.0518C91.1172 43.0686 89.0555 41.3128 85.9139 41.3128" fill="#E22613"/>
<path d="M99.1495 45.4552L97.8733 45.0631C96.381 44.6199 96.0865 44.296 96.0865 43.7164C96.0865 43.205 96.5381 42.9152 97.245 42.9152C98.0304 42.9152 98.5016 43.3414 98.5605 44.2278L101.702 44.2278C101.545 43.1027 100.995 41.2787 97.2646 41.2787C94.6532 41.2787 92.9449 42.3697 92.9449 44.0232C92.9449 45.2677 93.7302 45.9836 95.5759 46.5632L97.1272 47.0405C98.266 47.4156 98.5801 47.7054 98.5801 48.2338C98.5801 48.7111 98.1875 49.1373 97.2646 49.1373C96.1454 49.1373 95.9098 48.4725 95.792 47.6883L92.5129 47.6883C92.7485 49.8021 94.2211 50.842 97.2057 50.842C99.9153 50.842 101.722 49.8021 101.722 48.0463C101.722 46.836 101.015 46.0518 99.1103 45.4722" fill="#E22613"/>
<path d="M114.134 46.2393C113.309 46.2393 112.641 45.8132 112.641 44.6028C112.641 43.3925 113.289 42.8811 114.134 42.8811C115.017 42.8811 115.685 43.3925 115.685 44.6028C115.685 45.7961 114.998 46.2393 114.134 46.2393ZM113.309 50.8931L114.742 51.0636C116.411 51.2511 117.04 51.575 117.04 52.2739C117.04 53.1433 115.842 53.5354 114.448 53.5354C113.054 53.5354 111.935 53.1263 111.935 52.1375C111.935 51.1488 113.289 50.8931 113.289 50.8931M114.114 41.2957C113.741 41.2957 113.172 41.3128 112.7 41.381C110.972 41.6537 109.284 42.5402 109.284 44.5858C109.284 46.0177 110.109 46.9382 111.326 47.3985C111.188 47.4497 109.951 47.9952 109.951 48.8816C109.951 50.0578 111.522 50.3647 111.581 50.3817C111.444 50.3988 108.911 50.7738 108.911 52.5978C108.911 54.6946 111.935 55.2742 114.35 55.2742C116.961 55.2742 120.181 54.4559 120.181 52.1205C120.181 49.7339 117.747 49.2566 115.292 49.018L113.977 48.8816C112.798 48.7623 112.484 48.6088 112.484 48.2509C112.484 47.9952 112.641 47.8588 112.779 47.7906C113.211 47.8417 113.702 47.8588 114.134 47.8588C116.352 47.8588 118.905 47.0405 118.905 44.7903C118.905 43.6993 118.277 43.2391 118.277 43.2391C118.277 43.2391 118.709 43.3584 119.553 43.3584L120.358 43.3584L120.358 41.6196L116.313 41.6196C115.665 41.398 114.782 41.2787 114.094 41.2787" fill="#E22613"/>
<path d="M128.485 41.3849C126.757 41.3849 125.638 42.2372 125.246 43.0214L125.187 41.6236L122.084 41.6236L122.084 50.4709L125.422 50.4709L125.422 45.1011C125.422 44.0613 125.933 43.3282 127.13 43.3282C128.191 43.3282 128.662 43.8567 128.662 44.8966L128.662 50.4709L132 50.4709L132 44.6409C132 42.4759 130.625 41.3679 128.505 41.3679" fill="#E22613"/>
<path d="M105.358 36.8969C104.259 36.8969 103.375 37.664 103.375 38.6186C103.375 39.5733 104.259 40.3404 105.358 40.3404C106.458 40.3404 107.341 39.5733 107.341 38.6186C107.341 37.664 106.458 36.8969 105.358 36.8969Z" fill="#E22613"/>
<path d="M107.025 50.4851L107.025 41.6378L103.687 41.6378L103.687 50.4851L107.025 50.4851Z" fill="#E22613"/>
<path d="M24.0869 61.1235C24.7544 61.1235 25.3239 61.2258 25.8147 61.4304L29.1724 61.3963L29.1724 62.027L27.7782 62.027C27.2677 62.027 27.0713 62.027 26.6197 61.9588C27.1106 62.2486 27.7586 62.9135 27.7782 64.2261C27.8175 66.2546 26.2074 67.3968 24.1653 67.4309C23.6352 67.4309 23.1247 67.3797 22.6731 67.2434C22.516 67.3456 21.9074 67.7207 21.9271 68.2662C21.9467 68.8117 22.6338 68.9651 23.6745 69.1015L25.2257 69.3231C27.0321 69.5788 29.0152 70.039 29.0544 71.9994C29.0937 73.9598 26.8358 74.9656 24.617 74.9826C22.2805 75.0167 20.0027 74.3519 19.9831 72.3063C19.9831 71.0448 21.0827 70.1072 22.3393 69.5788C22.3393 69.5788 21.1023 69.3572 21.0826 68.4366C21.0826 67.5672 22.0056 67.0729 22.143 66.9877C21.1809 66.4933 20.5329 65.5898 20.5133 64.2602C20.474 62.2486 22.0645 61.0894 24.1065 61.0724L24.0869 61.1235ZM20.906 72.2551C20.9256 73.7553 22.6338 74.403 24.6366 74.386C26.1681 74.3689 28.1513 73.7041 28.1316 72.1017C28.112 70.7721 26.8947 70.2947 24.8723 70.022L23.0854 69.7833C22.143 70.1243 20.8864 71.113 20.906 72.2551ZM24.185 66.8172C25.5791 66.8172 26.8946 66.033 26.8553 64.2431C26.8357 62.4873 25.5006 61.7372 24.1065 61.7543C22.7124 61.7713 21.4164 62.5896 21.4557 64.3113C21.495 66.033 22.6535 66.8342 24.185 66.8172Z" fill="#E22613"/>
<path d="M32.2151 63.6268C32.7845 62.0244 34.3946 61.0868 36.0439 61.155L36.0439 61.9221L35.769 61.9221C33.7074 61.9392 32.2347 63.4734 32.2739 65.5531L32.3526 70.1728L31.4493 70.1728L31.3119 61.3937L32.117 61.3937L32.1954 63.6439L32.2151 63.6268Z" fill="#E22613"/>
<path d="M46.8626 65.624C46.9019 68.5049 45.2722 70.3289 42.3269 70.363C39.3817 70.3971 37.7127 68.6754 37.6538 65.7263C37.6145 62.6749 39.2836 60.9361 42.1699 60.902C45.0563 60.8679 46.8037 62.5726 46.8626 65.624ZM38.5767 65.7263C38.616 68.3174 39.9903 69.7493 42.3073 69.7323C44.6438 69.6982 45.9594 68.2492 45.9201 65.641C45.8809 62.9988 44.5849 61.5327 42.1895 61.5668C39.8333 61.6009 38.5374 63.101 38.5767 65.7263Z" fill="#E22613"/>
<path d="M57.7225 69.8712L56.9174 69.8712L56.8586 67.962C56.2303 69.428 55.0718 70.1099 53.344 70.144C51.2038 70.161 49.9078 69.0189 49.8685 66.8539L49.79 61.1603L50.6932 61.1603L50.7718 66.6323C50.7914 68.5245 51.6946 69.4792 53.3832 69.4621C55.3859 69.4451 56.7997 68.1836 56.7801 66.3937L56.7015 61.0921L57.6047 61.0921L57.7422 69.8712L57.7225 69.8712Z" fill="#E22613"/>
<path d="M62.1978 62.3167C62.2174 62.6917 62.1978 63.2202 62.1978 63.2202C62.7476 61.4984 64.2006 60.7654 65.8892 60.7484C68.3436 60.7143 69.9537 62.436 69.9929 65.1976C70.0322 68.1297 68.4222 70.073 65.8303 70.1071C64.3774 70.1071 62.8262 69.4593 62.2764 67.8228C62.3353 68.266 62.3746 68.8115 62.3746 68.999L62.4531 74.2154L61.5696 74.2154L61.3732 61.0382L62.139 61.0382L62.1978 62.3337L62.1978 62.3167ZM62.2764 65.5044C62.3157 68.0444 63.6901 69.4934 65.8107 69.4764C67.8724 69.4593 69.0308 67.8399 68.9915 65.2658C68.9523 62.6917 67.7742 61.362 65.7125 61.3791C63.6116 61.3961 62.2568 62.9133 62.2961 65.5044L62.2764 65.5044Z" fill="#E22613"/>
<path d="M264.53 57.8529C264.53 54.4238 262.397 53.2298 259.893 53.2298C258.394 53.2298 256.701 53.8268 255.943 55.0821L255.943 53.6431L250.248 53.6431L250.248 65.5837L255.943 65.5837L255.943 59.4756C255.943 58.2662 256.419 57.7151 257.283 57.6233C258.288 57.5314 258.994 57.9907 258.994 59.4756L258.994 65.5837L264.53 65.5837L264.53 57.8529ZM223.252 65.5837L229.071 65.5837L229.071 60.3941L233.074 60.3941L233.074 56.0006L229.071 56.0006L229.071 53.6431L233.973 53.6431L233.973 48.974L225.985 48.974C224.328 48.974 223.27 49.8925 223.27 51.2397L223.27 65.5837L223.252 65.5837ZM266.188 63.7314C266.188 64.8029 267.087 65.5837 268.48 65.5837L274.934 65.5837L274.934 61.0524L271.848 61.0524L271.848 58.1438L274.934 58.1438L274.934 53.6584L271.848 53.6584L271.848 50.7039L266.205 50.7039L266.205 63.762L266.188 63.7314ZM239.527 59.5215C239.527 58.4499 240.321 57.6692 241.555 57.6692C242.789 57.6692 243.583 58.4499 243.583 59.5215C243.583 60.5931 242.789 61.3739 241.555 61.3739C240.321 61.3739 239.527 60.5931 239.527 59.5215ZM234.044 59.5215C234.044 63.364 237.076 66.0429 241.555 66.0429C246.034 66.0429 249.067 63.364 249.067 59.5215C249.067 55.6791 246.034 53.0001 241.555 53.0001C237.076 53.0001 234.044 55.6791 234.044 59.5215Z" fill="#E22613"/>
<path d="M217.542 59.3247L222.179 53.6299L215.091 53.6299L213.433 56.1252L211.723 53.6299L204.687 53.6299L209.431 59.3247L203.612 65.295L203.612 53.6299L197.317 53.6299L197.317 65.295L191.498 58.7582C194.108 57.6866 195.659 55.3445 195.659 52.941C195.659 48.9608 192.732 46.7564 187.337 46.7564L176.934 46.7564L176.934 65.5705L183.228 65.5705L183.228 59.8145L185.679 59.8145L189.788 65.5705L211.106 65.5705L213.398 62.371L215.69 65.5705L223.043 65.5705L217.506 59.3247L217.542 59.3247ZM187.108 55.2832L183.264 55.2832L183.264 51.2877L187.108 51.2877C188.342 51.2877 189.083 52.145 189.083 53.2166C189.083 54.4259 188.183 55.2832 187.108 55.2832Z" fill="#E22613"/>
<path d="M196.893 49.1275C196.893 50.9199 198.567 52.3729 200.631 52.3729C202.696 52.3729 204.369 50.9199 204.369 49.1275C204.369 47.3351 202.696 45.8821 200.631 45.8821C198.567 45.8821 196.893 47.3351 196.893 49.1275Z" fill="#E22613"/>
<g clip-path="url(#clip0_1045_4892)">
<path d="M373.09 51.9752C363.247 48.5205 355.128 42.5672 356.548 38.2796C357.721 34.7597 364.037 33.5502 371.764 34.9552C372.185 34.8683 372.692 34.7669 373.206 34.6655C363.211 32.2465 354.86 33.1301 353.513 37.099C351.992 41.6039 360.032 48.4047 371.598 52.5257L373.083 51.9752H373.09Z" fill="#E22613"/>
<path d="M386.546 39.1559H386.575C386.409 39.069 386.242 38.9966 386.075 38.9169C385.996 38.8735 385.916 38.8373 385.829 38.7938C385.829 38.7938 385.829 38.7938 385.829 38.801C384.243 38.084 382.802 37.5626 382.802 37.5626L381.252 37.9174C382.838 38.3592 384.801 39.4239 384.801 39.4239C390.979 42.8279 395.679 47.9267 394.593 51.2003C393.644 54.0538 389.306 55.3865 383.57 55.0388C383.055 55.2996 382.505 55.4806 381.983 55.6255C390.399 57.0812 397.055 55.9804 398.243 52.475C399.445 48.9044 394.39 43.1755 386.561 39.1559H386.546Z" fill="#E22613"/>
<path d="M381.179 44.6023C375.313 41.0752 374.111 40.9014 376.196 38.9966C376.196 38.9966 373.285 41.0897 371.148 44.8558C371.148 44.8558 376.102 47.3617 377.993 49.1289C378.405 49.5997 378.818 50.3529 378.637 51.3379C378.253 52.7719 376.653 54.3291 372.43 54.3508C372.43 54.3508 378.608 56.0455 382.606 54.2494C386.604 52.4605 387.053 48.1294 381.187 44.6023H381.179Z" fill="#E22613"/>
<path d="M385.069 34.7307L374.053 34.1151L377.182 35.2667C373.807 36.2517 369.425 38.352 365.978 41.9081L367.803 42.9583C370.714 39.4384 375.972 35.4477 385.069 34.738V34.7307Z" fill="#E22613"/>
<path d="M368.201 43.1755L370.693 44.6095C371.149 43.7839 371.721 42.893 372.445 41.995C374.495 39.4383 378.058 36.4254 384.012 35.1508C379.543 35.636 372.822 37.3887 368.201 43.1683V43.1755Z" fill="#E22613"/>
<path d="M372.67 66.7862H371.735V62.6579H369.794V78.6277L371.735 77.0271V68.633H372.67V78.6277L374.683 77.0271V62.6579H372.67V66.7862Z" fill="#E22613"/>
<path d="M377.442 73.978V73.9925C376.913 74.0505 376.508 74.4922 376.508 75.0282C376.508 75.5641 376.921 76.0059 377.442 76.0639V76.0784H391.131V73.978H377.442Z" fill="#E22613"/>
<path d="M404.754 78.6277L406.861 77.0271V62.6579H404.754V78.6277Z" fill="#E22613"/>
<path d="M421.426 66.7862V62.6579H419.319V78.6205L421.426 77.0199V68.633H423.867V66.7862H421.426Z" fill="#E22613"/>
<path d="M393.42 62.7665V62.781C392.891 62.839 392.485 63.2808 392.485 63.8167C392.485 64.3527 392.898 64.8017 393.42 64.8524V64.8669H394.549V71.4431H393.42V71.4576C392.891 71.5155 392.485 71.9573 392.485 72.4933C392.485 73.0292 392.898 73.471 393.42 73.529V73.5435H403.537V71.4431H401.814V64.8669H403.537V62.7665H393.42ZM399.713 71.4504H396.65V64.8741H399.713V71.4504Z" fill="#E22613"/>
<path d="M413.235 62.6579C410.497 62.6579 408.281 65.1204 408.281 68.155C408.281 71.1896 410.497 73.6521 413.235 73.6521C415.972 73.6521 418.189 71.1896 418.189 68.155C418.189 65.1204 415.972 62.6579 413.235 62.6579ZM413.235 71.3997C411.678 71.3997 410.403 69.9439 410.403 68.155C410.403 66.3661 411.67 64.9176 413.235 64.9176C414.799 64.9176 416.067 66.3733 416.067 68.155C416.067 69.9367 414.799 71.3997 413.235 71.3997Z" fill="#E22613"/>
<path d="M364.138 62.658C361.545 62.658 359.452 65.1204 359.452 68.1551C359.452 71.1897 361.552 73.6522 364.138 73.6522C366.723 73.6522 368.824 71.1897 368.824 68.1551C368.824 65.1204 366.723 62.658 364.138 62.658ZM364.138 71.3997C362.704 71.3997 361.53 69.944 361.53 68.1551C361.53 66.3661 362.696 64.9176 364.138 64.9176C365.579 64.9176 366.738 66.3734 366.738 68.1551C366.738 69.9367 365.572 71.3997 364.138 71.3997Z" fill="#E22613"/>
<path d="M380.108 71.2114H390.139V69.111H380.318C379.89 69.111 379.586 68.8068 379.586 68.3723V65.4897C379.586 65.0624 379.89 64.7582 380.318 64.7582H390.139V62.6579H380.108C378.659 62.6579 377.486 63.8312 377.486 65.2797V68.5823C377.486 70.0308 378.659 71.2041 380.108 71.2041" fill="#E22613"/>
<path d="M355.918 72.5513H352.999V74.3692H355.918V76.4695H348.052C347.625 76.4695 347.321 76.1654 347.321 75.738V73.2249H345.235V75.9408C345.235 77.3821 346.401 78.5554 347.842 78.5554H355.925L358.011 76.4695V62.6725H355.918V72.5441" fill="#E22613"/>
<path d="M337.232 68.4665C336.247 68.1478 335.537 67.8654 334.827 66.7645C333.973 65.4391 334.038 63.7082 334.023 62.5204H331.851C331.836 63.7082 331.901 65.4391 331.054 66.7645C330.344 67.8726 329.634 68.2203 328.649 68.5389C328.2 68.6476 327.86 69.198 327.86 69.6398C327.86 70.1685 328.331 70.5958 328.903 70.5958C328.968 70.5958 329.033 70.5886 329.098 70.5813C329.135 70.5741 329.164 70.5669 329.2 70.5524C329.736 70.4293 330.243 70.2265 330.706 69.9512C331.698 69.3718 332.379 68.5607 332.901 67.7712C332.908 67.7567 332.937 67.7205 332.937 67.7205C332.937 67.7205 332.959 67.7567 332.973 67.7712C333.495 68.5679 334.168 69.2994 335.16 69.8788C335.631 70.154 336.138 70.3568 336.674 70.4799C336.71 70.4872 336.739 70.5017 336.775 70.5089C336.841 70.5162 336.906 70.5234 336.971 70.5234C337.55 70.5234 338.014 70.0961 338.014 69.5674C338.014 69.1256 337.681 68.5752 337.224 68.4665H337.232Z" fill="#E22613"/>
<path d="M344.735 65.823C344.735 67.8147 346.922 69.4225 349.609 69.4225C352.296 69.4225 354.491 67.8075 354.491 65.823C354.491 63.8385 352.303 62.2234 349.609 62.2234C346.915 62.2234 344.735 63.8313 344.735 65.823ZM352.274 65.823C352.274 66.7863 351.079 67.5684 349.609 67.5684C348.139 67.5684 346.944 66.7863 346.944 65.823C346.944 64.8597 348.139 64.0775 349.609 64.0775C351.079 64.0775 352.274 64.8597 352.274 65.823Z" fill="#E22613"/>
<path d="M348.885 74.6299H350.978V71.5663H354.671V69.6905H345.061C344.481 69.6905 344.018 70.1106 344.018 70.632C344.018 71.1535 344.481 71.5736 345.061 71.5736H348.885V74.6372V74.6299Z" fill="#E22613"/>
<path d="M342.251 62.658H340.122V65.4246H336.565V67.2715H340.122V71.885C339.39 71.407 337.579 71.0014 336.631 71.0014C334.089 71.0014 331.112 72.6454 331.112 75.0789C331.112 77.5124 334.089 79.1565 336.631 79.1565C339.173 79.1565 342.149 77.5124 342.149 75.0789C342.149 73.9708 341.729 73.2393 341.107 72.544L342.251 71.5228V62.6724V62.658ZM336.725 77.0199C335.378 77.0199 333.364 76.3029 333.364 75.0138C333.364 73.7246 335.378 73.0076 336.725 73.0076C338.072 73.0076 340.078 73.7246 340.078 75.0138C340.078 76.3029 338.065 77.0199 336.725 77.0199Z" fill="#E22613"/>
</g>
<path d="M481.784 46.0707L480.422 53.8668C481.459 53.1007 482.976 52.684 484.834 52.684L485.376 52.684L486.243 47.7375C517.672 49.9822 545.246 47.6031 567.339 39.5516L565.11 51.9312C565.853 51.5414 567.417 51.4205 569.987 51.4205L572.805 35.882C545.432 46.9982 513.678 49.4849 481.769 46.0842L481.784 46.0707Z" fill="#E22613"/>
<path d="M544.688 54.0168L549.426 54.0168L547.8 63.2108L543.078 63.2108L544.688 54.0168Z" fill="#E22613"/>
<path d="M507.069 61.3128C506.744 61.837 506.31 62.0789 505.768 62.0521C505.226 62.0117 504.855 61.716 504.685 61.1649C504.499 60.6004 504.499 59.7401 504.654 58.5707C504.932 56.4201 505.598 55.3716 506.651 55.4388C507.193 55.4657 507.564 55.7614 507.735 56.326C507.92 56.8771 507.936 57.7239 507.781 58.8395C507.626 59.9552 507.394 60.7751 507.069 61.3128ZM511.93 54.8743C510.939 54.0409 509.267 53.6242 506.945 53.6242C502.378 53.6242 499.854 55.3044 499.374 58.6648C499.111 60.466 499.482 61.7832 500.458 62.6435C501.449 63.4903 503.105 63.9204 505.459 63.9204C507.812 63.9204 509.577 63.5038 510.815 62.6569C512.054 61.8236 512.813 60.5197 513.06 58.7723C513.308 57.0249 512.937 55.7211 511.946 54.8877L511.93 54.8743Z" fill="#E22613"/>
<path d="M521.915 61.3128C521.589 61.837 521.156 62.0789 520.614 62.0521C520.072 62.0117 519.701 61.716 519.53 61.1649C519.36 60.6004 519.344 59.7401 519.499 58.5707C519.793 56.4201 520.444 55.3716 521.496 55.4388C522.038 55.4657 522.394 55.7614 522.58 56.326C522.766 56.8771 522.782 57.7239 522.642 58.8395C522.487 59.9552 522.255 60.7751 521.93 61.3128M526.791 54.8743C525.785 54.0409 524.128 53.6242 521.791 53.6242C517.223 53.6242 514.715 55.3044 514.22 58.6648C513.957 60.466 514.328 61.7832 515.304 62.6435C516.294 63.4903 517.951 63.9204 520.304 63.9204C522.658 63.9204 524.423 63.5038 525.661 62.6569C526.9 61.8236 527.658 60.5197 527.906 58.7723C528.154 57.0249 527.782 55.7211 526.791 54.8877L526.791 54.8743Z" fill="#E22613"/>
<path d="M567.728 52.7116C565.576 52.7116 564.151 53.2359 563.005 54.3112L559.057 58.5856L555.837 54.002L554.568 54.002C552.632 54.002 550.929 54.9833 550.604 56.8248L549.489 63.1826L554.227 63.1826L555.264 57.2683L559.057 63.0079L564.074 57.9807L563.145 63.1826L567.882 63.1826L569.74 52.6848L567.712 52.6848L567.728 52.7116Z" fill="#E22613"/>
<path d="M496.79 54.0166C494.638 54.0166 493.198 54.7155 492.083 55.6161L488.383 58.6001L485.163 54.0166L483.878 54.0166C481.943 54.0166 480.239 54.9978 479.914 56.8393L478.8 63.1971L483.537 63.1971L484.575 57.2829L488.368 63.0224L493.136 59.2856L492.455 63.1971L497.193 63.1971L498.803 54.0031L496.775 54.0031L496.79 54.0166Z" fill="#E22613"/>
<path d="M541.965 62.6842C541.501 62.1465 539.999 59.5657 539.999 59.5657C539.813 59.27 539.426 58.6383 538.342 58.5442C539.504 58.477 541.222 57.7377 541.47 56.2726C541.625 55.3585 541.114 53.9875 537.77 53.9875L530.214 53.9875L528.604 63.2218L533.078 63.2218L533.837 59.1625L534.967 59.1625C535.354 59.1625 535.618 59.3776 535.788 59.6733C535.989 60.0093 537.042 61.6895 537.383 62.1868C537.475 62.3347 537.584 62.4691 537.677 62.617C537.909 62.9396 538.389 63.2622 539.008 63.2622L542.863 63.2353C542.739 63.195 542.182 62.9933 541.95 62.6976L541.965 62.6842ZM536.949 56.3532C536.701 57.7242 535.463 58.2485 534.363 58.2485C534.085 58.2485 533.961 58.2216 533.961 58.2216L534.58 54.673C534.58 54.673 534.72 54.6461 535.2 54.6461C536.794 54.6461 537.057 55.7349 536.949 56.3532Z" fill="#E22613"/>
<path d="M527.398 67.9406L527.275 67.9406L523.048 67.9406L523.048 68.6799L527.398 68.6799L527.398 67.9406Z" fill="#E22613"/>
<path d="M528.063 67.7236L528.063 69.9549L527.103 69.9549L527.103 70.7614L528.063 70.7614L528.063 75.3046L529.008 75.3046L529.008 67.7101L528.063 67.7101L528.063 67.7236Z" fill="#E22613"/>
<path d="M529.66 67.7238L529.66 75.3049L530.604 75.3049L530.604 67.7238L530.495 67.7238L529.66 67.7238Z" fill="#E22613"/>
<path d="M534.797 67.8176C534.085 67.8176 533.496 68.0864 533.078 68.6241C532.66 69.1483 532.459 69.8607 532.459 70.7209C532.459 71.5812 532.676 72.2936 533.078 72.8178C533.512 73.3555 534.085 73.6378 534.797 73.6378C535.509 73.6378 536.097 73.3555 536.515 72.8178C536.933 72.2936 537.135 71.5812 537.135 70.7209C537.135 69.8607 536.934 69.1483 536.515 68.6241C536.097 68.0864 535.509 67.8176 534.797 67.8176ZM534.797 72.8581C534.363 72.8581 534.038 72.6565 533.806 72.2533C533.558 71.8366 533.419 71.3124 533.419 70.7075C533.419 70.1026 533.543 69.6053 533.806 69.1886C534.054 68.7854 534.379 68.5837 534.797 68.5837C535.215 68.5837 535.571 68.7854 535.803 69.1886C536.051 69.6053 536.175 70.1295 536.175 70.7075C536.175 71.2855 536.051 71.8097 535.803 72.2398C535.571 72.6431 535.246 72.8447 534.797 72.8447L534.797 72.8581Z" fill="#E22613"/>
<path d="M538.545 67.7238L538.545 75.3049L539.52 75.3049L539.52 67.7238L539.396 67.7238L538.545 67.7238Z" fill="#E22613"/>
<path d="M502.858 71.9308L502.858 72.6701L506.991 72.6701L506.991 75.3988L507.982 75.3988L507.982 72.6701L511.992 72.6701L511.992 71.9308L502.873 71.9308L502.858 71.9308Z" fill="#E22613"/>
<path d="M510.783 67.9406L504.064 67.9406L504.064 71.0456L510.783 71.0456L510.783 67.9406ZM505.039 70.3063L505.039 68.6799L509.808 68.6799L509.808 70.3063L505.039 70.3063Z" fill="#E22613"/>
<path d="M514.578 72.5363L514.578 75.3053L520.895 75.3053L520.895 72.5363L514.578 72.5363ZM515.538 74.5794L515.538 73.2622L519.904 73.2622L519.904 74.5794L515.538 74.5794Z" fill="#E22613"/>
<path d="M519.951 67.7238L519.951 72.2671L520.895 72.2671L520.895 67.7238L520.771 67.7238L519.951 67.7238Z" fill="#E22613"/>
<path d="M514.532 71.1514L514.532 70.2643L518.449 70.2643L518.449 67.9523L513.556 67.9523L513.556 68.6916L517.473 68.6916L517.473 69.5384L513.556 69.5384L513.556 71.8907L518.805 71.8907L518.805 71.1649L514.532 71.1649L514.532 71.1514Z" fill="#E22613"/>
<path d="M524.689 72.4148L524.689 68.5168L523.731 68.5168L523.731 72.4148L524.689 72.4148Z" fill="#E22613"/>
<path d="M526.701 72.4146L526.701 68.5031L525.742 68.5031L525.742 72.4146L526.701 72.4146Z" fill="#E22613"/>
<path d="M527.723 73.0588L527.723 72.3195L522.861 72.3195L522.861 73.0588L527.723 73.0588Z" fill="#E22613"/>
<path d="M546.52 67.9387L546.396 67.9387L541.565 67.9387L541.565 68.6779L546.52 68.6779L546.52 67.9387Z" fill="#E22613"/>
<path d="M548.657 67.7236L547.821 67.7236L547.821 70.0221L546.49 70.0221L546.49 70.7614L547.821 70.7614L547.821 75.3046L548.781 75.3046L548.781 67.7101L548.657 67.7101L548.657 67.7236Z" fill="#E22613"/>
<path d="M543.287 72.5084L543.287 68.5969L542.328 68.5969L542.328 72.5084L543.287 72.5084Z" fill="#E22613"/>
<path d="M545.777 72.5103L545.777 68.5988L544.818 68.5988L544.818 72.5103L545.777 72.5103Z" fill="#E22613"/>
<path d="M547.25 73.0725L547.25 72.3332L541.32 72.3332L541.32 73.0725L547.25 73.0725Z" fill="#E22613"/>
<g clip-path="url(#clip1_1045_4892)">
<mask id="mask0_1045_4892" style="mask-type:luminance" maskUnits="userSpaceOnUse" x="623" y="37" width="107" height="37">
<path d="M729.034 37.882H623.734V73.882H729.034V37.882Z" fill="white"/>
</mask>
<g mask="url(#mask0_1045_4892)">
<path d="M729.028 42.4708L724.386 42.4796L724.377 37.882L721.35 37.8878L721.359 42.4825L716.714 42.4912L716.72 45.4524L721.365 45.4436L721.371 50.0412L724.398 50.0354L724.389 45.4378L729.033 45.432L729.028 42.4708Z" fill="#E22613"/>
<path d="M701.109 50.2828L694.355 50.2945C693.617 50.0528 692.844 49.913 691.996 49.9159C688.022 49.9218 684.966 53.0256 684.972 57.0321C684.975 59.2246 685.998 61.0007 687.336 62.4595L695.055 70.8393L685.063 70.8568L685.069 73.8849L699.703 73.8616L699.697 71.0751L693.143 64.0521C696.591 63.3854 699.047 60.7358 699.041 57.0088C699.041 55.6519 698.685 54.3971 698.05 53.3197L701.109 53.3139L701.104 50.2857L701.109 50.2828ZM692.017 61.3006C689.905 61.3035 688.143 59.5303 688.14 57.0234C688.137 54.5513 689.928 52.8073 692.002 52.8043C694.076 52.8014 695.876 54.5397 695.879 57.0117C695.882 59.5187 694.126 61.2977 692.017 61.3006Z" fill="#E22613"/>
<path d="M682.025 42.5521L678.648 42.5573L678.656 47.5363L682.033 47.531L682.025 42.5521Z" fill="#E22613"/>
<path d="M682.038 50.3176L678.661 50.3228L678.688 67.0737L682.065 67.0684L682.038 50.3176Z" fill="#E22613"/>
<path d="M670.196 57.1573C667.978 56.639 666.745 55.9432 666.745 54.6911C666.745 53.5759 667.622 52.7403 669.24 52.7374C670.787 52.7374 671.878 53.6371 672.164 55.1366L675.646 55.1308C675.114 51.9279 672.543 49.948 669.34 49.9538C665.716 49.9597 663.398 52.0531 663.404 54.8396C663.409 57.8357 665.486 59.3644 668.831 60.0894C671.363 60.6426 672.317 61.4084 672.317 62.6953C672.317 63.8105 671.369 64.6112 669.504 64.6141C667.71 64.617 666.619 63.7144 666.192 62.078L662.745 62.0839C663.206 65.6361 666.024 67.4763 669.578 67.4705C673.061 67.4647 675.696 65.3711 675.691 62.4799C675.685 59.4837 673.608 57.9551 670.193 57.1602L670.196 57.1573Z" fill="#E22613"/>
<path d="M652.594 50.047C647.914 50.0558 644.719 53.7507 644.728 58.7296C644.737 63.8484 647.943 67.4297 652.835 67.421C655.862 67.4152 659.307 65.8429 660.389 62.081L656.977 62.0868C656.344 63.3767 655.047 64.4569 652.9 64.4628C650.579 64.4657 648.57 63.1117 648.179 59.9788L660.421 59.9584C660.492 59.5391 660.524 59.1577 660.524 58.7034C660.516 53.6197 657.309 50.0383 652.594 50.0441V50.047ZM648.208 57.332C648.52 54.301 650.488 52.9412 652.632 52.9383C654.988 52.9354 656.75 54.5689 657.036 57.3175L648.205 57.332H648.208Z" fill="#E22613"/>
<path d="M630.173 42.631L623.734 42.6426L623.775 67.159L630.214 67.1473C637.777 67.1357 643.013 62.2848 642.998 54.8688C642.987 47.4528 637.736 42.6194 630.173 42.631ZM630.208 64.0464L627.323 64.0522L627.293 45.7348L630.179 45.729C635.633 45.7203 639.298 49.2667 639.307 54.8717C639.315 60.4446 635.662 64.0347 630.211 64.0464H630.208Z" fill="#E22613"/>
<path d="M703.642 50.2771L703.669 67.028L707.046 67.0222L707.025 53.3024L713.355 53.2907L713.379 67.0105L716.756 67.0076L716.729 50.2568L703.642 50.2771Z" fill="#E22613"/>
</g>
</g>
<g clip-path="url(#clip2_1045_4892)">
<path fill-rule="evenodd" clip-rule="evenodd" d="M804.852 45.7551L796.958 66.0089H803.633L804.595 63.3096H812.216L813.178 66.0089H819.852L811.958 45.7551H804.856H804.852ZM808.405 52.2568L810.656 58.5831H806.155L808.405 52.2568Z" fill="#E22613"/>
<path fill-rule="evenodd" clip-rule="evenodd" d="M841.414 45.7551V66.0089H857.176V60.9464H847.787V58.2435H856.842V53.5206H847.787V50.8177H857.176V45.7551H841.414Z" fill="#E22613"/>
<path fill-rule="evenodd" clip-rule="evenodd" d="M832.573 45.7551L827.84 59.0726L823.104 45.7551H816.397L824.287 66.0089H831.39L839.283 45.7551H832.573Z" fill="#E22613"/>
<path fill-rule="evenodd" clip-rule="evenodd" d="M788.419 45.7551V56.5961L781.08 45.7551H774.667V66.0089H781.04V55.1679L788.379 66.0089H794.792V62.1517V45.7551H788.419Z" fill="#E22613"/>
<path fill-rule="evenodd" clip-rule="evenodd" d="M870.118 55.2081H866.569V50.8213H870.1C871.04 50.8213 871.911 51.4094 872.191 52.3153C872.659 53.8238 871.548 55.2118 870.118 55.2118V55.2081ZM874.583 59.0617L875.192 58.806C877.53 57.8198 878.72 55.6903 878.72 52.9837C878.72 50.4268 877.794 48.5311 875.965 47.3586C874.267 46.2665 872.06 45.7588 869.026 45.7588H860.53V66.0126H866.903V60.2743H869.193L873.076 66.0126H879.667L874.579 59.0653L874.583 59.0617Z" fill="#E22613"/>
</g>
<defs>
<clipPath id="clip0_1045_4892">
<rect width="96" height="45.8164" fill="white" transform="translate(327.867 33.3256)"/>
</clipPath>
<clipPath id="clip1_1045_4892">
<rect width="105.3" height="36" fill="white" transform="translate(623.734 37.882)"/>
</clipPath>
<clipPath id="clip2_1045_4892">
<rect width="105" height="20.2538" fill="white" transform="translate(774.667 45.7551)"/>
</clipPath>
</defs>
</svg>
