<svg width="296" height="95" viewBox="0 0 296 95" fill="none" xmlns="http://www.w3.org/2000/svg">
<path d="M248.634 63.5C248.634 37.3761 265.404 21.9338 286.634 26.2064" stroke="#E22613" stroke-width="1.40625" stroke-miterlimit="10"/>
<path d="M291.238 69.6637C293.518 69.6637 295.367 67.8155 295.367 65.5355C295.367 63.2555 293.518 61.4072 291.238 61.4072C288.958 61.4072 287.11 63.2555 287.11 65.5355C287.11 67.8155 288.958 69.6637 291.238 69.6637Z" fill="#E22613"/>
<path d="M272.67 78.3282C273.587 78.3282 274.33 77.5851 274.33 76.6685C274.33 75.7519 273.587 75.0088 272.67 75.0088C271.754 75.0088 271.01 75.7519 271.01 76.6685C271.01 77.5851 271.754 78.3282 272.67 78.3282Z" fill="#E22613"/>
<path d="M209.634 93.2947C225.14 95.1581 238.903 66.47 261.491 78.4234" stroke="#E22613" stroke-width="1.40625" stroke-miterlimit="10"/>
<path d="M32.6335 7.68066C36.4742 21.3896 55.5457 31.7551 74.1258 22.1565" stroke="#E22613" stroke-width="1.40625" stroke-miterlimit="10"/>
<path d="M30.9337 3.10038C31.6518 3.10038 32.2339 2.51826 32.2339 1.80019C32.2339 1.08211 31.6518 0.5 30.9337 0.5C30.2157 0.5 29.6335 1.08211 29.6335 1.80019C29.6335 2.51826 30.2157 3.10038 30.9337 3.10038Z" fill="#E22613"/>
<path d="M36.3268 43.9841C38.4248 43.9841 40.1255 42.2834 40.1255 40.1854C40.1255 38.0875 38.4248 36.3867 36.3268 36.3867C34.2288 36.3867 32.5281 38.0875 32.5281 40.1854C32.5281 42.2834 34.2288 43.9841 36.3268 43.9841Z" fill="#E22613"/>
<path d="M0.633545 57.8542C28.1772 41.1974 65.1757 58.1718 75.703 87.7646" stroke="#E22613" stroke-width="1.40625" stroke-miterlimit="10"/>
<path d="M75.9373 57.5V34.875H84.8123C89.9685 34.875 92.906 38.0312 92.906 42.5C92.906 47.0312 89.906 50.125 84.6873 50.125H80.6248V57.5H75.9373ZM80.6248 46.3438H83.9373C86.7185 46.3438 88.0623 44.7812 88.0623 42.5C88.0623 40.25 86.7185 38.7188 83.9373 38.7188H80.6248V46.3438ZM95.5548 57.5V34.875H104.43C109.586 34.875 112.524 37.7812 112.524 42.25C112.524 45.3438 111.102 47.5938 108.524 48.6875L113.336 57.5H108.149L103.836 49.4688H100.242V57.5H95.5548ZM100.242 45.6562H103.555C106.336 45.6562 107.68 44.5 107.68 42.25C107.68 39.9688 106.336 38.7188 103.555 38.7188H100.242V45.6562ZM136.172 46.1875C136.172 53.5625 131.579 57.8125 125.61 57.8125C119.579 57.8125 115.016 53.5312 115.016 46.1875C115.016 38.8125 119.579 34.5625 125.61 34.5625C131.579 34.5625 136.172 38.8125 136.172 46.1875ZM131.391 46.1875C131.391 41.3438 129.11 38.7188 125.61 38.7188C122.11 38.7188 119.797 41.3438 119.797 46.1875C119.797 51.0312 122.11 53.6562 125.61 53.6562C129.11 53.6562 131.391 51.0312 131.391 46.1875ZM154.259 42.1562C153.634 40.0312 151.915 38.7188 149.446 38.7188C145.946 38.7188 143.571 41.4062 143.571 46.1562C143.571 50.9375 145.884 53.6562 149.477 53.6562C152.712 53.6562 154.634 51.8281 154.696 48.9688H149.79V45.4375H159.227V48.25C159.227 54.1875 155.165 57.8125 149.446 57.8125C143.102 57.8125 138.79 53.375 138.79 46.2188C138.79 38.875 143.384 34.5625 149.352 34.5625C154.446 34.5625 158.384 37.6875 159.009 42.1562H154.259ZM162.345 57.5V34.875H171.22C176.376 34.875 179.314 37.7812 179.314 42.25C179.314 45.3438 177.892 47.5938 175.314 48.6875L180.126 57.5H174.939L170.626 49.4688H167.032V57.5H162.345ZM167.032 45.6562H170.345C173.126 45.6562 174.47 44.5 174.47 42.25C174.47 39.9688 173.126 38.7188 170.345 38.7188H167.032V45.6562ZM186.025 57.5H180.962L188.806 34.875H194.837L202.65 57.5H197.619L195.931 52.2812H187.744L186.025 57.5ZM188.931 48.625H194.744L191.9 39.9688H191.744L188.931 48.625ZM204.892 34.875H210.705L216.986 50.2188H217.236L223.517 34.875H229.33V57.5H224.767V42.6875H224.58L218.674 57.4062H215.549L209.642 42.625H209.455V57.5H204.892V34.875Z" fill="#E22613"/>
</svg>
