<svg width="253" height="90" viewBox="0 0 253 90" fill="none" xmlns="http://www.w3.org/2000/svg">
<path d="M29.4209 7.06141C33.2616 20.7703 52.333 31.1359 70.9131 21.5373" stroke="#E22613" stroke-width="1.40625" stroke-miterlimit="10"/>
<path d="M27.7211 4.48113C28.4392 4.48113 29.0213 3.89901 29.0213 3.18094C29.0213 2.46286 28.4392 1.88075 27.7211 1.88075C27.003 1.88075 26.4209 2.46286 26.4209 3.18094C26.4209 3.89901 27.003 4.48113 27.7211 4.48113Z" fill="#E22613"/>
<path d="M23.1132 44.3644C25.2111 44.3644 26.9119 42.6637 26.9119 40.5657C26.9119 38.4677 25.2111 36.767 23.1132 36.767C21.0152 36.767 19.3145 38.4677 19.3145 40.5657C19.3145 42.6637 21.0152 44.3644 23.1132 44.3644Z" fill="#E22613"/>
<path d="M0.420898 57.2354C27.9646 40.5786 64.963 57.553 75.4904 87.1458" stroke="#E22613" stroke-width="1.40625" stroke-miterlimit="10"/>
<path d="M75.5052 55.5133L69.0365 32.8883H74.1615L77.974 48.7008H78.1615L82.3177 32.8883H86.724L90.8802 48.732H91.0677L94.8802 32.8883H100.005L93.5365 55.5133H88.9427L84.6302 40.5758H84.4427L80.099 55.5133H75.5052ZM121.529 44.2008C121.529 51.5758 116.935 55.8258 110.966 55.8258C104.935 55.8258 100.373 51.5445 100.373 44.2008C100.373 36.8258 104.935 32.5758 110.966 32.5758C116.935 32.5758 121.529 36.8258 121.529 44.2008ZM116.748 44.2008C116.748 39.357 114.466 36.732 110.966 36.732C107.466 36.732 105.154 39.357 105.154 44.2008C105.154 49.0445 107.466 51.6695 110.966 51.6695C114.466 51.6695 116.748 49.0445 116.748 44.2008ZM124.584 55.5133V32.8883H133.459C138.615 32.8883 141.553 35.7945 141.553 40.2633C141.553 43.357 140.131 45.607 137.553 46.7008L142.365 55.5133H137.178L132.865 47.482H129.271V55.5133H124.584ZM129.271 43.6695H132.584C135.365 43.6695 136.709 42.5133 136.709 40.2633C136.709 37.982 135.365 36.732 132.584 36.732H129.271V43.6695ZM144.483 55.5133V32.8883H149.17V42.9195H149.483L157.701 32.8883H163.358L154.92 43.0133L163.451 55.5133H157.826L151.545 46.1695L149.17 49.0445V55.5133H144.483ZM177.475 39.357C177.288 37.5758 175.85 36.5133 173.569 36.5133C171.194 36.5133 169.881 37.607 169.85 39.107C169.819 40.732 171.538 41.482 173.475 41.9195L175.506 42.4195C179.381 43.2945 182.288 45.2633 182.288 49.0445C182.288 53.2008 179.038 55.8258 173.538 55.8258C168.069 55.8258 164.569 53.2945 164.444 48.4508H169.006C169.163 50.732 170.975 51.8883 173.475 51.8883C175.944 51.8883 177.538 50.732 177.538 49.0445C177.538 47.5133 176.131 46.7945 173.663 46.1695L171.194 45.5758C167.381 44.6383 165.038 42.732 165.038 39.4195C165.038 35.2945 168.663 32.5758 173.6 32.5758C178.6 32.5758 181.913 35.357 181.975 39.357H177.475Z" fill="#E22613"/>
<path d="M205.49 60.0723C205.49 33.9483 222.261 18.506 243.49 22.7787" stroke="#E22613" stroke-width="1.40625" stroke-miterlimit="10"/>
<path d="M244.096 69.236C246.376 69.236 248.224 67.3877 248.224 65.1077C248.224 62.8278 246.376 60.9795 244.096 60.9795C241.816 60.9795 239.968 62.8278 239.968 65.1077C239.968 67.3877 241.816 69.236 244.096 69.236Z" fill="#E22613"/>
<path d="M229.527 77.9C230.443 77.9 231.187 77.1569 231.187 76.2402C231.187 75.3236 230.443 74.5806 229.527 74.5806C228.61 74.5806 227.867 75.3236 227.867 76.2402C227.867 77.1569 228.61 77.9 229.527 77.9Z" fill="#E22613"/>
<path d="M166.49 88.8669C181.997 90.7303 195.759 62.0423 218.348 73.9956" stroke="#E22613" stroke-width="1.40625" stroke-miterlimit="10"/>
</svg>
