<svg width="252" height="94" viewBox="0 0 252 94" fill="none" xmlns="http://www.w3.org/2000/svg">
<path d="M204.633 63C204.633 36.8761 221.404 21.4338 242.633 25.7064" stroke="#E22613" stroke-width="1.40625" stroke-miterlimit="10"/>
<path d="M247.239 69.1638C249.519 69.1638 251.367 67.3156 251.367 65.0356C251.367 62.7556 249.519 60.9073 247.239 60.9073C244.959 60.9073 243.11 62.7556 243.11 65.0356C243.11 67.3156 244.959 69.1638 247.239 69.1638Z" fill="#E22613"/>
<path d="M32.6333 7.18066C36.474 20.8896 55.5454 31.2551 74.1255 21.6565" stroke="#E22613" stroke-width="1.40625" stroke-miterlimit="10"/>
<path d="M30.9335 2.60038C31.6516 2.60038 32.2337 2.01826 32.2337 1.30019C32.2337 0.582114 31.6516 0 30.9335 0C30.2154 0 29.6333 0.582114 29.6333 1.30019C29.6333 2.01826 30.2154 2.60038 30.9335 2.60038Z" fill="#E22613"/>
<path d="M228.67 77.8278C229.587 77.8278 230.33 77.0847 230.33 76.1681C230.33 75.2515 229.587 74.5084 228.67 74.5084C227.753 74.5084 227.01 75.2515 227.01 76.1681C227.01 77.0847 227.753 77.8278 228.67 77.8278Z" fill="#E22613"/>
<path d="M36.3261 43.4838C38.424 43.4838 40.1248 41.783 40.1248 39.6851C40.1248 37.5871 38.424 35.8864 36.3261 35.8864C34.2281 35.8864 32.5273 37.5871 32.5273 39.6851C32.5273 41.783 34.2281 43.4838 36.3261 43.4838Z" fill="#E22613"/>
<path d="M165.633 92.7947C181.14 94.6581 194.903 65.97 217.491 77.9234" stroke="#E22613" stroke-width="1.40625" stroke-miterlimit="10"/>
<path d="M0.633301 57.3546C28.177 40.6978 65.1754 57.6721 75.7028 87.2649" stroke="#E22613" stroke-width="1.40625" stroke-miterlimit="10"/>
<path d="M69.2687 38.375H78.1437C79.8312 38.375 81.2844 38.6979 82.5031 39.3438C83.7219 39.9792 84.649 40.875 85.2844 42.0312C85.9198 43.1771 86.2375 44.5 86.2375 46C86.2375 47.5104 85.9094 48.8438 85.2531 50C84.6073 51.1458 83.6646 52.0365 82.425 52.6719C81.1958 53.3073 79.7271 53.625 78.0187 53.625H73.9562V61H69.2687V38.375ZM77.2687 49.8438C78.6229 49.8438 79.649 49.5 80.3469 48.8125C81.0448 48.1146 81.3937 47.1771 81.3937 46C81.3937 44.8333 81.0448 43.9115 80.3469 43.2344C79.649 42.5573 78.6229 42.2188 77.2687 42.2188H73.9562V49.8438H77.2687ZM88.8862 38.375H104.074V42.25H93.5737V47.75H103.292V51.625H93.5737V57.125H104.105V61H88.8862V38.375ZM128.129 49.6875C128.129 52.0833 127.67 54.1615 126.754 55.9219C125.837 57.6719 124.577 59.0104 122.972 59.9375C121.379 60.8542 119.577 61.3125 117.566 61.3125C115.545 61.3125 113.733 60.849 112.129 59.9219C110.525 58.9948 109.264 57.6562 108.347 55.9062C107.431 54.1458 106.972 52.0729 106.972 49.6875C106.972 47.2917 107.431 45.2188 108.347 43.4688C109.264 41.7083 110.525 40.3698 112.129 39.4531C113.733 38.526 115.545 38.0625 117.566 38.0625C119.577 38.0625 121.379 38.526 122.972 39.4531C124.577 40.3698 125.837 41.7083 126.754 43.4688C127.67 45.2188 128.129 47.2917 128.129 49.6875ZM123.347 49.6875C123.347 48.0938 123.108 46.7396 122.629 45.625C122.16 44.5104 121.493 43.6667 120.629 43.0938C119.764 42.5104 118.743 42.2188 117.566 42.2188C116.389 42.2188 115.363 42.5104 114.488 43.0938C113.624 43.6667 112.952 44.5156 112.472 45.6406C111.993 46.7552 111.754 48.1042 111.754 49.6875C111.754 51.2708 111.993 52.625 112.472 53.75C112.952 54.8646 113.624 55.7135 114.488 56.2969C115.363 56.8698 116.389 57.1562 117.566 57.1562C118.743 57.1562 119.764 56.8698 120.629 56.2969C121.493 55.7135 122.16 54.8646 122.629 53.75C123.108 52.6354 123.347 51.2812 123.347 49.6875ZM131.184 38.375H140.059C141.746 38.375 143.199 38.6979 144.418 39.3438C145.637 39.9792 146.564 40.875 147.199 42.0312C147.835 43.1771 148.153 44.5 148.153 46C148.153 47.5104 147.824 48.8438 147.168 50C146.522 51.1458 145.58 52.0365 144.34 52.6719C143.111 53.3073 141.642 53.625 139.934 53.625H135.871V61H131.184V38.375ZM139.184 49.8438C140.538 49.8438 141.564 49.5 142.262 48.8125C142.96 48.1146 143.309 47.1771 143.309 46C143.309 44.8333 142.96 43.9115 142.262 43.2344C141.564 42.5573 140.538 42.2188 139.184 42.2188H135.871V49.8438H139.184ZM150.801 38.375H155.489V57.125H165.239V61H150.801V38.375ZM167.95 38.375H183.137V42.25H172.637V47.75H182.356V51.625H172.637V57.125H183.169V61H167.95V38.375Z" fill="#E22613"/>
</svg>
