<svg width="252" height="95" viewBox="0 0 252 95" fill="none" xmlns="http://www.w3.org/2000/svg">
<path d="M205.134 63.5C205.134 37.3761 221.904 21.9338 243.134 26.2064" stroke="#E22613" stroke-width="1.40625" stroke-miterlimit="10"/>
<path d="M247.739 69.6638C250.019 69.6638 251.867 67.8156 251.867 65.5356C251.867 63.2556 250.019 61.4073 247.739 61.4073C245.459 61.4073 243.61 63.2556 243.61 65.5356C243.61 67.8156 245.459 69.6638 247.739 69.6638Z" fill="#E22613"/>
<path d="M33.1338 7.68066C36.9744 21.3896 56.0459 31.7551 74.626 22.1565" stroke="#E22613" stroke-width="1.40625" stroke-miterlimit="10"/>
<path d="M31.434 3.10038C32.1521 3.10038 32.7342 2.51826 32.7342 1.80019C32.7342 1.08211 32.1521 0.5 31.434 0.5C30.7159 0.5 30.1338 1.08211 30.1338 1.80019C30.1338 2.51826 30.7159 3.10038 31.434 3.10038Z" fill="#E22613"/>
<path d="M229.17 78.3278C230.087 78.3278 230.83 77.5847 230.83 76.6681C230.83 75.7515 230.087 75.0084 229.17 75.0084C228.254 75.0084 227.511 75.7515 227.511 76.6681C227.511 77.5847 228.254 78.3278 229.17 78.3278Z" fill="#E22613"/>
<path d="M36.8261 43.9838C38.924 43.9838 40.6248 42.283 40.6248 40.1851C40.6248 38.0871 38.924 36.3864 36.8261 36.3864C34.7281 36.3864 33.0273 38.0871 33.0273 40.1851C33.0273 42.283 34.7281 43.9838 36.8261 43.9838Z" fill="#E22613"/>
<path d="M166.134 93.2947C181.64 95.1581 195.403 66.47 217.992 78.4234" stroke="#E22613" stroke-width="1.40625" stroke-miterlimit="10"/>
<path d="M1.13379 57.8546C28.6774 41.1978 65.6759 58.1721 76.2033 87.7649" stroke="#E22613" stroke-width="1.40625" stroke-miterlimit="10"/>
<path d="M80.6712 57.9409L88.515 35.3159H94.5462L102.359 57.9409H97.3275L95.6244 52.7222H87.4369L85.7337 57.9409H80.6712ZM94.4369 49.0659L91.6087 40.4097H91.4525L88.6244 49.0659H94.4369ZM104.601 35.3159H113.601C115.226 35.3159 116.601 35.5607 117.726 36.0503C118.851 36.5399 119.695 37.2222 120.257 38.0972C120.82 38.9618 121.101 39.9722 121.101 41.1284C121.101 42.4097 120.726 43.467 119.976 44.3003C119.237 45.1336 118.257 45.6909 117.039 45.9722V46.1909C117.914 46.2326 118.726 46.4826 119.476 46.9409C120.237 47.3993 120.846 48.0399 121.304 48.8628C121.773 49.6753 122.007 50.618 122.007 51.6909C122.007 52.9097 121.705 53.9878 121.101 54.9253C120.507 55.8628 119.622 56.6024 118.445 57.144C117.278 57.6753 115.862 57.9409 114.195 57.9409H104.601V35.3159ZM113.257 54.0659C114.57 54.0659 115.544 53.8211 116.179 53.3315C116.815 52.8315 117.132 52.1388 117.132 51.2534C117.132 50.618 116.976 50.0555 116.664 49.5659C116.362 49.0763 115.929 48.6961 115.367 48.4253C114.804 48.144 114.143 48.0034 113.382 48.0034H109.289V54.0659H113.257ZM112.914 44.7847C113.57 44.7847 114.159 44.6701 114.679 44.4409C115.2 44.2013 115.606 43.8628 115.898 43.4253C116.2 42.9878 116.351 42.4722 116.351 41.8784C116.351 41.0451 116.054 40.3784 115.461 39.8784C114.877 39.3784 114.06 39.1284 113.007 39.1284H109.289V44.7847H112.914ZM145.375 46.6284C145.375 49.0243 144.917 51.1024 144 52.8628C143.083 54.6128 141.823 55.9513 140.219 56.8784C138.625 57.7951 136.823 58.2534 134.812 58.2534C132.792 58.2534 130.979 57.7899 129.375 56.8628C127.771 55.9357 126.51 54.5972 125.594 52.8472C124.677 51.0868 124.219 49.0138 124.219 46.6284C124.219 44.2326 124.677 42.1597 125.594 40.4097C126.51 38.6493 127.771 37.3107 129.375 36.394C130.979 35.467 132.792 35.0034 134.812 35.0034C136.823 35.0034 138.625 35.467 140.219 36.394C141.823 37.3107 143.083 38.6493 144 40.4097C144.917 42.1597 145.375 44.2326 145.375 46.6284ZM140.594 46.6284C140.594 45.0347 140.354 43.6805 139.875 42.5659C139.406 41.4513 138.74 40.6076 137.875 40.0347C137.01 39.4513 135.99 39.1597 134.812 39.1597C133.635 39.1597 132.609 39.4513 131.734 40.0347C130.87 40.6076 130.198 41.4565 129.719 42.5815C129.24 43.6961 129 45.0451 129 46.6284C129 48.2118 129.24 49.5659 129.719 50.6909C130.198 51.8055 130.87 52.6545 131.734 53.2378C132.609 53.8107 133.635 54.0972 134.812 54.0972C135.99 54.0972 137.01 53.8107 137.875 53.2378C138.74 52.6545 139.406 51.8055 139.875 50.6909C140.354 49.5763 140.594 48.2222 140.594 46.6284ZM167.149 35.3159V50.0034C167.149 51.6388 166.758 53.0815 165.977 54.3315C165.196 55.5815 164.097 56.5503 162.68 57.2378C161.263 57.9149 159.628 58.2534 157.774 58.2534C155.92 58.2534 154.284 57.9149 152.868 57.2378C151.461 56.5503 150.368 55.5815 149.586 54.3315C148.815 53.0815 148.43 51.6388 148.43 50.0034V35.3159H153.118V49.6284C153.118 50.493 153.31 51.269 153.696 51.9565C154.081 52.6336 154.628 53.1649 155.336 53.5503C156.045 53.9357 156.857 54.1284 157.774 54.1284C158.701 54.1284 159.519 53.9357 160.227 53.5503C160.935 53.1649 161.477 52.6336 161.852 51.9565C162.237 51.269 162.43 50.493 162.43 49.6284V35.3159H167.149ZM169.766 35.3159H188.298V39.1909H181.36V57.9409H176.704V39.1909H169.766V35.3159Z" fill="#E22613"/>
</svg>
