<svg width="296" height="90" viewBox="0 0 296 90" fill="none" xmlns="http://www.w3.org/2000/svg">
<path d="M29.4209 7.06141C33.2616 20.7703 52.333 31.1359 70.9131 21.5373" stroke="#E22613" stroke-width="1.40625" stroke-miterlimit="10"/>
<path d="M27.7211 4.48113C28.4392 4.48113 29.0213 3.89901 29.0213 3.18094C29.0213 2.46286 28.4392 1.88075 27.7211 1.88075C27.003 1.88075 26.4209 2.46286 26.4209 3.18094C26.4209 3.89901 27.003 4.48113 27.7211 4.48113Z" fill="#E22613"/>
<path d="M23.1132 44.3644C25.2111 44.3644 26.9119 42.6637 26.9119 40.5657C26.9119 38.4677 25.2111 36.767 23.1132 36.767C21.0152 36.767 19.3145 38.4677 19.3145 40.5657C19.3145 42.6637 21.0152 44.3644 23.1132 44.3644Z" fill="#E22613"/>
<path d="M0.420898 57.2354C27.9646 40.5786 64.963 57.553 75.4904 87.1458" stroke="#E22613" stroke-width="1.40625" stroke-miterlimit="10"/>
<path d="M70.794 55.5133V32.8883H79.669C84.8252 32.8883 87.7627 36.0445 87.7627 40.5133C87.7627 45.0445 84.7627 48.1383 79.544 48.1383H75.4815V55.5133H70.794ZM75.4815 44.357H78.794C81.5752 44.357 82.919 42.7945 82.919 40.5133C82.919 38.2633 81.5752 36.732 78.794 36.732H75.4815V44.357ZM90.4115 55.5133V32.8883H99.2865C104.443 32.8883 107.38 35.7945 107.38 40.2633C107.38 43.357 105.958 45.607 103.38 46.7008L108.193 55.5133H103.005L98.6927 47.482H95.099V55.5133H90.4115ZM95.099 43.6695H98.4115C101.193 43.6695 102.536 42.5133 102.536 40.2633C102.536 37.982 101.193 36.732 98.4115 36.732H95.099V43.6695ZM131.029 44.2008C131.029 51.5758 126.435 55.8258 120.466 55.8258C114.435 55.8258 109.873 51.5445 109.873 44.2008C109.873 36.8258 114.435 32.5758 120.466 32.5758C126.435 32.5758 131.029 36.8258 131.029 44.2008ZM126.248 44.2008C126.248 39.357 123.966 36.732 120.466 36.732C116.966 36.732 114.654 39.357 114.654 44.2008C114.654 49.0445 116.966 51.6695 120.466 51.6695C123.966 51.6695 126.248 49.0445 126.248 44.2008ZM149.115 40.1695C148.49 38.0445 146.771 36.732 144.303 36.732C140.803 36.732 138.428 39.4195 138.428 44.1695C138.428 48.9508 140.74 51.6695 144.334 51.6695C147.568 51.6695 149.49 49.8414 149.553 46.982H144.646V43.4508H154.084V46.2633C154.084 52.2008 150.021 55.8258 144.303 55.8258C137.959 55.8258 133.646 51.3883 133.646 44.232C133.646 36.8883 138.24 32.5758 144.209 32.5758C149.303 32.5758 153.24 35.7008 153.865 40.1695H149.115ZM157.201 55.5133V32.8883H166.076C171.233 32.8883 174.17 35.7945 174.17 40.2633C174.17 43.357 172.748 45.607 170.17 46.7008L174.983 55.5133H169.795L165.483 47.482H161.889V55.5133H157.201ZM161.889 43.6695H165.201C167.983 43.6695 169.326 42.5133 169.326 40.2633C169.326 37.982 167.983 36.732 165.201 36.732H161.889V43.6695ZM180.881 55.5133H175.819L183.663 32.8883H189.694L197.506 55.5133H192.475L190.788 50.2945H182.6L180.881 55.5133ZM183.788 46.6383H189.6L186.756 37.982H186.6L183.788 46.6383ZM199.749 32.8883H205.561L211.843 48.232H212.093L218.374 32.8883H224.186V55.5133H219.624V40.7008H219.436L213.53 55.4195H210.405L204.499 40.6383H204.311V55.5133H199.749V32.8883Z" fill="#E22613"/>
<path d="M248.49 60.0723C248.49 33.9483 265.261 18.506 286.49 22.7787" stroke="#E22613" stroke-width="1.40625" stroke-miterlimit="10"/>
<path d="M287.096 69.236C289.376 69.236 291.224 67.3877 291.224 65.1077C291.224 62.8278 289.376 60.9795 287.096 60.9795C284.816 60.9795 282.968 62.8278 282.968 65.1077C282.968 67.3877 284.816 69.236 287.096 69.236Z" fill="#E22613"/>
<path d="M272.527 77.9C273.443 77.9 274.187 77.1569 274.187 76.2402C274.187 75.3236 273.443 74.5806 272.527 74.5806C271.61 74.5806 270.867 75.3236 270.867 76.2402C270.867 77.1569 271.61 77.9 272.527 77.9Z" fill="#E22613"/>
<path d="M209.49 88.8669C224.997 90.7303 238.759 62.0423 261.348 73.9956" stroke="#E22613" stroke-width="1.40625" stroke-miterlimit="10"/>
</svg>
