<svg width="256" height="90" viewBox="0 0 256 90" fill="none" xmlns="http://www.w3.org/2000/svg">
<path d="M29.9209 7.06141C33.7616 20.7703 52.833 31.1359 71.4131 21.5373" stroke="#E22613" stroke-width="1.40625" stroke-miterlimit="10"/>
<path d="M28.2211 4.48113C28.9392 4.48113 29.5213 3.89901 29.5213 3.18094C29.5213 2.46286 28.9392 1.88075 28.2211 1.88075C27.503 1.88075 26.9209 2.46286 26.9209 3.18094C26.9209 3.89901 27.503 4.48113 28.2211 4.48113Z" fill="#E22613"/>
<path d="M23.6132 44.3644C25.7111 44.3644 27.4119 42.6637 27.4119 40.5657C27.4119 38.4677 25.7111 36.767 23.6132 36.767C21.5152 36.767 19.8145 38.4677 19.8145 40.5657C19.8145 42.6637 21.5152 44.3644 23.6132 44.3644Z" fill="#E22613"/>
<path d="M0.920898 57.2354C28.4646 40.5786 65.463 57.553 75.9904 87.1458" stroke="#E22613" stroke-width="1.40625" stroke-miterlimit="10"/>
<path d="M71.134 55.5133V32.8883H80.009C85.1652 32.8883 88.1027 36.0445 88.1027 40.5133C88.1027 45.0445 85.1027 48.1383 79.884 48.1383H75.8215V55.5133H71.134ZM75.8215 44.357H79.134C81.9152 44.357 83.259 42.7945 83.259 40.5133C83.259 38.2633 81.9152 36.732 79.134 36.732H75.8215V44.357ZM90.7515 55.5133V32.8883H105.939V36.7633H95.439V42.2633H105.158V46.1383H95.439V51.6383H105.97V55.5133H90.7515ZM129.994 44.2008C129.994 51.5758 125.4 55.8258 119.431 55.8258C113.4 55.8258 108.838 51.5445 108.838 44.2008C108.838 36.8258 113.4 32.5758 119.431 32.5758C125.4 32.5758 129.994 36.8258 129.994 44.2008ZM125.213 44.2008C125.213 39.357 122.931 36.732 119.431 36.732C115.931 36.732 113.619 39.357 113.619 44.2008C113.619 49.0445 115.931 51.6695 119.431 51.6695C122.931 51.6695 125.213 49.0445 125.213 44.2008ZM133.049 55.5133V32.8883H141.924C147.08 32.8883 150.018 36.0445 150.018 40.5133C150.018 45.0445 147.018 48.1383 141.799 48.1383H137.736V55.5133H133.049ZM137.736 44.357H141.049C143.83 44.357 145.174 42.7945 145.174 40.5133C145.174 38.2633 143.83 36.732 141.049 36.732H137.736V44.357ZM152.666 55.5133V32.8883H157.354V51.6383H167.104V55.5133H152.666ZM169.815 55.5133V32.8883H185.003V36.7633H174.503V42.2633H184.221V46.1383H174.503V51.6383H185.034V55.5133H169.815Z" fill="#E22613"/>
<path d="M208.99 60.0723C208.99 33.9483 225.761 18.506 246.99 22.7787" stroke="#E22613" stroke-width="1.40625" stroke-miterlimit="10"/>
<path d="M247.596 69.236C249.876 69.236 251.724 67.3877 251.724 65.1077C251.724 62.8278 249.876 60.9795 247.596 60.9795C245.316 60.9795 243.468 62.8278 243.468 65.1077C243.468 67.3877 245.316 69.236 247.596 69.236Z" fill="#E22613"/>
<path d="M233.027 77.9C233.943 77.9 234.687 77.1569 234.687 76.2402C234.687 75.3236 233.943 74.5806 233.027 74.5806C232.11 74.5806 231.367 75.3236 231.367 76.2402C231.367 77.1569 232.11 77.9 233.027 77.9Z" fill="#E22613"/>
<path d="M169.99 88.8669C185.497 90.7303 199.259 62.0423 221.848 73.9956" stroke="#E22613" stroke-width="1.40625" stroke-miterlimit="10"/>
</svg>
