<svg width="299" height="90" viewBox="0 0 299 90" fill="none" xmlns="http://www.w3.org/2000/svg">
<path d="M29.9209 7.39343C33.7616 21.1023 52.833 31.4679 71.4131 21.8693" stroke="#E22613" stroke-width="1.40625" stroke-miterlimit="10"/>
<path d="M28.2211 4.81315C28.9392 4.81315 29.5213 4.23103 29.5213 3.51296C29.5213 2.79488 28.9392 2.21277 28.2211 2.21277C27.503 2.21277 26.9209 2.79488 26.9209 3.51296C26.9209 4.23103 27.503 4.81315 28.2211 4.81315Z" fill="#E22613"/>
<path d="M23.6132 44.6964C25.7111 44.6964 27.4119 42.9957 27.4119 40.8977C27.4119 38.7997 25.7111 37.099 23.6132 37.099C21.5152 37.099 19.8145 38.7997 19.8145 40.8977C19.8145 42.9957 21.5152 44.6964 23.6132 44.6964Z" fill="#E22613"/>
<path d="M0.920898 57.5675C28.4646 40.9106 65.463 57.885 75.9904 87.4778" stroke="#E22613" stroke-width="1.40625" stroke-miterlimit="10"/>
<path d="M71.0321 55.8453V33.2203H79.9071C85.0634 33.2203 88.0009 36.3766 88.0009 40.8453C88.0009 45.3766 85.0009 48.4703 79.7821 48.4703H75.7196V55.8453H71.0321ZM75.7196 44.6891H79.0321C81.8134 44.6891 83.1571 43.1266 83.1571 40.8453C83.1571 38.5953 81.8134 37.0641 79.0321 37.0641H75.7196V44.6891ZM91.8059 55.8453H86.7434L94.5871 33.2203H100.618L108.431 55.8453H103.4L101.712 50.6266H93.5246L91.8059 55.8453ZM94.7121 46.9703H100.525L97.6809 38.3141H97.5246L94.7121 46.9703ZM110.673 55.8453V33.2203H119.548C124.705 33.2203 127.642 36.1266 127.642 40.5953C127.642 43.6891 126.22 45.9391 123.642 47.0328L128.455 55.8453H123.267L118.955 47.8141H115.361V55.8453H110.673ZM115.361 44.0016H118.673C121.455 44.0016 122.798 42.8453 122.798 40.5953C122.798 38.3141 121.455 37.0641 118.673 37.0641H115.361V44.0016ZM129.697 37.0953V33.2203H148.228V37.0953H141.291V55.8453H136.635V37.0953H129.697ZM169.69 33.2203V55.8453H165.627L155.69 41.4703H155.502V55.8453H150.815V33.2203H154.94L164.815 47.5953H165.033V33.2203H169.69ZM173.182 55.8453V33.2203H188.37V37.0953H177.87V42.5953H187.588V46.4703H177.87V51.9703H188.401V55.8453H173.182ZM191.706 55.8453V33.2203H200.581C205.737 33.2203 208.675 36.1266 208.675 40.5953C208.675 43.6891 207.253 45.9391 204.675 47.0328L209.487 55.8453H204.3L199.987 47.8141H196.393V55.8453H191.706ZM196.393 44.0016H199.706C202.487 44.0016 203.831 42.8453 203.831 40.5953C203.831 38.3141 202.487 37.0641 199.706 37.0641H196.393V44.0016ZM223.886 39.6891C223.698 37.9078 222.261 36.8453 219.98 36.8453C217.605 36.8453 216.292 37.9391 216.261 39.4391C216.23 41.0641 217.948 41.8141 219.886 42.2516L221.917 42.7516C225.792 43.6266 228.698 45.5953 228.698 49.3766C228.698 53.5328 225.448 56.1578 219.948 56.1578C214.48 56.1578 210.98 53.6266 210.855 48.7828H215.417C215.573 51.0641 217.386 52.2203 219.886 52.2203C222.355 52.2203 223.948 51.0641 223.948 49.3766C223.948 47.8453 222.542 47.1266 220.073 46.5016L217.605 45.9078C213.792 44.9703 211.448 43.0641 211.448 39.7516C211.448 35.6266 215.073 32.9078 220.011 32.9078C225.011 32.9078 228.323 35.6891 228.386 39.6891H223.886Z" fill="#E22613"/>
<path d="M251.99 60.4043C251.99 34.2804 268.761 18.8381 289.99 23.1107" stroke="#E22613" stroke-width="1.40625" stroke-miterlimit="10"/>
<path d="M290.596 69.568C292.876 69.568 294.724 67.7197 294.724 65.4398C294.724 63.1598 292.876 61.3115 290.596 61.3115C288.316 61.3115 286.468 63.1598 286.468 65.4398C286.468 67.7197 288.316 69.568 290.596 69.568Z" fill="#E22613"/>
<path d="M276.027 78.232C276.943 78.232 277.687 77.4889 277.687 76.5723C277.687 75.6557 276.943 74.9126 276.027 74.9126C275.11 74.9126 274.367 75.6557 274.367 76.5723C274.367 77.4889 275.11 78.232 276.027 78.232Z" fill="#E22613"/>
<path d="M212.99 89.1989C228.497 91.0624 242.259 62.3743 264.848 74.3276" stroke="#E22613" stroke-width="1.40625" stroke-miterlimit="10"/>
</svg>
