<svg width="252" height="94" viewBox="0 0 252 94" fill="none" xmlns="http://www.w3.org/2000/svg">
<path d="M205.134 63C205.134 36.8761 221.904 21.4338 243.134 25.7064" stroke="#E22613" stroke-width="1.40625" stroke-miterlimit="10"/>
<path d="M247.739 69.164C250.019 69.164 251.867 67.3157 251.867 65.0357C251.867 62.7558 250.019 60.9075 247.739 60.9075C245.459 60.9075 243.61 62.7558 243.61 65.0357C243.61 67.3157 245.459 69.164 247.739 69.164Z" fill="#E22613"/>
<path d="M33.1338 7.18066C36.9744 20.8896 56.0459 31.2551 74.626 21.6565" stroke="#E22613" stroke-width="1.40625" stroke-miterlimit="10"/>
<path d="M31.434 2.60038C32.1521 2.60038 32.7342 2.01826 32.7342 1.30019C32.7342 0.582114 32.1521 0 31.434 0C30.7159 0 30.1338 0.582114 30.1338 1.30019C30.1338 2.01826 30.7159 2.60038 31.434 2.60038Z" fill="#E22613"/>
<path d="M229.17 77.8277C230.087 77.8277 230.83 77.0846 230.83 76.168C230.83 75.2514 230.087 74.5083 229.17 74.5083C228.254 74.5083 227.511 75.2514 227.511 76.168C227.511 77.0846 228.254 77.8277 229.17 77.8277Z" fill="#E22613"/>
<path d="M36.8261 43.4839C38.924 43.4839 40.6248 41.7832 40.6248 39.6852C40.6248 37.5872 38.924 35.8865 36.8261 35.8865C34.7281 35.8865 33.0273 37.5872 33.0273 39.6852C33.0273 41.7832 34.7281 43.4839 36.8261 43.4839Z" fill="#E22613"/>
<path d="M166.134 92.7947C181.64 94.6581 195.403 65.97 217.992 77.9234" stroke="#E22613" stroke-width="1.40625" stroke-miterlimit="10"/>
<path d="M1.13379 57.3544C28.6774 40.6976 65.6759 57.672 76.2033 87.2648" stroke="#E22613" stroke-width="1.40625" stroke-miterlimit="10"/>
<path d="M85.9719 41.2847C85.7844 39.5034 84.3469 38.4409 82.0656 38.4409C79.6906 38.4409 78.3781 39.5347 78.3469 41.0347C78.3156 42.6597 80.0344 43.4097 81.9719 43.8472L84.0031 44.3472C87.8781 45.2222 90.7844 47.1909 90.7844 50.9722C90.7844 55.1284 87.5344 57.7534 82.0344 57.7534C76.5656 57.7534 73.0656 55.2222 72.9406 50.3784H77.5031C77.6594 52.6597 79.4719 53.8159 81.9719 53.8159C84.4406 53.8159 86.0344 52.6597 86.0344 50.9722C86.0344 49.4409 84.6281 48.7222 82.1594 48.0972L79.6906 47.5034C75.8781 46.5659 73.5344 44.6597 73.5344 41.3472C73.5344 37.2222 77.1594 34.5034 82.0969 34.5034C87.0969 34.5034 90.4094 37.2847 90.4719 41.2847H85.9719ZM93.5269 57.4409V34.8159H108.714V38.6909H98.2144V44.1909H107.933V48.0659H98.2144V53.5659H108.746V57.4409H93.5269ZM115.832 57.4409H110.769L118.613 34.8159H124.644L132.457 57.4409H127.426L125.738 52.2222H117.551L115.832 57.4409ZM118.738 48.5659H124.551L121.707 39.9097H121.551L118.738 48.5659ZM134.699 57.4409V34.8159H143.574C148.731 34.8159 151.668 37.7222 151.668 42.1909C151.668 45.2847 150.246 47.5347 147.668 48.6284L152.481 57.4409H147.293L142.981 49.4097H139.387V57.4409H134.699ZM139.387 45.5972H142.699C145.481 45.5972 146.824 44.4409 146.824 42.1909C146.824 39.9097 145.481 38.6597 142.699 38.6597H139.387V45.5972ZM169.723 42.6909C169.348 40.1909 167.411 38.6597 164.786 38.6597C161.254 38.6597 158.942 41.3784 158.942 46.1284C158.942 51.0034 161.286 53.5972 164.754 53.5972C167.348 53.5972 169.254 52.1597 169.723 49.7222L174.473 49.7534C173.942 53.9409 170.442 57.7534 164.692 57.7534C158.629 57.7534 154.161 53.5034 154.161 46.1284C154.161 38.7534 158.723 34.5034 164.692 34.5034C169.911 34.5034 173.848 37.5034 174.473 42.6909H169.723ZM177.434 57.4409V34.8159H182.122V44.1909H191.934V34.8159H196.653V57.4409H191.934V48.0659H182.122V57.4409H177.434Z" fill="#E22613"/>
</svg>
