<svg width="252" height="95" viewBox="0 0 252 95" fill="none" xmlns="http://www.w3.org/2000/svg">
<path d="M204.633 63.5C204.633 37.3761 221.404 21.9338 242.633 26.2064" stroke="#E22613" stroke-width="1.40625" stroke-miterlimit="10"/>
<path d="M247.239 69.6638C249.519 69.6638 251.367 67.8156 251.367 65.5356C251.367 63.2556 249.519 61.4073 247.239 61.4073C244.959 61.4073 243.11 63.2556 243.11 65.5356C243.11 67.8156 244.959 69.6638 247.239 69.6638Z" fill="#E22613"/>
<path d="M32.6333 7.68066C36.474 21.3896 55.5454 31.7551 74.1255 22.1565" stroke="#E22613" stroke-width="1.40625" stroke-miterlimit="10"/>
<path d="M30.9335 3.10038C31.6516 3.10038 32.2337 2.51826 32.2337 1.80019C32.2337 1.08211 31.6516 0.5 30.9335 0.5C30.2154 0.5 29.6333 1.08211 29.6333 1.80019C29.6333 2.51826 30.2154 3.10038 30.9335 3.10038Z" fill="#E22613"/>
<path d="M228.67 78.3278C229.587 78.3278 230.33 77.5847 230.33 76.6681C230.33 75.7515 229.587 75.0084 228.67 75.0084C227.753 75.0084 227.01 75.7515 227.01 76.6681C227.01 77.5847 227.753 78.3278 228.67 78.3278Z" fill="#E22613"/>
<path d="M36.3261 43.9838C38.424 43.9838 40.1248 42.283 40.1248 40.1851C40.1248 38.0871 38.424 36.3864 36.3261 36.3864C34.2281 36.3864 32.5273 38.0871 32.5273 40.1851C32.5273 42.283 34.2281 43.9838 36.3261 43.9838Z" fill="#E22613"/>
<path d="M165.633 93.2947C181.14 95.1581 194.903 66.47 217.491 78.4234" stroke="#E22613" stroke-width="1.40625" stroke-miterlimit="10"/>
<path d="M0.633301 57.8546C28.177 41.1978 65.1754 58.1721 75.7028 87.7649" stroke="#E22613" stroke-width="1.40625" stroke-miterlimit="10"/>
<path d="M84.1864 57.9409L77.7176 35.3159H82.8426L86.6551 51.1284H86.8426L90.9989 35.3159H95.4051L99.5614 51.1597H99.7489L103.561 35.3159H108.686L102.218 57.9409H97.6239L93.3114 43.0034H93.1239L88.7801 57.9409H84.1864ZM130.21 46.6284C130.21 54.0034 125.616 58.2534 119.648 58.2534C113.616 58.2534 109.054 53.9722 109.054 46.6284C109.054 39.2534 113.616 35.0034 119.648 35.0034C125.616 35.0034 130.21 39.2534 130.21 46.6284ZM125.429 46.6284C125.429 41.7847 123.148 39.1597 119.648 39.1597C116.148 39.1597 113.835 41.7847 113.835 46.6284C113.835 51.4722 116.148 54.0972 119.648 54.0972C123.148 54.0972 125.429 51.4722 125.429 46.6284ZM133.265 57.9409V35.3159H142.14C147.296 35.3159 150.234 38.2222 150.234 42.6909C150.234 45.7847 148.812 48.0347 146.234 49.1284L151.046 57.9409H145.859L141.546 49.9097H137.953V57.9409H133.265ZM137.953 46.0972H141.265C144.046 46.0972 145.39 44.9409 145.39 42.6909C145.39 40.4097 144.046 39.1597 141.265 39.1597H137.953V46.0972ZM153.164 57.9409V35.3159H157.851V45.3472H158.164L166.383 35.3159H172.039L163.601 45.4409L172.133 57.9409H166.508L160.226 48.5972L157.851 51.4722V57.9409H153.164ZM186.156 41.7847C185.969 40.0034 184.531 38.9409 182.25 38.9409C179.875 38.9409 178.563 40.0347 178.531 41.5347C178.5 43.1597 180.219 43.9097 182.156 44.3472L184.188 44.8472C188.063 45.7222 190.969 47.6909 190.969 51.4722C190.969 55.6284 187.719 58.2534 182.219 58.2534C176.75 58.2534 173.25 55.7222 173.125 50.8784H177.688C177.844 53.1597 179.656 54.3159 182.156 54.3159C184.625 54.3159 186.219 53.1597 186.219 51.4722C186.219 49.9409 184.813 49.2222 182.344 48.5972L179.875 48.0034C176.063 47.0659 173.719 45.1597 173.719 41.8472C173.719 37.7222 177.344 35.0034 182.281 35.0034C187.281 35.0034 190.594 37.7847 190.656 41.7847H186.156Z" fill="#E22613"/>
</svg>
