<svg width="265" height="90" viewBox="0 0 265 90" fill="none" xmlns="http://www.w3.org/2000/svg">
<path d="M30 7.39343C33.8407 21.1023 52.9121 31.4679 71.4922 21.8693" stroke="#E22613" stroke-width="1.40625" stroke-miterlimit="10"/>
<path d="M28.3002 4.81315C29.0183 4.81315 29.6004 4.23103 29.6004 3.51296C29.6004 2.79488 29.0183 2.21277 28.3002 2.21277C27.5821 2.21277 27 2.79488 27 3.51296C27 4.23103 27.5821 4.81315 28.3002 4.81315Z" fill="#E22613"/>
<path d="M23.6923 44.6964C25.7902 44.6964 27.491 42.9957 27.491 40.8977C27.491 38.7997 25.7902 37.099 23.6923 37.099C21.5943 37.099 19.8936 38.7997 19.8936 40.8977C19.8936 42.9957 21.5943 44.6964 23.6923 44.6964Z" fill="#E22613"/>
<path d="M1 57.5675C28.5437 40.9106 65.5421 57.885 76.0695 87.4778" stroke="#E22613" stroke-width="1.40625" stroke-miterlimit="10"/>
<path d="M83.3693 39.6891C83.2756 38.7932 82.885 38.0953 82.1975 37.5953C81.51 37.0953 80.5985 36.8453 79.4631 36.8453C78.6818 36.8453 78.01 36.9599 77.4475 37.1891C76.8954 37.4078 76.4735 37.7151 76.1818 38.1109C75.8902 38.5068 75.7443 38.9599 75.7443 39.4703C75.7443 40.1995 76.0725 40.7828 76.7287 41.2203C77.385 41.6578 78.2652 42.0016 79.3693 42.2516L81.4006 42.7516C83.4943 43.2203 85.1454 43.9963 86.3537 45.0797C87.5725 46.1526 88.1818 47.5849 88.1818 49.3766C88.1818 50.762 87.8329 51.9651 87.135 52.9859C86.437 53.9963 85.4318 54.7776 84.1193 55.3297C82.8068 55.8818 81.2443 56.1578 79.4318 56.1578C77.5985 56.1578 76.0048 55.8766 74.6506 55.3141C73.3068 54.7516 72.26 53.9234 71.51 52.8297C70.7704 51.7255 70.3798 50.3766 70.3381 48.7828H74.9006C74.9735 49.8974 75.411 50.7516 76.2131 51.3453C77.0256 51.9286 78.0777 52.2203 79.3693 52.2203C80.1818 52.2203 80.8954 52.1005 81.51 51.8609C82.1245 51.6213 82.5985 51.288 82.9318 50.8609C83.2652 50.4338 83.4318 49.9391 83.4318 49.3766C83.4318 48.6474 83.1141 48.0693 82.4787 47.6422C81.8537 47.2151 80.8798 46.8349 79.5568 46.5016L77.0881 45.9078C72.9839 44.8974 70.9318 42.8453 70.9318 39.7516C70.9318 38.3974 71.2964 37.2047 72.0256 36.1734C72.7652 35.1318 73.786 34.3297 75.0881 33.7672C76.3902 33.1943 77.8589 32.9078 79.4943 32.9078C81.1402 32.9078 82.5933 33.1943 83.8537 33.7672C85.1141 34.3401 86.0933 35.1422 86.7912 36.1734C87.4891 37.1943 87.8485 38.3661 87.8693 39.6891H83.3693ZM90.9243 33.2203H106.112V37.0953H95.6118V42.5953H105.331V46.4703H95.6118V51.9703H106.143V55.8453H90.9243V33.2203ZM108.167 55.8453L116.011 33.2203H122.042L129.854 55.8453H124.823L123.12 50.6266H114.932L113.229 55.8453H108.167ZM121.932 46.9703L119.104 38.3141H118.948L116.12 46.9703H121.932ZM132.097 33.2203H140.972C142.67 33.2203 144.123 33.5224 145.331 34.1266C146.55 34.7307 147.477 35.5901 148.112 36.7047C148.748 37.8088 149.066 39.1057 149.066 40.5953C149.066 42.137 148.722 43.4599 148.034 44.5641C147.347 45.6682 146.357 46.4963 145.066 47.0484L149.878 55.8453H144.691L140.362 47.8141H136.784V55.8453H132.097V33.2203ZM140.097 44.0016C142.847 44.0016 144.222 42.8661 144.222 40.5953C144.222 39.4391 143.878 38.5641 143.191 37.9703C142.503 37.3661 141.472 37.0641 140.097 37.0641H136.784V44.0016H140.097ZM167.121 41.0953C166.996 40.2724 166.709 39.5588 166.261 38.9547C165.813 38.3401 165.24 37.8713 164.542 37.5484C163.845 37.2255 163.058 37.0641 162.183 37.0641C161.006 37.0641 159.975 37.3609 159.089 37.9547C158.214 38.538 157.537 39.3922 157.058 40.5172C156.579 41.6318 156.339 42.9703 156.339 44.5328C156.339 46.1266 156.579 47.4859 157.058 48.6109C157.537 49.7255 158.214 50.5693 159.089 51.1422C159.964 51.7151 160.985 52.0016 162.152 52.0016C163.454 52.0016 164.548 51.6578 165.433 50.9703C166.329 50.2828 166.891 49.3349 167.121 48.1266L171.871 48.1578C171.694 49.5849 171.188 50.9078 170.355 52.1266C169.522 53.3453 168.397 54.3245 166.98 55.0641C165.563 55.7932 163.933 56.1578 162.089 56.1578C160.058 56.1578 158.246 55.6995 156.652 54.7828C155.058 53.8557 153.808 52.5172 152.902 50.7672C152.006 49.0172 151.558 46.9391 151.558 44.5328C151.558 42.137 152.011 40.0641 152.917 38.3141C153.834 36.5536 155.089 35.2151 156.683 34.2984C158.287 33.3713 160.089 32.9078 162.089 32.9078C163.829 32.9078 165.402 33.2307 166.808 33.8766C168.214 34.5224 169.355 35.4651 170.23 36.7047C171.115 37.9338 171.662 39.3974 171.871 41.0953H167.121ZM174.832 33.2203H179.519V42.5953H189.332V33.2203H194.051V55.8453H189.332V46.4703H179.519V55.8453H174.832V33.2203Z" fill="#E22613"/>
<path d="M218.069 60.4043C218.069 34.2804 234.84 18.8381 256.069 23.1107" stroke="#E22613" stroke-width="1.40625" stroke-miterlimit="10"/>
<path d="M256.675 69.568C258.955 69.568 260.803 67.7197 260.803 65.4398C260.803 63.1598 258.955 61.3115 256.675 61.3115C254.395 61.3115 252.547 63.1598 252.547 65.4398C252.547 67.7197 254.395 69.568 256.675 69.568Z" fill="#E22613"/>
<path d="M242.106 78.232C243.023 78.232 243.766 77.4889 243.766 76.5723C243.766 75.6557 243.023 74.9126 242.106 74.9126C241.189 74.9126 240.446 75.6557 240.446 76.5723C240.446 77.4889 241.189 78.232 242.106 78.232Z" fill="#E22613"/>
<path d="M179.069 89.1989C194.576 91.0624 208.339 62.3743 230.927 74.3276" stroke="#E22613" stroke-width="1.40625" stroke-miterlimit="10"/>
</svg>
