<svg width="248" height="90" viewBox="0 0 248 90" fill="none" xmlns="http://www.w3.org/2000/svg">
<path d="M29.9209 7.06141C33.7616 20.7703 52.833 31.1359 71.4131 21.5373" stroke="#E22613" stroke-width="1.40625" stroke-miterlimit="10"/>
<path d="M28.2211 4.48113C28.9392 4.48113 29.5213 3.89901 29.5213 3.18094C29.5213 2.46286 28.9392 1.88075 28.2211 1.88075C27.503 1.88075 26.9209 2.46286 26.9209 3.18094C26.9209 3.89901 27.503 4.48113 28.2211 4.48113Z" fill="#E22613"/>
<path d="M23.6132 44.3644C25.7111 44.3644 27.4119 42.6637 27.4119 40.5657C27.4119 38.4677 25.7111 36.767 23.6132 36.767C21.5152 36.767 19.8145 38.4677 19.8145 40.5657C19.8145 42.6637 21.5152 44.3644 23.6132 44.3644Z" fill="#E22613"/>
<path d="M0.920898 57.2354C28.4646 40.5786 65.463 57.553 75.9904 87.1458" stroke="#E22613" stroke-width="1.40625" stroke-miterlimit="10"/>
<path d="M75.0521 55.5133H69.9896L77.8334 32.8883H83.8646L91.6771 55.5133H86.6459L84.9584 50.2945H76.7709L75.0521 55.5133ZM77.9584 46.6383H83.7709L80.9271 37.982H80.7709L77.9584 46.6383ZM93.9196 55.5133V32.8883H102.92C107.92 32.8883 110.42 35.2945 110.42 38.7008C110.42 41.357 108.701 43.0133 106.357 43.5445V43.7633C108.92 43.8883 111.326 45.9195 111.326 49.2633C111.326 52.857 108.638 55.5133 103.513 55.5133H93.9196ZM102.576 51.6383C105.295 51.6383 106.451 50.5133 106.451 48.8258C106.451 46.9195 105.013 45.5758 102.701 45.5758H98.6071V51.6383H102.576ZM102.232 42.357C104.201 42.357 105.67 41.2633 105.67 39.4508C105.67 37.8258 104.482 36.7008 102.326 36.7008H98.6071V42.357H102.232ZM134.693 44.2008C134.693 51.5758 130.1 55.8258 124.131 55.8258C118.1 55.8258 113.537 51.5445 113.537 44.2008C113.537 36.8258 118.1 32.5758 124.131 32.5758C130.1 32.5758 134.693 36.8258 134.693 44.2008ZM129.912 44.2008C129.912 39.357 127.631 36.732 124.131 36.732C120.631 36.732 118.318 39.357 118.318 44.2008C118.318 49.0445 120.631 51.6695 124.131 51.6695C127.631 51.6695 129.912 49.0445 129.912 44.2008ZM151.748 32.8883H156.467V47.5758C156.467 52.5445 152.717 55.8258 147.092 55.8258C141.467 55.8258 137.748 52.5445 137.748 47.5758V32.8883H142.436V47.2008C142.436 49.7945 144.28 51.7008 147.092 51.7008C149.936 51.7008 151.748 49.7945 151.748 47.2008V32.8883ZM159.085 36.7633V32.8883H177.616V36.7633H170.678V55.5133H166.022V36.7633H159.085Z" fill="#E22613"/>
<path d="M200.99 60.0723C200.99 33.9483 217.761 18.506 238.99 22.7787" stroke="#E22613" stroke-width="1.40625" stroke-miterlimit="10"/>
<path d="M239.596 69.236C241.876 69.236 243.724 67.3877 243.724 65.1077C243.724 62.8278 241.876 60.9795 239.596 60.9795C237.316 60.9795 235.468 62.8278 235.468 65.1077C235.468 67.3877 237.316 69.236 239.596 69.236Z" fill="#E22613"/>
<path d="M225.027 77.9C225.943 77.9 226.687 77.1569 226.687 76.2402C226.687 75.3236 225.943 74.5806 225.027 74.5806C224.11 74.5806 223.367 75.3236 223.367 76.2402C223.367 77.1569 224.11 77.9 225.027 77.9Z" fill="#E22613"/>
<path d="M161.99 88.8669C177.497 90.7303 191.259 62.0423 213.848 73.9956" stroke="#E22613" stroke-width="1.40625" stroke-miterlimit="10"/>
</svg>
