<svg width="252" height="94" viewBox="0 0 252 94" fill="none" xmlns="http://www.w3.org/2000/svg">
<path d="M204.634 63C204.634 36.8761 221.404 21.4338 242.634 25.7064" stroke="#E22613" stroke-width="1.40625" stroke-miterlimit="10"/>
<path d="M247.239 69.1638C249.519 69.1638 251.367 67.3156 251.367 65.0356C251.367 62.7556 249.519 60.9073 247.239 60.9073C244.959 60.9073 243.11 62.7556 243.11 65.0356C243.11 67.3156 244.959 69.1638 247.239 69.1638Z" fill="#E22613"/>
<path d="M32.6338 7.18066C36.4744 20.8896 55.5459 31.2551 74.126 21.6565" stroke="#E22613" stroke-width="1.40625" stroke-miterlimit="10"/>
<path d="M30.934 2.60038C31.6521 2.60038 32.2342 2.01826 32.2342 1.30019C32.2342 0.582114 31.6521 0 30.934 0C30.2159 0 29.6338 0.582114 29.6338 1.30019C29.6338 2.01826 30.2159 2.60038 30.934 2.60038Z" fill="#E22613"/>
<path d="M228.67 77.8278C229.587 77.8278 230.33 77.0847 230.33 76.1681C230.33 75.2515 229.587 74.5084 228.67 74.5084C227.754 74.5084 227.011 75.2515 227.011 76.1681C227.011 77.0847 227.754 77.8278 228.67 77.8278Z" fill="#E22613"/>
<path d="M36.3265 43.4838C38.4245 43.4838 40.1253 41.783 40.1253 39.6851C40.1253 37.5871 38.4245 35.8864 36.3265 35.8864C34.2286 35.8864 32.5278 37.5871 32.5278 39.6851C32.5278 41.783 34.2286 43.4838 36.3265 43.4838Z" fill="#E22613"/>
<path d="M165.634 92.7947C181.14 94.6581 194.903 65.97 217.492 77.9234" stroke="#E22613" stroke-width="1.40625" stroke-miterlimit="10"/>
<path d="M0.633789 57.3546C28.1774 40.6978 65.1759 57.6721 75.7033 87.2649" stroke="#E22613" stroke-width="1.40625" stroke-miterlimit="10"/>
<path d="M46.0419 57V34.375H54.9169C60.0731 34.375 63.0106 37.5312 63.0106 42C63.0106 46.5312 60.0106 49.625 54.7919 49.625H50.7294V57H46.0419ZM50.7294 45.8438H54.0419C56.8231 45.8438 58.1669 44.2812 58.1669 42C58.1669 39.75 56.8231 38.2188 54.0419 38.2188H50.7294V45.8438ZM66.8156 57H61.7531L69.5969 34.375H75.6281L83.4406 57H78.4094L76.7219 51.7812H68.5344L66.8156 57ZM69.7219 48.125H75.5344L72.6906 39.4688H72.5344L69.7219 48.125ZM85.6831 57V34.375H94.5581C99.7144 34.375 102.652 37.2812 102.652 41.75C102.652 44.8438 101.23 47.0938 98.6519 48.1875L103.464 57H98.2769L93.9644 48.9688H90.3706V57H85.6831ZM90.3706 45.1562H93.6831C96.4644 45.1562 97.8081 44 97.8081 41.75C97.8081 39.4688 96.4644 38.2188 93.6831 38.2188H90.3706V45.1562ZM104.707 38.25V34.375H123.238V38.25H116.301V57H111.644V38.25H104.707ZM144.699 34.375V57H140.637L130.699 42.625H130.512V57H125.824V34.375H129.949L139.824 48.75H140.043V34.375H144.699ZM148.192 57V34.375H163.379V38.25H152.879V43.75H162.598V47.625H152.879V53.125H163.411V57H148.192ZM166.716 57V34.375H175.591C180.747 34.375 183.684 37.2812 183.684 41.75C183.684 44.8438 182.263 47.0938 179.684 48.1875L184.497 57H179.309L174.997 48.9688H171.403V57H166.716ZM171.403 45.1562H174.716C177.497 45.1562 178.841 44 178.841 41.75C178.841 39.4688 177.497 38.2188 174.716 38.2188H171.403V45.1562ZM198.896 40.8438C198.708 39.0625 197.271 38 194.989 38C192.614 38 191.302 39.0938 191.271 40.5938C191.239 42.2188 192.958 42.9688 194.896 43.4062L196.927 43.9062C200.802 44.7812 203.708 46.75 203.708 50.5312C203.708 54.6875 200.458 57.3125 194.958 57.3125C189.489 57.3125 185.989 54.7812 185.864 49.9375H190.427C190.583 52.2188 192.396 53.375 194.896 53.375C197.364 53.375 198.958 52.2188 198.958 50.5312C198.958 49 197.552 48.2812 195.083 47.6562L192.614 47.0625C188.802 46.125 186.458 44.2188 186.458 40.9062C186.458 36.7812 190.083 34.0625 195.021 34.0625C200.021 34.0625 203.333 36.8438 203.396 40.8438H198.896Z" fill="#E22613"/>
</svg>
