<svg width="275" height="94" viewBox="0 0 275 94" fill="none" xmlns="http://www.w3.org/2000/svg">
<path d="M228.225 63C228.225 36.8761 244.995 21.4338 266.225 25.7064" stroke="#E22613" stroke-width="1.40625" stroke-miterlimit="10"/>
<path d="M270.83 69.1638C273.11 69.1638 274.958 67.3156 274.958 65.0356C274.958 62.7556 273.11 60.9073 270.83 60.9073C268.55 60.9073 266.702 62.7556 266.702 65.0356C266.702 67.3156 268.55 69.1638 270.83 69.1638Z" fill="#E22613"/>
<path d="M33.0415 7.18066C36.8822 20.8896 55.9536 31.2551 74.5337 21.6565" stroke="#E22613" stroke-width="1.40625" stroke-miterlimit="10"/>
<path d="M31.3417 2.60038C32.0598 2.60038 32.6419 2.01826 32.6419 1.30019C32.6419 0.582114 32.0598 0 31.3417 0C30.6236 0 30.0415 0.582114 30.0415 1.30019C30.0415 2.01826 30.6236 2.60038 31.3417 2.60038Z" fill="#E22613"/>
<path d="M252.261 77.8278C253.178 77.8278 253.921 77.0847 253.921 76.1681C253.921 75.2515 253.178 74.5084 252.261 74.5084C251.345 74.5084 250.602 75.2515 250.602 76.1681C250.602 77.0847 251.345 77.8278 252.261 77.8278Z" fill="#E22613"/>
<path d="M36.7343 43.4838C38.8322 43.4838 40.533 41.783 40.533 39.6851C40.533 37.5871 38.8322 35.8864 36.7343 35.8864C34.6363 35.8864 32.9355 37.5871 32.9355 39.6851C32.9355 41.783 34.6363 43.4838 36.7343 43.4838Z" fill="#E22613"/>
<path d="M189.225 92.7947C204.731 94.6581 218.494 65.97 241.082 77.9234" stroke="#E22613" stroke-width="1.40625" stroke-miterlimit="10"/>
<path d="M1.0415 57.3546C28.5852 40.6978 65.5836 57.6721 76.111 87.2649" stroke="#E22613" stroke-width="1.40625" stroke-miterlimit="10"/>
<path d="M64.0834 57V34.375H72.9584C78.1146 34.375 81.0521 37.5312 81.0521 42C81.0521 46.5312 78.0521 49.625 72.8334 49.625H68.7709V57H64.0834ZM68.7709 45.8438H72.0834C74.8646 45.8438 76.2084 44.2812 76.2084 42C76.2084 39.75 74.8646 38.2188 72.0834 38.2188H68.7709V45.8438ZM84.8571 57H79.7946L87.6384 34.375H93.6696L101.482 57H96.4509L94.7634 51.7812H86.5759L84.8571 57ZM87.7634 48.125H93.5759L90.7321 39.4688H90.5759L87.7634 48.125ZM103.725 57V34.375H112.6C117.756 34.375 120.693 37.2812 120.693 41.75C120.693 44.8438 119.272 47.0938 116.693 48.1875L121.506 57H116.318L112.006 48.9688H108.412V57H103.725ZM108.412 45.1562H111.725C114.506 45.1562 115.85 44 115.85 41.75C115.85 39.4688 114.506 38.2188 111.725 38.2188H108.412V45.1562ZM122.748 38.25V34.375H141.28V38.25H134.342V57H129.686V38.25H122.748ZM162.741 34.375V57H158.678L148.741 42.625H148.553V57H143.866V34.375H147.991L157.866 48.75H158.085V34.375H162.741ZM166.233 57V34.375H181.421V38.25H170.921V43.75H180.64V47.625H170.921V53.125H181.452V57H166.233ZM184.757 57V34.375H193.632C198.788 34.375 201.726 37.2812 201.726 41.75C201.726 44.8438 200.304 47.0938 197.726 48.1875L202.538 57H197.351L193.038 48.9688H189.445V57H184.757ZM189.445 45.1562H192.757C195.538 45.1562 196.882 44 196.882 41.75C196.882 39.4688 195.538 38.2188 192.757 38.2188H189.445V45.1562ZM216.937 40.8438C216.75 39.0625 215.312 38 213.031 38C210.656 38 209.343 39.0938 209.312 40.5938C209.281 42.2188 211 42.9688 212.937 43.4062L214.968 43.9062C218.843 44.7812 221.75 46.75 221.75 50.5312C221.75 54.6875 218.5 57.3125 213 57.3125C207.531 57.3125 204.031 54.7812 203.906 49.9375H208.468C208.625 52.2188 210.437 53.375 212.937 53.375C215.406 53.375 217 52.2188 217 50.5312C217 49 215.593 48.2812 213.125 47.6562L210.656 47.0625C206.843 46.125 204.5 44.2188 204.5 40.9062C204.5 36.7812 208.125 34.0625 213.062 34.0625C218.062 34.0625 221.375 36.8438 221.437 40.8438H216.937Z" fill="#E22613"/>
</svg>
