<svg xmlns="http://www.w3.org/2000/svg" width="145" height="70" viewBox="0 0 145 70" fill="none">
  <g clip-path="url(#clip0_1045_5072)">
    <path d="M68.1677 28.5219C53.4038 23.3398 41.2255 14.4098 43.3548 7.97838C45.1147 2.69856 54.588 0.884303 66.1797 2.99189C66.8098 2.86152 67.5702 2.70943 68.3416 2.55733C53.3495 -1.07119 40.8235 0.254201 38.8028 6.20758C36.5214 12.9649 48.5803 23.166 65.9298 29.3475L68.1569 28.5219H68.1677Z" fill="#E22613"/>
    <path d="M88.3526 9.29287H88.396C88.1462 9.16251 87.8963 9.05387 87.6464 8.93437C87.5269 8.86918 87.4074 8.81487 87.2771 8.74968C87.2771 8.74968 87.2771 8.74968 87.2771 8.76055C84.8979 7.68503 82.736 6.90283 82.736 6.90283L80.4111 7.43516C82.7903 8.09785 85.7344 9.69484 85.7344 9.69484C95.0013 14.8008 102.052 22.449 100.422 27.3594C98.9991 31.6398 92.4917 33.6387 83.8876 33.1172C83.1162 33.5083 82.2906 33.7799 81.5084 33.9972C94.1321 36.1808 104.116 34.5295 105.898 29.2714C107.701 23.9156 100.118 15.3223 88.3743 9.29287H88.3526Z" fill="#E22613"/>
    <path d="M80.3023 17.4625C71.5026 12.1718 69.6992 11.9111 72.828 9.05389C72.828 9.05389 68.4607 12.1935 65.2559 17.8427C65.2559 17.8427 72.6867 21.6016 75.5222 24.2524C76.1414 24.9585 76.7607 26.0884 76.4891 27.5659C75.9133 29.7169 73.5124 32.0526 67.1788 32.0852C67.1788 32.0852 76.4456 34.6273 82.4424 31.9331C88.4393 29.2497 89.1128 22.7532 80.3131 17.4625H80.3023Z" fill="#E22613"/>
    <path d="M86.1361 2.65511L69.6122 1.73169L74.3054 3.45904C69.2428 4.93652 62.6702 8.08703 57.499 13.4212L60.2367 14.9964C64.604 9.7166 72.4911 3.73063 86.1361 2.66598V2.65511Z" fill="#E22613"/>
    <path d="M60.835 15.3223L64.5721 17.4733C65.2565 16.2348 66.1148 14.8986 67.2012 13.5515C70.2756 9.71654 75.6206 5.19719 84.5507 3.28516C77.8477 4.01303 67.7661 6.64208 60.835 15.3114V15.3223Z" fill="#E22613"/>
    <path d="M67.5371 50.7383H66.1356V44.5459H63.2241V68.5006L66.1356 66.0997V53.5086H67.5371V68.5006L70.5572 66.0997V44.5459H67.5371V50.7383Z" fill="#E22613"/>
    <path d="M74.6954 61.5261V61.5479C73.9023 61.6348 73.2939 62.2975 73.2939 63.1014C73.2939 63.9053 73.9132 64.568 74.6954 64.6549V64.6766H95.228V61.5261H74.6954Z" fill="#E22613"/>
    <path d="M115.663 68.5006L118.824 66.0997V44.5459H115.663V68.5006Z" fill="#E22613"/>
    <path d="M140.672 50.7383V44.5459H137.511V68.4898L140.672 66.0889V53.5086H144.333V50.7383H140.672Z" fill="#E22613"/>
    <path d="M98.6622 44.7089V44.7306C97.8691 44.8175 97.2607 45.4802 97.2607 46.2841C97.2607 47.088 97.88 47.7616 98.6622 47.8376V47.8594H100.357V57.7237H98.6622V57.7455C97.8691 57.8324 97.2607 58.4951 97.2607 59.299C97.2607 60.1029 97.88 60.7656 98.6622 60.8525V60.8742H113.839V57.7237H111.253V47.8594H113.839V44.7089H98.6622ZM108.103 57.7346H103.507V47.8702H108.103V57.7346Z" fill="#E22613"/>
    <path d="M128.384 44.5459C124.278 44.5459 120.954 48.2396 120.954 52.7915C120.954 57.3435 124.278 61.0372 128.384 61.0372C132.491 61.0372 135.815 57.3435 135.815 52.7915C135.815 48.2396 132.491 44.5459 128.384 44.5459ZM128.384 57.6585C126.049 57.6585 124.137 55.4749 124.137 52.7915C124.137 50.1082 126.038 47.9354 128.384 47.9354C130.731 47.9354 132.632 50.119 132.632 52.7915C132.632 55.464 130.731 57.6585 128.384 57.6585Z" fill="#E22613"/>
    <path d="M54.7389 44.546C50.8496 44.546 47.71 48.2397 47.71 52.7917C47.71 57.3436 50.8605 61.0373 54.7389 61.0373C58.6172 61.0373 61.7677 57.3436 61.7677 52.7917C61.7677 48.2397 58.6172 44.546 54.7389 44.546ZM54.7389 57.6587C52.5878 57.6587 50.8279 55.475 50.8279 52.7917C50.8279 50.1083 52.577 47.9355 54.7389 47.9355C56.9008 47.9355 58.639 50.1192 58.639 52.7917C58.639 55.4642 56.8899 57.6587 54.7389 57.6587Z" fill="#E22613"/>
    <path d="M78.6939 57.3761H93.7403V54.2256H79.009C78.368 54.2256 77.9117 53.7693 77.9117 53.1175V48.7937C77.9117 48.1527 78.368 47.6964 79.009 47.6964H93.7403V44.5459H78.6939C76.5212 44.5459 74.7612 46.3058 74.7612 48.4786V53.4325C74.7612 55.6053 76.5212 57.3652 78.6939 57.3652" fill="#E22613"/>
    <path d="M42.4089 59.386H38.0308V62.1128H42.4089V65.2633H30.6108C29.9698 65.2633 29.5135 64.8071 29.5135 64.1661V60.3963H26.3848V64.4703C26.3848 66.6322 28.1338 68.3921 30.2957 68.3921H42.4198L45.5486 65.2633V44.5677H42.4089V59.3751" fill="#E22613"/>
    <path d="M14.3801 53.2588C12.9026 52.7808 11.8379 52.3571 10.7733 50.7058C9.49133 48.7177 9.58911 46.1213 9.56738 44.3396H6.30823C6.28651 46.1213 6.38428 48.7177 5.11321 50.7058C4.04856 52.368 2.9839 52.8894 1.50642 53.3674C0.832865 53.5304 0.322266 54.356 0.322266 55.0187C0.322266 55.8118 1.02841 56.4528 1.88666 56.4528C1.98443 56.4528 2.08221 56.4419 2.17998 56.431C2.2343 56.4202 2.27775 56.4093 2.33207 56.3876C3.136 56.2029 3.89646 55.8987 4.59175 55.4859C6.08009 54.6168 7.10129 53.4 7.88349 52.2159C7.89435 52.1941 7.93781 52.1398 7.93781 52.1398C7.93781 52.1398 7.9704 52.1941 7.99213 52.2159C8.77432 53.4109 9.78466 54.5081 11.273 55.3772C11.9791 55.7901 12.7396 56.0943 13.5435 56.2789C13.5979 56.2898 13.6413 56.3115 13.6956 56.3224C13.7934 56.3333 13.8912 56.3441 13.989 56.3441C14.8581 56.3441 15.5533 55.7032 15.5533 54.9101C15.5533 54.2474 15.0536 53.4218 14.3692 53.2588H14.3801Z" fill="#E22613"/>
    <path d="M25.6348 49.2935C25.6348 52.281 28.9156 54.6928 32.9461 54.6928C36.9766 54.6928 40.2683 52.2702 40.2683 49.2935C40.2683 46.3168 36.9875 43.8942 32.9461 43.8942C28.9048 43.8942 25.6348 46.3059 25.6348 49.2935ZM36.944 49.2935C36.944 50.7384 35.1515 51.9117 32.9461 51.9117C30.7408 51.9117 28.9482 50.7384 28.9482 49.2935C28.9482 47.8486 30.7408 46.6753 32.9461 46.6753C35.1515 46.6753 36.944 47.8486 36.944 49.2935Z" fill="#E22613"/>
    <path d="M31.8591 62.5039H34.9987V57.9085H40.5393V55.0947H26.123C25.2539 55.0947 24.5586 55.7248 24.5586 56.507C24.5586 57.2892 25.2539 57.9193 26.123 57.9193H31.8591V62.5147V62.5039Z" fill="#E22613"/>
    <path d="M21.9088 44.5459H18.7148V48.6959H13.3807V51.4662H18.7148V58.3864C17.6175 57.6694 14.9016 57.061 13.4784 57.061C9.66523 57.061 5.2002 59.5271 5.2002 63.1774C5.2002 66.8276 9.66523 69.2937 13.4784 69.2937C17.2916 69.2937 21.7567 66.8276 21.7567 63.1774C21.7567 61.5152 21.1266 60.4179 20.1923 59.375L21.9088 57.8432V44.5676V44.5459ZM13.6197 66.0889C11.599 66.0889 8.57885 65.0133 8.57885 63.0796C8.57885 61.1458 11.599 60.0703 13.6197 60.0703C15.6403 60.0703 18.6496 61.1458 18.6496 63.0796C18.6496 65.0133 15.6295 66.0889 13.6197 66.0889Z" fill="#E22613"/>
  </g>
  <defs>
    <clipPath id="clip0_1045_5072">
      <rect width="144" height="68.7245" fill="white" transform="translate(0.333008 0.547485)"/>
    </clipPath>
  </defs>
</svg>