<svg xmlns="http://www.w3.org/2000/svg" width="172" height="59" viewBox="0 0 172 59" fill="none">
  <path d="M15.2972 2.59863L12.3814 7.66155C11.6157 9.04235 11.0855 10.8067 11.056 10.9346C10.9971 10.7044 10.5848 9.06792 9.7896 7.68712L6.84435 2.59863L0.865597 2.59863L8.34646 13.9774L8.34645 21.2905L13.7068 21.2905L13.7068 13.9774L21.1582 2.59863L15.2382 2.59863L15.2972 2.59863Z" fill="#E22613"/>
  <path d="M27.2538 19.0349C25.1627 19.0349 24.1614 17.5262 24.1614 14.6624C24.1614 11.9008 25.1627 10.2643 27.2538 10.2643C29.345 10.2643 30.3758 11.7985 30.3758 14.6879C30.3758 17.5774 29.345 19.0349 27.2538 19.0349ZM27.4011 7.47711C22.0702 7.47711 18.9777 10.2131 18.9777 14.7646C18.9777 19.2394 22.0408 21.8221 27.1656 21.8221C32.4081 21.8221 35.5005 19.1372 35.5005 14.6624C35.5005 10.2898 32.5258 7.50268 27.4011 7.50268" fill="#E22613"/>
  <path d="M45.8984 19.0349C43.8072 19.0349 42.8059 17.5262 42.8059 14.6624C42.8059 11.9008 43.8072 10.2643 45.8984 10.2643C47.9895 10.2643 49.0203 11.7985 49.0203 14.6879C49.0203 17.5007 47.9895 19.0349 45.8984 19.0349ZM46.0456 7.47711C40.7147 7.47711 37.6222 10.2131 37.6222 14.7646C37.6222 19.2394 40.6852 21.8221 45.8099 21.8221C50.9347 21.8221 54.145 19.1372 54.145 14.6624C54.145 10.2898 51.1703 7.50268 46.0456 7.50268" fill="#E22613"/>
  <path d="M66.9896 7.63647C64.3978 7.63647 62.7191 8.91499 62.1301 10.0912L62.0416 7.99445L57.3883 7.99445L57.3883 21.2654L62.395 21.2654L62.395 13.2108C62.395 11.651 63.1608 10.5515 64.9574 10.5515C66.5478 10.5515 67.2548 11.3442 67.2548 12.904L67.2548 21.2654L72.2617 21.2654L72.2617 12.5204C72.2617 9.27297 70.2 7.6109 67.0191 7.6109" fill="#E22613"/>
  <path d="M83.5109 19.037C81.567 19.037 80.4477 17.3749 80.4477 14.7156C80.4477 11.9796 81.5669 10.3175 83.5402 10.3175C85.5135 10.3175 86.6033 11.8262 86.6033 14.6133C86.6033 17.4005 85.5431 19.037 83.5109 19.037ZM86.5444 7.63264C86.5444 8.45089 86.6327 9.19243 86.6916 9.70383C86.2793 8.93672 84.6301 7.45365 82.0382 7.45365C77.9738 7.45365 75.323 10.4198 75.323 14.7923C75.323 18.9347 77.8854 21.6196 81.7731 21.6196C84.1293 21.6196 85.7786 20.7246 86.7211 19.2927L86.839 21.2616L91.4629 21.2616L91.4629 0.88208L86.5149 0.88208L86.5149 7.63264L86.5444 7.63264Z" fill="#E22613"/>
  <path d="M99.9395 13.0514C100.205 10.9291 101.059 10.0086 102.708 10.0086C104.357 10.0086 105.212 10.9547 105.329 13.0514L99.9395 13.0514ZM102.738 7.47711C97.7011 7.47711 94.6676 10.2131 94.6676 14.7646C94.6676 19.3162 97.6128 21.8221 102.708 21.8221C106.537 21.8221 109.482 20.3901 110.248 17.2961L105.182 17.2961C104.799 18.4468 104.181 18.9838 102.738 18.9838C100.116 18.9838 99.7923 16.9381 99.7923 15.3272L110.513 15.3272C110.513 15.0204 110.542 14.7902 110.542 14.6368C110.542 10.162 107.45 7.52825 102.738 7.52825" fill="#E22613"/>
  <path d="M122.591 13.7418L120.677 13.1537C118.438 12.4889 117.996 12.0031 117.996 11.1337C117.996 10.3666 118.674 9.93186 119.734 9.93186C120.912 9.93186 121.619 10.5711 121.707 11.9008L126.42 11.9008C126.184 10.2131 125.36 7.47711 119.764 7.47711C115.846 7.47711 113.284 9.11361 113.284 11.5939C113.284 13.4606 114.462 14.5345 117.231 15.4039L119.557 16.1199C121.266 16.6824 121.737 17.1171 121.737 17.9098C121.737 18.6258 121.148 19.265 119.764 19.265C118.085 19.265 117.731 18.2678 117.555 17.0915L112.636 17.0915C112.989 20.2623 115.198 21.8221 119.675 21.8221C123.74 21.8221 126.449 20.2623 126.449 17.6285C126.449 15.813 125.389 14.6368 122.532 13.7674" fill="#E22613"/>
  <path d="M145.067 14.9181C143.83 14.9181 142.829 14.2788 142.829 12.4633C142.829 10.6478 143.8 9.88072 145.067 9.88072C146.392 9.88072 147.394 10.6478 147.394 12.4633C147.394 14.2532 146.363 14.9181 145.067 14.9181ZM143.83 21.8988L145.98 22.1545C148.483 22.4357 149.426 22.9216 149.426 23.97C149.426 25.274 147.629 25.8622 145.538 25.8622C143.447 25.8622 141.768 25.2485 141.768 23.7654C141.768 22.2823 143.801 21.8988 143.801 21.8988M145.037 7.50268C144.478 7.50268 143.624 7.52825 142.917 7.63053C140.325 8.03966 137.792 9.36931 137.792 12.4378C137.792 14.5857 139.029 15.9665 140.855 16.6569C140.649 16.7336 138.794 17.5518 138.794 18.8815C138.794 20.6458 141.15 21.1061 141.238 21.1317C141.032 21.1572 137.233 21.7198 137.233 24.4558C137.233 27.6009 141.768 28.4703 145.391 28.4703C149.308 28.4703 154.138 27.243 154.138 23.7398C154.138 20.16 150.486 19.444 146.805 19.086L144.831 18.8815C143.064 18.7025 142.593 18.4723 142.593 17.9354C142.593 17.5518 142.829 17.3472 143.035 17.245C143.683 17.3217 144.419 17.3472 145.067 17.3472C148.395 17.3472 152.224 16.1199 152.224 12.7446C152.224 11.1081 151.281 10.4177 151.281 10.4177C151.281 10.4177 151.929 10.5967 153.196 10.5967L154.403 10.5967L154.403 7.98852L148.336 7.98852C147.364 7.6561 146.039 7.47711 145.008 7.47711" fill="#E22613"/>
  <path d="M166.595 7.63641C164.003 7.63641 162.324 8.91493 161.735 10.0912L161.647 7.99439L156.993 7.99439L156.993 21.2654L162 21.2654L162 13.2107C162 11.6509 162.766 10.5514 164.562 10.5514C166.153 10.5514 166.86 11.3441 166.86 12.9039L166.86 21.2654L171.867 21.2654L171.867 12.5203C171.867 9.27291 169.805 7.61084 166.624 7.61084" fill="#E22613"/>
  <path d="M131.904 0.90448C130.254 0.90448 128.929 2.05514 128.929 3.48708C128.929 4.91902 130.254 6.06968 131.904 6.06968C133.553 6.06968 134.878 4.91902 134.878 3.48708C134.878 2.05514 133.553 0.90448 131.904 0.90448Z" fill="#E22613"/>
  <path d="M134.404 21.2867L134.404 8.01569L129.397 8.01569L129.397 21.2867L134.404 21.2867Z" fill="#E22613"/>
  <path d="M9.99673 37.2443C10.9981 37.2443 11.8523 37.3977 12.5886 37.7046L17.625 37.6534L17.625 38.5995L15.5338 38.5995C14.768 38.5995 14.4734 38.5995 13.796 38.4973C14.5323 38.932 15.5044 39.9292 15.5338 41.8981C15.5927 44.941 13.1775 46.6542 10.1145 46.7053C9.31926 46.7053 8.55347 46.6286 7.87606 46.4241C7.64044 46.5775 6.72758 47.14 6.75703 47.9583C6.78648 48.7765 7.81718 49.0067 9.37816 49.2112L11.705 49.5436C14.4146 49.9272 17.3892 50.6176 17.4481 53.5582C17.507 56.4988 14.1201 58.0074 10.792 58.033C7.28716 58.0841 3.87054 57.0869 3.84108 54.0184C3.84109 52.1262 5.49046 50.7199 7.37542 49.9272C7.37542 49.9272 5.51987 49.5948 5.49042 48.214C5.49042 46.9099 6.8748 46.1684 7.08097 46.0405C5.6378 45.299 4.66582 43.9437 4.63636 41.9493C4.57746 38.932 6.96316 37.1932 10.0262 37.1676L9.99673 37.2443ZM5.22544 53.9417C5.2549 56.1919 7.81715 57.1636 10.8213 57.138C13.1186 57.1124 16.0934 56.1152 16.0639 53.7116C16.0345 51.7171 14.2085 51.0011 11.1749 50.592L8.49463 50.234C7.08091 50.7454 5.19599 52.2285 5.22544 53.9417ZM10.144 45.7848C12.2351 45.7848 14.2084 44.6086 14.1494 41.9237C14.12 39.2899 12.1173 38.1648 10.0262 38.1904C7.93509 38.216 5.99112 39.4434 6.05002 42.026C6.10893 44.6086 7.84667 45.8104 10.144 45.7848Z" fill="#E22613"/>
  <path d="M22.1894 40.9992C23.0435 38.5956 25.4586 37.1893 27.9326 37.2915L27.9326 38.4422L27.5202 38.4422C24.4277 38.4678 22.2187 40.7691 22.2776 43.8887L22.3955 50.8182L21.0407 50.8182L20.8345 37.6495L22.0421 37.6495L22.1599 41.0248L22.1894 40.9992Z" fill="#E22613"/>
  <path d="M44.1606 43.995C44.2195 48.3164 41.7749 51.0524 37.3571 51.1035C32.9392 51.1547 30.4357 48.5721 30.3474 44.1484C30.2885 39.5713 32.7921 36.9631 37.1216 36.912C41.4511 36.8609 44.0722 39.4179 44.1606 43.995ZM31.7317 44.1484C31.7906 48.0351 33.8522 50.183 37.3276 50.1574C40.8324 50.1063 42.8058 47.9328 42.7469 44.0206C42.688 40.0572 40.7441 37.8581 37.1509 37.9093C33.6166 37.9604 31.6728 40.2106 31.7317 44.1484Z" fill="#E22613"/>
  <path d="M60.4505 50.3658L59.2428 50.3658L59.1546 47.502C58.2121 49.701 56.4745 50.7238 53.8827 50.775C50.6723 50.8005 48.7284 49.0873 48.6695 45.8399L48.5518 37.2994L49.9065 37.2994L50.0244 45.5075C50.0538 48.3458 51.4085 49.7777 53.9414 49.7522C56.9456 49.7266 59.0663 47.8344 59.0368 45.1495L58.9189 37.1971L60.2738 37.1971L60.48 50.3658L60.4505 50.3658Z" fill="#E22613"/>
  <path d="M67.1632 39.0341C67.1926 39.5966 67.1632 40.3893 67.1632 40.3893C67.9878 37.8067 70.1673 36.7072 72.7002 36.6816C76.3818 36.6305 78.797 39.213 78.8559 43.3554C78.9148 47.7535 76.4997 50.6685 72.612 50.7197C70.4325 50.7197 68.1058 49.748 67.2811 47.2933C67.3694 47.9581 67.4283 48.7763 67.4283 49.0576L67.5461 56.8821L66.2208 56.8821L65.9262 37.1163L67.0749 37.1163L67.1632 39.0596L67.1632 39.0341ZM67.2811 43.8157C67.34 47.6257 69.4016 49.7992 72.5825 49.7736C75.675 49.748 77.4127 47.3188 77.3538 43.4577C77.2949 39.5966 75.5278 37.6021 72.4353 37.6277C69.2839 37.6533 67.2517 39.929 67.3106 43.8157L67.2811 43.8157Z" fill="#E22613"/>
</svg>