<svg xmlns="http://www.w3.org/2000/svg" width="16" height="17" viewBox="0 0 16 17" fill="none">
  <g clip-path="url(#clip0_1075_11694)">
    <rect width="16" height="16" transform="translate(0 0.925293)" fill="white"/>
    <path d="M11.6098 13.5702C11.5224 13.7561 11.4185 13.9364 11.3092 14.1168C11.0469 14.5431 10.7299 14.9312 10.3691 15.2755C9.42356 16.1828 8.17739 16.784 6.76725 16.9043C4.3405 17.112 2.13238 15.8275 1.03925 13.8107C0.984589 13.7123 0.935398 13.614 0.891673 13.5156C0.596528 12.898 0.410697 12.2147 0.350574 11.4933C0.323246 11.138 0.323246 10.7882 0.350574 10.4493C0.470819 9.13758 1.02285 7.92968 1.87003 6.99505C2.04493 6.80375 2.22529 6.62885 2.42752 6.45941C2.85931 6.08775 3.35668 5.77621 3.89232 5.54118C4.47168 5.28976 5.10023 5.12579 5.76157 5.07114C7.59803 4.9181 9.31425 5.6177 10.5112 6.84201C10.5823 6.91306 10.6479 6.98412 10.7189 7.06064C11.3584 7.78757 11.8284 8.673 12.058 9.66229C12.1181 9.9301 12.1619 10.2034 12.1892 10.4821C12.2821 11.5862 12.0689 12.6411 11.6153 13.5702H11.6098Z" fill="#EC1C24"/>
    <mask id="mask0_1075_11694" style="mask-type:luminance" maskUnits="userSpaceOnUse" x="0" y="5" width="13" height="12">
      <path d="M11.6059 13.5634C11.5185 13.7492 11.4146 13.9296 11.3053 14.11C11.043 14.5363 10.7259 14.9243 10.3652 15.2687C9.41965 16.176 8.17348 16.7772 6.76335 16.8974C4.3366 17.1051 2.12847 15.8207 1.03534 13.8039C0.980683 13.7055 0.931492 13.6071 0.887767 13.5087C0.592621 12.8911 0.40679 12.2079 0.346668 11.4864C0.31934 11.1312 0.31934 10.7814 0.346668 10.4425C0.466912 9.13075 1.01894 7.92284 1.86612 6.98821C2.04102 6.79691 2.22139 6.62201 2.42362 6.45258C2.8554 6.08091 3.35278 5.76937 3.88841 5.53435C4.46777 5.28293 5.09632 5.11896 5.75767 5.0643C7.59413 4.91126 9.31034 5.61087 10.5073 6.83517C10.5784 6.90623 10.644 6.97728 10.715 7.0538C11.3545 7.78073 11.8245 8.66617 12.0541 9.65545C12.1142 9.92327 12.1579 10.1966 12.1853 10.4753C12.2782 11.5794 12.065 12.6342 11.6114 13.5634H11.6059Z" fill="white"/>
    </mask>
    <g mask="url(#mask0_1075_11694)">
      <path d="M-2.34315 16.3415C-0.26635 16.3415 1.41722 14.658 1.41722 12.5812C1.41722 10.5044 -0.26635 8.8208 -2.34315 8.8208C-4.41994 8.8208 -6.10352 10.5044 -6.10352 12.5812C-6.10352 14.658 -4.41994 16.3415 -2.34315 16.3415Z" fill="#00BD84"/>
      <path d="M2.10021 16.1018C4.17701 16.1018 5.86059 14.4182 5.86059 12.3414C5.86059 10.2646 4.17701 8.58105 2.10021 8.58105C0.0234187 8.58105 -1.66016 10.2646 -1.66016 12.3414C-1.66016 14.4182 0.0234187 16.1018 2.10021 16.1018Z" fill="#00BD84"/>
      <path d="M6.18225 14.7087C8.25904 14.7087 9.94262 13.0252 9.94262 10.9484C9.94262 8.87156 8.25904 7.18799 6.18225 7.18799C4.10545 7.18799 2.42188 8.87156 2.42188 10.9484C2.42188 13.0252 4.10545 14.7087 6.18225 14.7087Z" fill="#00BD84"/>
      <path d="M9.56506 12.1545C11.6419 12.1545 13.3254 10.471 13.3254 8.39416C13.3254 6.31736 11.6419 4.63379 9.56506 4.63379C7.48826 4.63379 5.80469 6.31736 5.80469 8.39416C5.80469 10.471 7.48826 12.1545 9.56506 12.1545Z" fill="#00BD84"/>
      <path d="M11.9147 8.44359C13.9915 8.44359 15.675 6.76002 15.675 4.68322C15.675 2.60643 13.9915 0.922852 11.9147 0.922852C9.83787 0.922852 8.1543 2.60643 8.1543 4.68322C8.1543 6.76002 9.83787 8.44359 11.9147 8.44359Z" fill="#00BD84"/>
    </g>
    <path d="M6.18029 14.7112C8.25709 14.7112 9.94066 13.0276 9.94066 10.9508C9.94066 8.874 8.25709 7.19043 6.18029 7.19043C4.1035 7.19043 2.41992 8.874 2.41992 10.9508C2.41992 13.0276 4.1035 14.7112 6.18029 14.7112Z" fill="#00BD84"/>
    <path d="M9.5631 12.157C11.6399 12.157 13.3235 10.4734 13.3235 8.3966C13.3235 6.31981 11.6399 4.63623 9.5631 4.63623C7.48631 4.63623 5.80273 6.31981 5.80273 8.3966C5.80273 10.4734 7.48631 12.157 9.5631 12.157Z" fill="#00BD84"/>
    <path d="M11.9147 8.44603C13.9915 8.44603 15.675 6.76246 15.675 4.68566C15.675 2.60887 13.9915 0.925293 11.9147 0.925293C9.83787 0.925293 8.1543 2.60887 8.1543 4.68566C8.1543 6.76246 9.83787 8.44603 11.9147 8.44603Z" fill="#00BD84"/>
  </g>
  <defs>
    <clipPath id="clip0_1075_11694">
      <rect width="16" height="16" fill="white" transform="translate(0 0.925293)"/>
    </clipPath>
  </defs>
</svg>