<svg width="16" height="16" viewBox="0 0 16 16" fill="none" xmlns="http://www.w3.org/2000/svg">
<g clip-path="url(#clip0_1128_11715)">
<path d="M11.6088 12.6449C11.5214 12.8308 11.4175 13.0111 11.3082 13.1915C11.0459 13.6178 10.7289 14.0059 10.3681 14.3502C9.42258 15.2575 8.17641 15.8587 6.76628 15.979C4.33952 16.1867 2.1314 14.9023 1.03827 12.8854C0.983613 12.787 0.934422 12.6887 0.890696 12.5903C0.595551 11.9727 0.40972 11.2895 0.349598 10.568C0.322269 10.2127 0.322269 9.86292 0.349598 9.52405C0.469842 8.21229 1.02187 7.00438 1.86905 6.06976C2.04395 5.87846 2.22432 5.70356 2.42655 5.53412C2.85833 5.16246 3.35571 4.85091 3.89134 4.61589C4.4707 4.36447 5.09925 4.2005 5.76059 4.14584C7.59705 3.99281 9.31327 4.69241 10.5103 5.91672C10.5813 5.98777 10.6469 6.05882 10.7179 6.13534C11.3574 6.86228 11.8275 7.74771 12.057 8.73699C12.1172 9.00481 12.1609 9.27809 12.1882 9.55684C12.2811 10.6609 12.068 11.7158 11.6143 12.6449H11.6088Z" fill="#EC1C24"/>
<mask id="mask0_1128_11715" style="mask-type:luminance" maskUnits="userSpaceOnUse" x="0" y="4" width="13" height="12">
<path d="M11.6059 12.6381C11.5185 12.8239 11.4146 13.0043 11.3053 13.1847C11.043 13.611 10.7259 13.9991 10.3652 14.3434C9.41965 15.2507 8.17348 15.8519 6.76335 15.9722C4.3366 16.1798 2.12847 14.8954 1.03534 12.8786C0.980683 12.7802 0.931492 12.6818 0.887767 12.5834C0.592621 11.9658 0.40679 11.2826 0.346668 10.5612C0.31934 10.2059 0.31934 9.85608 0.346668 9.51721C0.466912 8.20546 1.01894 6.99755 1.86612 6.06292C2.04102 5.87162 2.22139 5.69672 2.42362 5.52729C2.8554 5.15562 3.35278 4.84408 3.88841 4.60905C4.46777 4.35763 5.09632 4.19367 5.75767 4.13901C7.59413 3.98597 9.31034 4.68557 10.5073 5.90988C10.5784 5.98093 10.644 6.05199 10.715 6.12851C11.3545 6.85544 11.8245 7.74088 12.0541 8.73016C12.1142 8.99798 12.1579 9.27126 12.1853 9.55001C12.2782 10.6541 12.065 11.7089 11.6114 12.6381H11.6059Z" fill="white"/>
</mask>
<g mask="url(#mask0_1128_11715)">
<path d="M-2.34412 15.4162C-0.267327 15.4162 1.41625 13.7327 1.41625 11.6559C1.41625 9.57908 -0.267327 7.89551 -2.34412 7.89551C-4.42092 7.89551 -6.10449 9.57908 -6.10449 11.6559C-6.10449 13.7327 -4.42092 15.4162 -2.34412 15.4162Z" fill="#00BD84"/>
<path d="M2.09924 15.1765C4.17603 15.1765 5.85961 13.4929 5.85961 11.4161C5.85961 9.33934 4.17603 7.65576 2.09924 7.65576C0.0224421 7.65576 -1.66113 9.33934 -1.66113 11.4161C-1.66113 13.4929 0.0224421 15.1765 2.09924 15.1765Z" fill="#00BD84"/>
<path d="M6.18127 13.7834C8.25806 13.7834 9.94164 12.0999 9.94164 10.0231C9.94164 7.94627 8.25806 6.2627 6.18127 6.2627C4.10447 6.2627 2.4209 7.94627 2.4209 10.0231C2.4209 12.0999 4.10447 13.7834 6.18127 13.7834Z" fill="#00BD84"/>
<path d="M9.56506 11.2292C11.6419 11.2292 13.3254 9.54566 13.3254 7.46887C13.3254 5.39207 11.6419 3.7085 9.56506 3.7085C7.48826 3.7085 5.80469 5.39207 5.80469 7.46887C5.80469 9.54566 7.48826 11.2292 9.56506 11.2292Z" fill="#00BD84"/>
<path d="M11.9147 7.5183C13.9915 7.5183 15.675 5.83472 15.675 3.75793C15.675 1.68113 13.9915 -0.00244141 11.9147 -0.00244141C9.83787 -0.00244141 8.1543 1.68113 8.1543 3.75793C8.1543 5.83472 9.83787 7.5183 11.9147 7.5183Z" fill="#00BD84"/>
</g>
<path d="M6.18029 13.7859C8.25709 13.7859 9.94066 12.1023 9.94066 10.0255C9.94066 7.94871 8.25709 6.26514 6.18029 6.26514C4.1035 6.26514 2.41992 7.94871 2.41992 10.0255C2.41992 12.1023 4.1035 13.7859 6.18029 13.7859Z" fill="#00BD84"/>
<path d="M9.56408 11.2317C11.6409 11.2317 13.3245 9.5481 13.3245 7.47131C13.3245 5.39451 11.6409 3.71094 9.56408 3.71094C7.48728 3.71094 5.80371 5.39451 5.80371 7.47131C5.80371 9.5481 7.48728 11.2317 9.56408 11.2317Z" fill="#00BD84"/>
<path d="M11.9137 7.52074C13.9905 7.52074 15.6741 5.83717 15.6741 3.76037C15.6741 1.68358 13.9905 0 11.9137 0C9.8369 0 8.15332 1.68358 8.15332 3.76037C8.15332 5.83717 9.8369 7.52074 11.9137 7.52074Z" fill="#00BD84"/>
</g>
<defs>
<clipPath id="clip0_1128_11715">
<rect width="16" height="16" fill="white"/>
</clipPath>
</defs>
</svg>
